<?xml version="1.0" encoding="UTF-8" standalone="no"?>
<!-- Created with Inkscape (http://www.inkscape.org/) -->

<svg
   xmlns:dc="http://purl.org/dc/elements/1.1/"
   xmlns:cc="http://creativecommons.org/ns#"
   xmlns:rdf="http://www.w3.org/1999/02/22-rdf-syntax-ns#"
   xmlns:svg="http://www.w3.org/2000/svg"
   xmlns="http://www.w3.org/2000/svg"
   xmlns:sodipodi="http://sodipodi.sourceforge.net/DTD/sodipodi-0.dtd"
   xmlns:inkscape="http://www.inkscape.org/namespaces/inkscape"
   width="210mm"
   height="297mm"
   viewBox="0 0 744.09448819 1052.3622047"
   id="svg2"
   version="1.1"
   inkscape:version="0.91 r13725"
   sodipodi:docname="box.svg">
  <defs
     id="defs4" />
  <sodipodi:namedview
     id="base"
     pagecolor="#ffffff"
     bordercolor="#666666"
     borderopacity="1.0"
     inkscape:pageopacity="0.0"
     inkscape:pageshadow="2"
     inkscape:zoom="0.86537678"
     inkscape:cx="216.53293"
     inkscape:cy="677.20504"
     inkscape:document-units="px"
     inkscape:current-layer="layer1"
     showgrid="false"
     inkscape:window-width="1440"
     inkscape:window-height="801"
     inkscape:window-x="0"
     inkscape:window-y="0"
     inkscape:window-maximized="1" />
  <metadata
     id="metadata7">
    <rdf:RDF>
      <cc:Work
         rdf:about="">
        <dc:format>image/svg+xml</dc:format>
        <dc:type
           rdf:resource="http://purl.org/dc/dcmitype/StillImage" />
        <dc:title></dc:title>
      </cc:Work>
    </rdf:RDF>
  </metadata>
  <g
     inkscape:label="Layer 1"
     inkscape:groupmode="layer"
     id="layer1">
    <path
       style="fill:#ffb380;fill-rule:evenodd;stroke:#000000;stroke-width:5;stroke-linecap:butt;stroke-linejoin:miter;stroke-opacity:1;stroke-miterlimit:4;stroke-dasharray:none"
       d="m 89.034,377.09135 c 0,34.30314 0,68.60628 0,102.90943 0,17.72971 0,35.45942 0,53.18914 0,4.23971 0,8.47943 0,12.71914 0,2.698 -0.482633,5.43952 0,8.094 0.308343,1.69589 1.707344,3.0112 2.312571,4.62514 0.557993,1.48798 0.653749,3.11754 1.156286,4.62515 0.272539,0.81762 0.947258,1.47646 1.156286,2.31257 0.18696,0.74784 0,1.54171 0,2.31257 0,0.77086 0,1.54171 0,2.31257 0,3.08343 0,6.16686 0,9.25029 0,1.92714 0,3.85428 0,5.78143 0,0.77085 -0.462514,1.69588 0,2.31257 1.182756,1.57701 6.840347,3.78937 8.093997,4.62514 0.90707,0.60471 1.44045,1.65848 2.31257,2.31257 0.68948,0.51711 1.70316,0.54687 2.31258,1.15629 0.27253,0.27254 -0.27254,0.88374 0,1.15628 0.27253,0.27254 0.77085,0 1.15628,0 0.38543,0 0.77086,0 1.15629,0 1.92714,0 3.85428,0 5.78143,0 14.26085,0 28.52171,0 42.78257,0 6.55228,0 13.10457,0 19.65685,0 15.25774,0 26.24446,0.34438 41.62629,-1.15628 35.80821,-3.49349 14.06408,-1.81183 42.78257,-8.094 6.64875,-1.45442 28.12436,-4.95424 35.84486,-5.78143 14.89279,-1.59566 19.26679,-1.15629 34.68857,-1.15629 6.16686,0 12.33371,0 18.50057,0 6.55229,0 13.10777,-0.20466 19.65686,0 5.79143,0.18099 11.58546,0.51642 17.34428,1.15629 9.32053,1.03561 18.4454,3.46196 27.75086,4.62514 12.067,1.50838 14.74586,1.15629 26.59457,1.15629 3.08343,0 6.16686,0 9.25029,0 1.15628,0 2.33502,-0.22677 3.46886,0 26.69442,5.33888 -5.03592,-1.07768 19.65685,5.78143 3.78722,1.052 7.71656,1.50282 11.56286,2.31257 3.47725,0.73205 6.87483,1.92015 10.40657,2.31257 6.90592,0.76732 13.87746,0.73594 20.81314,1.15628 5.78365,0.35053 11.55347,0.95661 17.34429,1.15629 9.24479,0.31879 18.50057,0 27.75086,0 4.23971,0 8.47943,0 12.71914,0 3.46886,0 6.94447,0.21638 10.40657,0 2.72009,-0.17 5.37802,-0.92995 8.094,-1.15629 1.92049,-0.16004 3.86385,0.19176 5.78143,0 1.95555,-0.19555 3.8313,-0.91251 5.78143,-1.15628 12.26305,-1.53288 -5.61322,1.98145 6.93771,-1.15629 0.37392,-0.0935 0.81155,0.17237 1.15629,0 0.48753,-0.24376 0.66875,-0.91252 1.15628,-1.15628 0.34474,-0.17237 0.88375,0.27254 1.15629,0 0.27254,-0.27254 -0.17237,-0.81155 0,-1.15629 0.48753,-0.97506 1.96783,-1.27836 2.31257,-2.31257 0.24377,-0.7313 -0.3966,-1.65157 0,-2.31257 0.84132,-1.4022 2.31257,-2.31257 3.46886,-3.46886 1.54171,-1.54171 3.41572,-2.81101 4.62514,-4.62514 1.15134,-1.727 1.38434,-3.92496 2.31257,-5.78143 1.24297,-2.48594 3.38218,-4.45177 4.62515,-6.93771 2.66171,-5.32342 0.075,-1.53129 1.15628,-6.93772 0.5503,-2.75147 1.76228,-5.34253 2.31257,-8.094 0.29236,-1.46178 2.26971,-18.79963 2.31257,-19.65686 0.4047,-8.094 -0.3679,-16.188 0,-24.282 0.21075,-4.63638 0.94555,-9.23904 1.15629,-13.87542 0.29752,-6.54553 0,-13.10458 0,-19.65686 0,-13.87543 0,-27.75086 0,-41.62629 0,-8.86485 0,-17.72971 0,-26.59457 0,-2.31257 0,-4.62514 0,-6.93771 0,-1.15629 -0.28044,-2.3471 0,-3.46886 0.1322,-0.5288 0.91252,-0.66875 1.15629,-1.15629 0.17594,-0.35189 0,-2.94811 0,-3.46885 0,-3.08343 0,-6.16686 0,-9.25029"
       id="path3338"
       inkscape:connector-curvature="0"
       inkscape:export-xdpi="16.028021"
       inkscape:export-ydpi="16.028021" />
    <path
       style="fill:#ffccaa;fill-rule:evenodd;stroke:#000000;stroke-width:5;stroke-linecap:butt;stroke-linejoin:miter;stroke-opacity:1;stroke-miterlimit:4;stroke-dasharray:none"
       d="m 167.66143,244.11849 c 32.76143,0 65.52286,0 98.28428,0 11.94829,0 23.89658,0 35.84486,0 14.64629,0 29.3064,-0.63619 43.93886,0 11.99277,0.52143 23.90276,2.25028 35.84486,3.46886 6.94434,0.7086 13.93895,1.09948 20.81314,2.31257 6.25992,1.10469 12.32138,3.13361 18.50057,4.62514 4.9987,1.20658 10.00682,2.37649 15.03171,3.46886 3.84091,0.83498 7.69957,1.5882 11.56286,2.31257 2.30432,0.43206 4.66325,0.58767 6.93772,1.15629 2.36488,0.59122 4.62514,1.54171 6.93771,2.31257 2.31257,0.77085 4.62514,1.54171 6.93771,2.31257 1.15629,0.38543 2.2737,0.91725 3.46886,1.15628 0.75589,0.15118 1.58127,-0.24376 2.31257,0 0.51711,0.17237 0.66876,0.91252 1.15629,1.15629 0.0541,0.0271 3.45626,0.008 3.46886,0 0.90706,-0.60471 1.54171,-1.54171 2.31257,-2.31257 1.15628,-0.77086 2.27721,-1.59759 3.46885,-2.31257 1.47806,-0.88683 3.2462,-1.27836 4.62515,-2.31257 1.30819,-0.98114 2.10826,-2.5618 3.46885,-3.46886 0.77086,-0.38543 1.54172,-0.77086 2.31258,-1.15629 0.38542,0 0.81154,0.17237 1.15628,0 0.48753,-0.24376 0.66875,-0.91252 1.15629,-1.15628 0.34473,-0.17237 0.83559,0.21379 1.15628,0 0.90707,-0.60471 1.40551,-1.70786 2.31257,-2.31257 0.3207,-0.2138 0.79064,0.12188 1.15629,0 4.50307,-1.50103 0.10817,-1.15629 4.62514,-1.15629 3.08343,0 6.16686,0 9.25029,0 0.38543,0 0.77086,0 1.15628,0 0.38543,0 0.98392,-0.34474 1.15629,0 0.34474,0.68948 -0.30366,1.60404 0,2.31257 1.77212,4.13495 8.43113,12.47526 10.40657,15.03172 4.19597,5.43008 8.69116,10.63216 12.71914,16.188 7.15415,9.86779 13.15008,20.58542 20.81315,30.06342 7.02749,8.69191 15.33417,16.26785 23.12571,24.282 6.19706,6.37412 24.65449,24.96897 32.376,31.21972 2.82616,2.28784 6.13233,3.91066 9.25029,5.78143 7.19781,4.31868 7.01116,4.36361 13.87543,6.93771 1.14122,0.42796 2.3372,0.70362 3.46885,1.15629 3.32164,1.32865 1.15363,1.15628 3.46886,1.15628 0.77086,0 3.08343,0 2.31257,0 -51.84215,0 -104.54531,-1.2178 -156.09857,3.46886 -63.77273,5.79752 -116.19574,18.62368 -179.22429,23.12571 -28.07531,2.00538 -56.26201,2.31258 -84.40885,2.31258 -14.28168,0 -28.64444,-0.29284 -42.78257,-2.31258 -11.91259,-1.70179 -23.0495,-7.16943 -33.53229,-12.71914 -2.7463,-1.45392 -5.37762,-3.11604 -8.094,-4.62514 -0.75339,-0.41855 -1.47646,-0.94726 -2.31257,-1.15629 -0.74784,-0.18696 -1.54172,0 -2.31257,0 -1.54172,-0.38543 -3.11753,-0.65375 -4.62515,-1.15628 -12.35142,-4.11714 1.67095,-0.51362 -15.03171,-6.93772 -1.83431,-0.7055 -3.95669,-0.42639 -5.78143,-1.15628 -2.08667,-0.83467 -3.69475,-2.63419 -5.78143,-3.46886 -1.82474,-0.7299 -3.82814,-0.93925 -5.78143,-1.15629 -1.53228,-0.17025 -3.08342,0 -4.625139,0 -0.770857,0 -1.541714,0 -2.312571,0 -0.385429,0 -0.883747,0.27254 -1.156286,0 -0.272539,-0.27253 0,-0.77085 0,-1.15628 0,-1.626 -0.226455,-7.35802 0,-8.094 4.191686,-13.62299 5.180616,-11.21521 12.719146,-24.282 24.50492,-45.94673 -2.84209,3.96595 16.188,-27.75086 10.51348,-17.52247 3.52641,-7.04322 10.40657,-19.65686 1.07618,-1.97299 2.53887,-3.73545 3.46886,-5.78142 1.00871,-2.21917 1.61211,-4.60286 2.31257,-6.93772 0.55571,-1.85238 1.34109,-6.15103 2.31257,-8.094 0.62148,-1.24297 1.79645,-2.17857 2.31257,-3.46886 3.27228,-8.18069 -4.00325,3.9741 1.15629,-4.62514 0.71498,-1.19164 1.59758,-2.27721 2.31257,-3.46886 0.44341,-0.73902 0.54687,-1.70315 1.15628,-2.31257 1.40834,-1.40833 2.58339,-0.54163 3.46886,-2.31257 0.17237,-0.34474 -0.27254,-0.88374 0,-1.15628 0.27254,-0.27254 0.81155,0.17237 1.15629,0 0.97506,-0.48754 1.4055,-1.70787 2.31257,-2.31258 1.05625,-0.70416 2.80606,-0.98698 3.46885,-2.31257 0.17237,-0.34473 -0.17236,-0.81154 0,-1.15628 0.48754,-0.97507 2.04817,-1.25497 2.31258,-2.31257 0.37392,-1.49569 0,-3.08343 0,-4.62515 0,-1.15628 0,-2.31257 0,-3.46885 0,-0.38543 -0.37392,-1.06281 0,-1.15629 1.49568,-0.37392 3.08342,0 4.62514,0 z"
       id="path3336"
       inkscape:connector-curvature="0"
       inkscape:export-xdpi="16.028021"
       inkscape:export-ydpi="16.028021" />
    <path
       style="fill:none;fill-rule:evenodd;stroke:#000000;stroke-width:5;stroke-linecap:butt;stroke-linejoin:miter;stroke-opacity:1;stroke-miterlimit:4;stroke-dasharray:none"
       d="m 137.598,454.56249 c 8.094,0 16.188,0 24.282,0 0.45709,0 5.2876,-0.24691 5.78143,0 0.48753,0.24377 0.66875,0.91252 1.15628,1.15629 0.34474,0.17237 0.88375,-0.27254 1.15629,0 0.60942,0.60941 0.63918,1.62309 1.15629,2.31257 0.65409,0.87212 1.75169,1.37777 2.31257,2.31257 0.62708,1.04514 0.72832,2.32763 1.15628,3.46886 0.72879,1.94344 1.86231,3.75525 2.31257,5.78142 0.33445,1.50501 0,3.08343 0,4.62515 0,7.01371 0.38246,11.57625 -1.15628,18.50057 -0.87293,3.92817 -2.25711,7.72565 -3.46886,11.56286 -1.83514,5.81128 -3.85428,11.56285 -5.78143,17.34428 -0.77085,2.31257 -1.45665,4.65526 -2.31257,6.93772 -1.85545,4.94787 -3.96404,4.62514 -8.094,4.62514 -1.15628,0 -2.31257,0 -3.46886,0 -0.77085,0 -1.67118,0.42759 -2.31257,0 -0.72915,-0.4861 -2.25865,-5.61968 -2.31257,-5.78143 -0.38543,-1.15629 -0.91725,-2.27369 -1.15628,-3.46886 -0.15118,-0.75588 0,-1.54171 0,-2.31257 0,-1.15628 0,-2.31257 0,-3.46886 0,-2.72504 -0.48754,-5.62827 1.15628,-8.094 5.869,-5.86899 1.79377,-1.06246 4.62514,-5.78142 3.84684,-6.41139 0.41458,-1.46722 4.62515,-4.62515 3.31539,-2.48654 1.37979,-2.73872 5.78143,-4.62514 1.46067,-0.626 3.08342,-0.77086 4.62514,-1.15629 1.54171,-0.38542 3.04825,-0.95917 4.62514,-1.15628 1.52981,-0.19123 3.09108,0.15341 4.62514,0 4.08967,0.48681 7.65629,-1.87851 11.56286,-2.31257 1.91536,-0.21282 3.85429,0 5.78143,0 1.54171,0 3.08343,0 4.62514,0 5.01057,0 10.02115,0 15.03172,0 1.54171,0 3.09533,0.19122 4.62514,0 7.66343,-0.95793 1.69416,-1.03261 8.094,-2.31257 0.75589,-0.15118 1.54171,0 2.31257,0 1.54172,0 3.08343,0 4.62514,0"
       id="path3340"
       inkscape:connector-curvature="0"
       inkscape:export-xdpi="16.028021"
       inkscape:export-ydpi="16.028021" />
    <path
       style="fill:none;fill-rule:evenodd;stroke:#000000;stroke-width:5;stroke-linecap:butt;stroke-linejoin:miter;stroke-opacity:1;stroke-miterlimit:4;stroke-dasharray:none"
       d="m 203.50629,459.18763 c 0,23.12572 0,46.25143 0,69.37715 0,3.46885 0,6.93771 0,10.40657 0,0.38543 0,0.77085 0,1.15628 0,0.38543 0.27253,0.88375 0,1.15629 -0.27254,0.27254 -0.77086,0 -1.15629,0"
       id="path3342"
       inkscape:connector-curvature="0"
       inkscape:export-xdpi="16.028021"
       inkscape:export-ydpi="16.028021" />
    <path
       style="fill:none;fill-rule:evenodd;stroke:#000000;stroke-width:5;stroke-linecap:butt;stroke-linejoin:miter;stroke-opacity:1;stroke-miterlimit:4;stroke-dasharray:none"
       d="m 294.85286,485.7822 c 13.10457,0 26.20914,0 39.31371,0 2.31257,0 4.62514,0 6.93772,0 3.63482,0 5.40316,-0.86184 8.094,1.15629 2.64173,1.9813 2.56339,2.6123 3.46885,5.78143 1.71717,6.01008 1.15629,4.2854 1.15629,11.56286 0,2.31257 0.45353,4.67005 0,6.93771 -0.52698,2.63488 -4.23829,7.39851 -5.78143,9.25029 -0.6979,0.83748 -1.70786,1.4055 -2.31257,2.31257 -0.95613,1.43419 -1.20909,3.30097 -2.31257,4.62514 -0.88966,1.06758 -2.3837,1.44444 -3.46886,2.31257 -0.85127,0.68102 -1.44045,1.65848 -2.31257,2.31257 -0.68948,0.51711 -1.70316,0.54687 -2.31257,1.15629 -0.60942,0.60942 -0.54687,1.70315 -1.15629,2.31257 -1.54171,1.54171 -1.15628,-1.92714 -1.15628,1.15629"
       id="path3344"
       inkscape:connector-curvature="0"
       inkscape:export-xdpi="16.028021"
       inkscape:export-ydpi="16.028021" />
    <path
       style="fill:none;fill-rule:evenodd;stroke:#000000;stroke-width:5;stroke-linecap:butt;stroke-linejoin:miter;stroke-opacity:1;stroke-miterlimit:4;stroke-dasharray:none"
       d="m 330.69771,455.71878 c 0,4.85337 0.52913,9.24056 -1.15628,13.87542 -0.88359,2.42987 -2.50862,4.53711 -3.46886,6.93772 -5.8676,14.66899 2.73294,-3.67886 -2.31257,8.094 -1.35799,3.16864 -3.41469,6.0224 -4.62514,9.25028 -0.558,1.48798 -0.71971,3.09713 -1.15629,4.62515 -0.66968,2.34387 -1.8345,4.54739 -2.31257,6.93771 -0.15118,0.75589 0.42759,1.67118 0,2.31257 -0.47807,0.7171 -1.83451,0.43919 -2.31257,1.15629 -0.4276,0.64139 0.24377,1.58127 0,2.31257 -0.17237,0.51711 -0.85393,0.70275 -1.15629,1.15629 -0.84785,1.27178 -2.67198,6.14084 -3.46885,6.93771 -0.27254,0.27254 -0.77086,0 -1.15629,0 -0.38543,0 -0.77086,0 -1.15629,0"
       id="path3346"
       inkscape:connector-curvature="0"
       inkscape:export-xdpi="16.028021"
       inkscape:export-ydpi="16.028021" />
    <path
       style="fill:none;fill-rule:evenodd;stroke:#000000;stroke-width:5;stroke-linecap:butt;stroke-linejoin:miter;stroke-opacity:1;stroke-miterlimit:4;stroke-dasharray:none"
       d="m 357.29229,470.75049 c 0.38542,2.31257 0.64769,4.64907 1.15628,6.93771 0.58965,2.65343 2.18341,5.84447 3.46886,8.094 0.68947,1.20659 1.79645,2.17857 2.31257,3.46886 0.28629,0.71572 -0.24377,1.58127 0,2.31257 0.34474,1.03422 1.82504,1.33751 2.31257,2.31257 0.17237,0.34474 -0.27254,0.88375 0,1.15629 0.27254,0.27254 1.15629,-0.38543 1.15629,0 0,0.38543 -0.77086,0 -1.15629,0"
       id="path3348"
       inkscape:connector-curvature="0"
       inkscape:export-xdpi="16.028021"
       inkscape:export-ydpi="16.028021" />
    <path
       style="fill:none;fill-rule:evenodd;stroke:#000000;stroke-width:5;stroke-linecap:butt;stroke-linejoin:miter;stroke-opacity:1;stroke-miterlimit:4;stroke-dasharray:none"
       d="m 456.73286,459.18763 c -0.94064,6.58447 -0.79567,9.01703 -3.46886,15.03172 -0.5644,1.26991 -1.83766,2.16284 -2.31257,3.46885 -1.08617,2.98697 -1.54172,6.16686 -2.31257,9.25029 -9.27208,37.0883 4.70937,-16.75082 -5.78143,17.34429 -0.68948,2.24079 -0.7369,4.63106 -1.15629,6.93771 -1.16488,6.40683 -0.84721,5.44569 -3.46885,11.56286 -0.679,1.58432 -1.89452,2.95292 -2.31258,4.62514 -0.28044,1.12176 0.36565,2.37191 0,3.46886 -0.27253,0.81762 -0.88374,1.49495 -1.15628,2.31257 -0.12188,0.36565 0,0.77086 0,1.15628 0,0.77086 0,1.54172 0,2.31258 0,1.13976 0,3.45233 0,2.31257 0,-3.74011 -0.37392,-5.67981 1.15628,-9.25029 0.54743,-1.27732 1.6231,-2.26227 2.31258,-3.46886 0.85518,-1.49658 1.19081,-3.31642 2.31257,-4.62514 1.25417,-1.46319 3.26244,-2.10616 4.62514,-3.46886 16.97056,-16.97056 -6.75524,4.44268 8.094,-10.40657 0.60942,-0.60941 1.54171,-0.77085 2.31257,-1.15628 5.26664,-2.63332 3.72101,-2.31257 8.094,-2.31257 0.38543,0 0.77086,0 1.15629,0 0.38543,0 0.88374,-0.27254 1.15628,0 1.21884,1.21883 1.27836,3.24619 2.31257,4.62514 0.6541,0.87212 1.63156,1.4613 2.31258,2.31257 2.5921,3.24013 4.44746,7.08624 6.93771,10.40657 2.65641,3.54188 -0.73958,-1.89587 3.46886,2.31257 0.60941,0.60942 0.54687,1.70316 1.15628,2.31257 4.51268,4.51268 0.62098,-0.26765 3.46886,1.15629 0.48753,0.24377 0.63918,0.98392 1.15629,1.15629 0.62162,0.2072 3.64617,0 4.62514,0 0.77086,0 1.54171,0 2.31257,0 0.77086,0 1.67118,0.42759 2.31257,0 0.7171,-0.47807 0.6179,-1.63959 1.15629,-2.31258 8.76772,-10.95965 -0.35541,3.0234 4.62514,-6.93771 0.62148,-1.24297 1.54171,-2.31257 2.31257,-3.46886 0.77086,-1.15628 1.44445,-2.38369 2.31257,-3.46885 0.68102,-0.85127 1.65848,-1.44045 2.31257,-2.31258 1.99299,-2.6573 -0.003,-2.31257 2.31258,-2.31257"
       id="path3350"
       inkscape:connector-curvature="0"
       inkscape:export-xdpi="16.028021"
       inkscape:export-ydpi="16.028021" />
    <path
       style="fill:#ff7f2a;fill-rule:evenodd;stroke:#000000;stroke-width:5;stroke-linecap:butt;stroke-linejoin:miter;stroke-opacity:1;stroke-miterlimit:4;stroke-dasharray:none"
       d="m 566.58,526.2522 c -5.396,0 -10.792,0 -16.188,0 -0.64539,0 -5.25212,0.17644 -5.78143,0 -0.51711,-0.17236 -0.77086,-0.77085 -1.15628,-1.15628 -0.90316,-0.90316 -2.80369,-2.4711 -3.46886,-3.46886 -0.47807,-0.7171 -0.67822,-1.59547 -1.15629,-2.31257 -0.30235,-0.45353 -0.77085,-0.77086 -1.15628,-1.15629 -0.38543,-0.38542 -0.66876,-0.91251 -1.15629,-1.15628 -1.59493,-0.79747 -1.03426,1.40032 -2.31257,-1.15629 -0.17237,-0.34473 0,-0.77085 0,-1.15628 -0.38543,-0.38543 -0.91252,-0.66876 -1.15629,-1.15629 -0.34473,-0.68947 0.34474,-1.62309 0,-2.31257 -0.24376,-0.48753 -0.91251,-0.66875 -1.15628,-1.15629 -0.17237,-0.34473 0.27254,-0.88374 0,-1.15628 -0.27254,-0.27254 -0.88375,0.27254 -1.15629,0 -0.54508,-0.54508 0.34474,-1.6231 0,-2.31257 -0.24376,-0.48754 -0.91252,-0.66876 -1.15628,-1.15629 -0.30656,-0.61311 0.2622,-4.9948 0,-5.78143 -0.17237,-0.5171 -0.91252,-0.66875 -1.15629,-1.15628 -0.34474,-0.68948 0.24377,-1.58127 0,-2.31257 -0.27254,-0.81762 -0.88375,-1.49496 -1.15628,-2.31258 -0.12189,-0.36564 0,-0.77085 0,-1.15628 0,-1.15629 0,-2.31257 0,-3.46886 0,-2.31257 0,-4.62514 0,-6.93771 0,-0.94526 -0.19535,-7.50796 0,-8.094 0.17236,-0.51711 0.91251,-0.66876 1.15628,-1.15629 0.17237,-0.34474 -0.17237,-0.81155 0,-1.15628 0.48753,-0.97507 1.82504,-1.33751 2.31257,-2.31258 0.17237,-0.34473 -0.17237,-0.81154 0,-1.15628 0.24377,-0.48753 0.77086,-0.77086 1.15629,-1.15629 0.38543,-0.38543 0.77086,-0.77085 1.15628,-1.15628 0.38543,-0.38543 0.91252,-0.66876 1.15629,-1.15629 0.79747,-1.59493 -1.40033,-1.03426 1.15629,-2.31257 0.34473,-0.17237 0.81154,0.17237 1.15628,0 0.48753,-0.24377 0.70275,-0.85393 1.15629,-1.15629 0.7171,-0.47806 1.70315,-0.54686 2.31257,-1.15628 0.60941,-0.60942 0.46681,-1.79547 1.15628,-2.31257 1.39917,-0.46639 4.42034,-1.29176 5.78143,-2.31257 5.00127,-5.00128 -0.30631,-0.18122 4.62515,-3.46886 0.45353,-0.30236 0.66875,-0.91252 1.15628,-1.15629 0.34474,-0.17237 0.77086,0 1.15629,0 0.77085,0 1.58127,0.24377 2.31257,0 1.03421,-0.34473 1.3375,-1.82504 2.31257,-2.31257 0.34474,-0.17237 0.77086,0 1.15629,0 0.77085,0 1.56473,0.18696 2.31257,0 0.83611,-0.20903 1.47646,-0.94726 2.31257,-1.15628 0.87931,-0.21983 4.81317,0 5.78143,0 0.77085,0 1.54171,0 2.31257,0 0.77086,0 1.58127,-0.24377 2.31257,0 0.51711,0.17237 0.70275,0.85393 1.15629,1.15628 0.71709,0.47807 1.49495,0.88375 2.31257,1.15629 0.36565,0.12188 0.78236,-0.0935 1.15628,0 2.16081,0.5402 6.15812,2.17826 8.094,3.46885 0.90707,0.60471 1.27836,1.96784 2.31257,2.31258 5.26375,0 0.0661,-0.54508 3.46886,1.15628 0.34474,0.17237 0.98392,-0.34474 1.15629,0 0.34473,0.68948 -0.34474,1.6231 0,2.31257 0.17237,0.34474 0.81155,-0.17237 1.15628,0 0.22134,0.11067 4.51448,4.40381 4.62515,4.62515 0.17236,0.34473 -0.17237,0.81154 0,1.15628 0.51243,1.02486 2.76713,2.41627 3.46885,3.46886 0.47807,0.7171 0.77086,1.54171 1.15629,2.31257 0.77086,1.54171 1.54171,3.08343 2.31257,4.62514 0.77086,1.54172 1.76749,2.98991 2.31257,4.62515 0.12188,0.36565 0,0.77085 0,1.15628 0,0.77086 0,1.54172 0,2.31257 0,2.698 0,5.396 0,8.094 0,3.46886 0,6.93772 0,10.40657 0,0.52075 0.17595,3.11696 0,3.46886 -0.48753,0.97507 -1.82504,1.33751 -2.31257,2.31257 -0.17237,0.34474 0.17237,0.81155 0,1.15629 -0.24377,0.48753 -0.77086,0.77086 -1.15629,1.15628 -0.38542,0.38543 -0.66875,0.91252 -1.15628,1.15629 -0.34474,0.17237 -0.81155,-0.17237 -1.15629,0 -0.97506,0.48753 -1.3375,1.82504 -2.31257,2.31257 -0.34474,0.17237 -0.81155,-0.17237 -1.15628,0 -3.83492,3.83492 1.09015,-0.54508 -2.31258,1.15629 -0.48753,0.24376 -0.66875,0.91252 -1.15628,1.15628 -0.34474,0.17237 -0.81155,-0.17237 -1.15629,0 -0.48753,0.24377 -0.63918,0.98392 -1.15628,1.15629 -0.7313,0.24377 -1.58127,-0.24377 -2.31257,0 -0.78298,0.26099 -2.58559,3.02722 -3.46886,3.46886 -3.08343,0 0.38543,-0.38543 -1.15629,1.15628 -0.27254,0.27254 -0.88374,-0.27254 -1.15628,0 -0.27254,0.27254 0.27254,0.88375 0,1.15629 -0.27254,0.27254 -0.88375,-0.27254 -1.15629,0 -0.27254,0.27254 0.27254,0.88374 0,1.15628 -0.27254,0.27254 -0.88375,-0.27254 -1.15628,0 -0.27254,0.27254 0.27253,0.88375 0,1.15629 -0.27254,0.27254 -0.77086,0 -1.15629,0 -0.80424,0 -5.36328,-0.20908 -5.78143,0 -0.48753,0.24377 -0.66875,0.91252 -1.15628,1.15628 -0.68948,0.34474 -1.6231,-0.34473 -2.31258,0 -0.48753,0.24377 -0.66875,0.91252 -1.15628,1.15629 -0.34474,0.17237 -0.77834,0.0756 -1.15629,0 -1.5583,-0.31166 -3.08343,-0.77086 -4.62514,-1.15629 z"
       id="path4152"
       inkscape:connector-curvature="0"
       inkscape:export-xdpi="16.028021"
       inkscape:export-ydpi="16.028021" />
    <path
       style="fill:none;fill-rule:evenodd;stroke:#000000;stroke-width:5;stroke-linecap:butt;stroke-linejoin:miter;stroke-opacity:1;stroke-miterlimit:4;stroke-dasharray:none"
       d="m 540.31304,472.4194 c 0.92089,0 1.65519,-0.1938 2.45133,0.20427 0.21959,0.1098 0.39324,0.29876 0.61283,0.40856 0.19259,0.0963 0.40393,0.15205 0.61283,0.20427 0.0661,0.0165 0.14337,-0.0304 0.20428,0 0.0861,0.0431 0.11814,0.16122 0.20428,0.20428 0.60114,0.30058 -0.26895,-0.47322 0.40855,0.20428"
       id="path4154"
       inkscape:connector-curvature="0"
       inkscape:export-xdpi="16.028021"
       inkscape:export-ydpi="16.028021" />
    <path
       style="fill:none;fill-rule:evenodd;stroke:#000000;stroke-width:5;stroke-linecap:butt;stroke-linejoin:miter;stroke-opacity:1;stroke-miterlimit:4;stroke-dasharray:none"
       d="m 556.65521,466.90391 c 0.68093,0 1.36185,0 2.04278,0 0.13618,0 0.27237,0 0.40855,0 0.13618,0 0.27936,-0.0431 0.40855,0 0.75728,0.25243 -0.249,0.20428 0.40856,0.20428"
       id="path4156"
       inkscape:connector-curvature="0"
       inkscape:export-xdpi="16.028021"
       inkscape:export-ydpi="16.028021" />
    <path
       style="fill:none;fill-rule:evenodd;stroke:#000000;stroke-width:5;stroke-linecap:butt;stroke-linejoin:miter;stroke-opacity:1;stroke-miterlimit:4;stroke-dasharray:none"
       d="m 569.93323,469.15096 c -0.21339,0.69953 0.62212,0.63141 0.81711,1.02139 0.0304,0.0609 -0.0482,0.15613 0,0.20427 0.0481,0.0482 0.15613,-0.0481 0.20427,0 0.0481,0.0482 -0.0481,0.15613 0,0.20428 0.0481,0.0482 0.15613,-0.0481 0.20428,0 0.10766,0.10767 0.0966,0.30089 0.20428,0.40856 0.10766,0.10766 0.28675,0.11292 0.40855,0.20427 0.15408,0.11556 0.25448,0.293 0.40856,0.40856 0.1218,0.0914 0.28186,0.11982 0.40855,0.20427 0.16025,0.10684 0.27237,0.27237 0.40856,0.40856"
       id="path4158"
       inkscape:connector-curvature="0"
       inkscape:export-xdpi="16.028021"
       inkscape:export-ydpi="16.028021" />
    <path
       style="fill:none;fill-rule:evenodd;stroke:#000000;stroke-width:5;stroke-linecap:butt;stroke-linejoin:miter;stroke-opacity:1;stroke-miterlimit:4;stroke-dasharray:none"
       d="m 588.11389,471.80656 c 0.58459,0.43845 0.82331,0.42716 1.02139,1.02139 0.0215,0.0646 -0.0304,0.14337 0,0.20428 0.24458,0.48916 0.40855,-0.12874 0.40855,0.40855"
       id="path4160"
       inkscape:connector-curvature="0"
       inkscape:export-xdpi="16.028021"
       inkscape:export-ydpi="16.028021" />
    <path
       style="fill:none;fill-rule:evenodd;stroke:#000000;stroke-width:5;stroke-linecap:butt;stroke-linejoin:miter;stroke-opacity:1;stroke-miterlimit:4;stroke-dasharray:none"
       d="m 586.68395,482.83753 c 0,1.83849 0,3.67699 0,5.51548"
       id="path4162"
       inkscape:connector-curvature="0"
       inkscape:export-xdpi="16.028021"
       inkscape:export-ydpi="16.028021" />
    <path
       style="fill:none;fill-rule:evenodd;stroke:#000000;stroke-width:5;stroke-linecap:butt;stroke-linejoin:miter;stroke-opacity:1;stroke-miterlimit:4;stroke-dasharray:none"
       d="m 570.95461,483.65464 c 0,0.61283 0,1.22566 0,1.83849 0,0.56422 0.0589,0.90353 -0.20427,1.42994 -0.0431,0.0861 -0.13619,0.13619 -0.20428,0.20428 -0.25243,0.25243 -0.10798,0.20428 -0.40855,0.20428"
       id="path4164"
       inkscape:connector-curvature="0"
       inkscape:export-xdpi="16.028021"
       inkscape:export-ydpi="16.028021" />
    <path
       style="fill:none;fill-rule:evenodd;stroke:#000000;stroke-width:5;stroke-linecap:butt;stroke-linejoin:miter;stroke-opacity:1;stroke-miterlimit:4;stroke-dasharray:none"
       d="m 552.56967,482.42898 c -0.0522,0.13063 -0.54878,1.31398 -0.61283,1.63421 -0.0267,0.13354 0.033,0.27644 0,0.40856 -0.0369,0.14771 -0.13618,0.27237 -0.20428,0.40855 -0.0681,0.13619 -0.0966,0.30089 -0.20427,0.40856 -0.0481,0.0481 -0.13619,0 -0.20428,0"
       id="path4166"
       inkscape:connector-curvature="0"
       inkscape:export-xdpi="16.028021"
       inkscape:export-ydpi="16.028021" />
    <path
       style="fill:none;fill-rule:evenodd;stroke:#000000;stroke-width:5;stroke-linecap:butt;stroke-linejoin:miter;stroke-opacity:1;stroke-miterlimit:4;stroke-dasharray:none"
       d="m 542.96865,498.15832 c 0.56663,0.3179 0.98122,0.77694 1.42994,1.22566 0.13618,0.13618 0.30172,0.24831 0.40855,0.40855 0.18158,0.27237 -0.24967,0.20428 0.20428,0.20428"
       id="path4168"
       inkscape:connector-curvature="0"
       inkscape:export-xdpi="16.028021"
       inkscape:export-ydpi="16.028021" />
    <path
       style="fill:none;fill-rule:evenodd;stroke:#000000;stroke-width:5;stroke-linecap:butt;stroke-linejoin:miter;stroke-opacity:1;stroke-miterlimit:4;stroke-dasharray:none"
       d="m 563.19208,506.3294 c 0.88682,0.1478 1.03498,0.049 1.63422,0.40856 0.21052,0.12631 0.38488,0.31737 0.61283,0.40855 0.12645,0.0506 0.27644,-0.033 0.40856,0 0.14771,0.0369 0.2641,0.15613 0.40855,0.20428 0.1292,0.0431 0.27237,0 0.40855,0"
       id="path4170"
       inkscape:connector-curvature="0"
       inkscape:export-xdpi="16.028021"
       inkscape:export-ydpi="16.028021" />
    <path
       style="fill:none;fill-rule:evenodd;stroke:#000000;stroke-width:5;stroke-linecap:butt;stroke-linejoin:miter;stroke-opacity:1;stroke-miterlimit:4;stroke-dasharray:none"
       d="m 581.16847,500.40536 c 0.0324,0.14883 1.50989,-0.0821 1.8385,0 0.20889,0.0522 0.40168,0.16205 0.61283,0.20428 0.13354,0.0267 0.27643,-0.033 0.40855,0 0.93892,0.23473 0.0463,0.20428 0.61283,0.20428"
       id="path4172"
       inkscape:connector-curvature="0"
       inkscape:export-xdpi="16.028021"
       inkscape:export-ydpi="16.028021" />
    <path
       style="fill:none;fill-rule:evenodd;stroke:#000000;stroke-width:5;stroke-linecap:butt;stroke-linejoin:miter;stroke-opacity:1;stroke-miterlimit:4;stroke-dasharray:none"
       d="m 598.53203,501.42675 c 0,1.15757 0,2.31514 0,3.47271"
       id="path4174"
       inkscape:connector-curvature="0"
       inkscape:export-xdpi="16.028021"
       inkscape:export-ydpi="16.028021" />
    <path
       style="fill:none;fill-rule:evenodd;stroke:#000000;stroke-width:5;stroke-linecap:butt;stroke-linejoin:miter;stroke-opacity:1;stroke-miterlimit:4;stroke-dasharray:none"
       d="m 582.59841,516.74754 c -0.70915,0.2796 -1.34303,0.72149 -2.04277,1.02138 -0.19792,0.0848 -0.41291,0.12431 -0.61283,0.20428 -0.58682,0.23473 -0.20381,0.20428 -0.61283,0.20428"
       id="path4176"
       inkscape:connector-curvature="0"
       inkscape:export-xdpi="16.028021"
       inkscape:export-ydpi="16.028021" />
    <path
       style="fill:#008080;fill-rule:evenodd;stroke:#000000;stroke-width:5;stroke-linecap:butt;stroke-linejoin:miter;stroke-opacity:1;stroke-miterlimit:4;stroke-dasharray:none"
       d="m 549.30124,515.11332 c 1.23428,2.05714 0.0494,0.49669 1.02138,1.22566 0.15408,0.11556 0.25448,0.293 0.40856,0.40856 0.1218,0.0914 0.26411,0.15612 0.40855,0.20427 0.0646,0.0215 0.15613,-0.0482 0.20428,0 0.27237,0.27237 -0.34046,0.20428 0.20428,0.20428"
       id="path4178"
       inkscape:connector-curvature="0"
       inkscape:export-xdpi="16.028021"
       inkscape:export-ydpi="16.028021" />
    <path
       style="fill:#008000;fill-rule:evenodd;stroke:#000000;stroke-width:5;stroke-linecap:butt;stroke-linejoin:miter;stroke-opacity:1;stroke-miterlimit:4;stroke-dasharray:none"
       d="m 566.05196,449.33608 c -0.53773,-0.11261 -1.09368,0.0676 -1.63421,0 -0.34453,-0.0431 -0.67687,-0.16121 -1.02139,-0.20428 -0.2027,-0.0253 -0.41133,0.0336 -0.61283,0 -0.2124,-0.0354 -0.40169,-0.16205 -0.61283,-0.20428 -0.0728,-0.0146 -0.72608,0.0455 -0.81711,0 -0.0861,-0.0431 -0.11815,-0.16121 -0.20428,-0.20427 -0.0745,-0.0372 -0.90368,0 -1.02138,0 -0.0681,0 -0.15613,-0.0482 -0.20428,0 -0.17506,0.17505 0.59699,0.7973 0.61283,0.81711 0.19184,0.2398 0.48554,0.70315 0.61283,1.02138 0.08,0.19993 0.10798,0.42024 0.20428,0.61283 0.10979,0.21959 0.26125,0.41643 0.40855,0.61283 0.0578,0.077 0.17383,0.11293 0.20428,0.20428 0.0431,0.1292 -0.0609,0.28675 0,0.40856 0.0304,0.0609 0.14337,-0.0305 0.20428,0 0.85015,0.42507 -0.21838,-0.0141 0.20427,0.40855 0.0482,0.0482 0.15613,-0.0481 0.20428,0 0.0481,0.0482 0,0.13619 0,0.20428 0,0.13618 0,0.27237 0,0.40855 0,0.34046 0,0.68093 0,1.02139 0,0.95329 0,1.90658 0,2.85988 0,0.13618 0,0.27237 0,0.40855 0,0.0681 -0.0481,0.15613 0,0.20428 0.0481,0.0481 0.15613,-0.0482 0.20428,0 0.0481,0.0481 -0.0482,0.15613 0,0.20428 0.0481,0.0481 0.15613,-0.0482 0.20428,0 0.0481,0.0481 -0.0481,0.15612 0,0.20427 0.0481,0.0481 0.13618,0 0.20427,0 0.0681,0 0.13619,0 0.20428,0 0.0681,0 0.14337,0.0305 0.20428,0 0.1091,-0.0546 0.50528,-0.50528 0.61283,-0.61283 0.10754,-0.10754 0.55828,-0.50373 0.61283,-0.61283 0.0305,-0.0609 -0.0481,-0.15613 0,-0.20428 0.24881,-0.2488 0.4564,-0.0957 0.61283,-0.40855 0.0963,-0.1926 0.10798,-0.42024 0.20428,-0.61283 0.0271,-0.0542 0.55859,-0.58571 0.61283,-0.61283 0.0609,-0.0305 0.14337,0.0305 0.20428,0 0.0861,-0.0431 0.11814,-0.16122 0.20427,-0.20428 0.0609,-0.0304 0.14338,0.0305 0.20428,0 0.0861,-0.0431 0.11815,-0.16121 0.20428,-0.20428 0.0609,-0.0305 0.15613,0.0482 0.20428,0 0.0481,-0.0482 -0.0482,-0.15613 0,-0.20428 0.0481,-0.0481 0.15612,0.0481 0.20427,0 0.0963,-0.0963 -0.0963,-0.31225 0,-0.40855 0.0481,-0.0481 0.13619,0 0.20428,0 0.47665,0 0.95697,0.0591 1.42994,0 0.27858,-0.0348 0.53852,-0.16945 0.81711,-0.20428 0.27026,-0.0338 0.54748,0.0385 0.81711,0 0.21316,-0.0304 0.40168,-0.16204 0.61283,-0.20427 0.25168,-0.0503 0.79072,0.0769 1.02138,0 0.0914,-0.0305 0.11293,-0.17383 0.20428,-0.20428 0.1938,-0.0646 0.40856,0 0.61283,0 0.34046,0 0.68093,0 1.02139,0 0.0681,0 0.13618,0 0.20428,0 0.0681,0 0.15612,0.0482 0.20427,0 0.16032,-0.16032 -0.31986,-0.52414 -0.40855,-0.61283 -0.23373,-0.23373 -0.24182,-0.28489 -0.61283,-0.40856 -0.0646,-0.0215 -0.14338,0.0305 -0.20428,0 -0.17226,-0.0861 -0.23629,-0.32242 -0.40855,-0.40855 -0.28178,-0.14089 -0.18272,0.24739 -0.40856,-0.20428 -0.0304,-0.0609 0.0481,-0.15613 0,-0.20428 -0.0963,-0.0963 -0.31226,0.0963 -0.40855,0 -0.0482,-0.0481 0,-0.13618 0,-0.20427 -0.0681,0 -0.14338,0.0305 -0.20428,0 -0.85015,-0.42508 0.21838,0.0141 -0.20428,-0.40856 -0.0481,-0.0482 -0.15613,0.0481 -0.20427,0 -0.0481,-0.0482 0,-0.13618 0,-0.20427 0,-0.34047 0,-0.68093 0,-1.02139 0,-0.13618 0.0267,-0.27501 0,-0.40855 -0.0422,-0.21115 -0.16205,-0.40169 -0.20428,-0.61284 -0.0267,-0.13354 0.033,-0.27643 0,-0.40855 -0.0369,-0.14771 -0.17442,-0.25925 -0.20428,-0.40855 -0.0401,-0.20031 0,-0.40856 0,-0.61284 0,-0.0681 0.0304,-0.14337 0,-0.20427 -0.0861,-0.17226 -0.32242,-0.2363 -0.40855,-0.40856 -0.0305,-0.0609 0.0481,-0.15613 0,-0.20427 -0.0482,-0.0481 -0.15613,0.0481 -0.20428,0 -0.0481,-0.0481 0.0481,-0.15613 0,-0.20428 -0.0963,-0.0963 -0.31226,0.0963 -0.40855,0 -0.0481,-0.0482 0.0481,-0.15613 0,-0.20428 -0.007,-0.007 -0.56329,0 -0.61284,0 -0.0681,0 -0.15612,-0.0482 -0.20427,0 -0.0481,0.0481 0.0482,0.15613 0,0.20428 -0.0481,0.0482 -0.15613,-0.0482 -0.20428,0 -0.0482,0.0482 0.0481,0.15613 0,0.20428 -0.0482,0.0481 -0.14337,-0.0305 -0.20428,0 -0.0861,0.0431 -0.13618,0.13618 -0.20427,0.20427 -0.0681,0.0681 -0.16122,0.11815 -0.20428,0.20428 -0.0304,0.0609 0.0481,0.15613 0,0.20428 -0.0481,0.0481 -0.15613,-0.0482 -0.20428,0 -0.0481,0.0481 0.0482,0.15613 0,0.20427 -0.0963,0.0963 -0.31226,-0.0963 -0.40855,0 -0.0481,0.0481 0.0482,0.15613 0,0.20428 -0.10214,0.10214 -0.5107,-0.10214 -0.61283,0 -0.0482,0.0481 0.0481,0.15613 0,0.20428 -0.0482,0.0482 -0.15613,-0.0482 -0.20428,0 -0.0481,0.0482 0.0481,0.15613 0,0.20428 -0.0481,0.0481 -0.15613,-0.0481 -0.20428,0 -0.13622,0.13621 0.13622,0.27233 0,0.40855 -0.0481,0.0481 -0.13618,0 -0.20428,0 -0.20427,0.27237 -0.40855,0.54474 -0.61283,0.81711 z"
       id="path4180"
       inkscape:connector-curvature="0"
       inkscape:export-xdpi="16.028021"
       inkscape:export-ydpi="16.028021" />
    <path
       style="fill:none;fill-rule:evenodd;stroke:#000000;stroke-width:5;stroke-linecap:butt;stroke-linejoin:miter;stroke-opacity:1;stroke-miterlimit:4;stroke-dasharray:none"
       d="m 163.51259,242.31042 c 0,17.52609 0,35.05217 0,52.57826 0,5.39264 0,10.78528 0,16.17792 0,3.85189 -0.21366,7.70971 0,11.55566 0.17226,3.10071 0.71639,6.17025 1.15557,9.24453 0.32642,2.28492 1.82377,10.85218 2.31113,13.28901 0.73112,3.65559 1.45657,5.64642 1.73335,9.24453 0.16248,2.11229 0,4.23707 0,6.35561 0,3.85189 0,7.70377 0,11.55566 0,11.17047 0,22.34094 0,33.51142"
       id="path4182"
       inkscape:connector-curvature="0"
       inkscape:export-xdpi="16.028021"
       inkscape:export-ydpi="16.028021" />
    <path
       style="fill:none;fill-rule:evenodd;stroke:#000000;stroke-width:5;stroke-linecap:butt;stroke-linejoin:miter;stroke-opacity:1;stroke-miterlimit:4;stroke-dasharray:none"
       d="m 514.80466,251.55495 c 0,7.70377 0,15.40755 0,23.11132 0,2.31113 0,4.62227 0,6.9334 0,2.31113 -0.19193,4.63024 0,6.93339 1.90915,22.90975 0.59247,-8.95083 1.73335,13.8668 0.14427,2.88531 0,5.77783 0,8.66674 0,5.00745 0,10.01491 0,15.02236 0,15.21495 0,30.4299 0,45.64486 0,3.4667 0,6.93339 0,10.40009 0,0.14013 -0.0186,1.71477 0,1.73335 0.13619,0.13619 0.4416,-0.13618 0.57779,0 0.28889,0.28889 -0.2889,1.44446 0,1.73335 0.13618,0.13618 0.44159,-0.13619 0.57778,0 0.13618,0.13618 0,0.38519 0,0.57778 0,0.1926 0,0.38519 0,0.57779"
       id="path4184"
       inkscape:connector-curvature="0"
       inkscape:export-xdpi="16.028021"
       inkscape:export-ydpi="16.028021" />
  </g>
</svg>
