<?xml version="1.0" encoding="UTF-8" standalone="no"?>
<!-- Created with Inkscape (http://www.inkscape.org/) -->

<svg
   xmlns:dc="http://purl.org/dc/elements/1.1/"
   xmlns:cc="http://creativecommons.org/ns#"
   xmlns:rdf="http://www.w3.org/1999/02/22-rdf-syntax-ns#"
   xmlns:svg="http://www.w3.org/2000/svg"
   xmlns="http://www.w3.org/2000/svg"
   xmlns:sodipodi="http://sodipodi.sourceforge.net/DTD/sodipodi-0.dtd"
   xmlns:inkscape="http://www.inkscape.org/namespaces/inkscape"
   width="48"
   height="48"
   viewBox="0 0 48 48.000001"
   id="svg10331"
   version="1.1"
   inkscape:version="0.91 r13725"
   sodipodi:docname="fullscreen.svg"
   inkscape:export-filename="/Users/zukkun/project/mikangame/fullscreen.png"
   inkscape:export-xdpi="90"
   inkscape:export-ydpi="90">
  <defs
     id="defs10333" />
  <sodipodi:namedview
     id="base"
     pagecolor="#ffffff"
     bordercolor="#666666"
     borderopacity="1.0"
     inkscape:pageopacity="0.0"
     inkscape:pageshadow="2"
     inkscape:zoom="9.375"
     inkscape:cx="24.5"
     inkscape:cy="24"
     inkscape:document-units="px"
     inkscape:current-layer="layer1"
     showgrid="false"
     units="px"
     inkscape:window-width="1440"
     inkscape:window-height="801"
     inkscape:window-x="0"
     inkscape:window-y="0"
     inkscape:window-maximized="1" />
  <metadata
     id="metadata10336">
    <rdf:RDF>
      <cc:Work
         rdf:about="">
        <dc:format>image/svg+xml</dc:format>
        <dc:type
           rdf:resource="http://purl.org/dc/dcmitype/StillImage" />
        <dc:title></dc:title>
      </cc:Work>
    </rdf:RDF>
  </metadata>
  <g
     inkscape:label="Layer 1"
     inkscape:groupmode="layer"
     id="layer1"
     transform="translate(0,-1004.3622)">
    <path
       style="fill:#ffffff;fill-rule:evenodd;stroke:#000000;stroke-width:1px;stroke-linecap:butt;stroke-linejoin:miter;stroke-opacity:1"
       d="m 2.7428571,1039.2574 c -0.2031746,0 -0.4124154,0.049 -0.6095238,0 -0.049277,-0.012 0.035917,-0.1164 0,-0.1523 -0.035916,-0.036 -0.1164644,0.036 -0.1523809,0 -0.071833,-0.072 0.071833,-0.233 0,-0.3048 -0.035917,-0.036 -0.1164644,0.036 -0.152381,0 -0.035916,-0.036 0.035917,-0.1165 0,-0.1524 -0.035916,-0.036 -0.1164644,0.036 -0.1523809,0 -0.035917,-0.036 0,-0.1016 0,-0.1524 0,-0.3555 0,-0.7111 0,-1.0666 0,-0.9651 0,-1.9302 0,-2.8953 0,-0.3555 0,-0.7111 0,-1.0666 0,-0.1016 0.024639,-0.2062 0,-0.3048 -0.027547,-0.1102 -0.1248343,-0.1946 -0.152381,-0.3048 -0.049277,-0.1971 0.049277,-0.4124 0,-0.6095 -0.027547,-0.1102 -0.1301064,-0.1934 -0.1523809,-0.3047 -0.029884,-0.1495 0.029884,-0.3078 0,-0.4572 -0.022274,-0.1114 -0.1248343,-0.1946 -0.152381,-0.3048 -0.024639,-0.099 0.032125,-0.2083 0,-0.3047 -0.022716,-0.068 -0.1202562,-0.088 -0.1523809,-0.1524 -0.022716,-0.045 0,-0.1016 0,-0.1524 0,-0.051 0,-0.1016 0,-0.1524 0,-0.1523 0,-0.3047 0,-0.4571 0,-0.5587 0,-1.1175 0,-1.6762 0,-1.8794 0,-3.7587 0,-5.6381 0,-2.3873 0,-4.7746 0,-7.1619 0,-0.6603 0,-1.3206 0,-1.9809 0,-0.3048 -0.050103,-0.6137 0,-0.9143 0.018672,-0.1121 0.1301064,-0.1934 0.1523809,-0.3048 0.049807,-0.249 -0.061596,-0.5155 0,-0.7619 0.027547,-0.1102 0.1301065,-0.1934 0.152381,-0.3048 0.029884,-0.1494 -0.036958,-0.3093 0,-0.4571 0.017422,-0.07 0.1296653,-0.084 0.1523809,-0.1524 0.032125,-0.096 -0.032125,-0.2084 0,-0.3047 0.022716,-0.068 0.1202563,-0.088 0.152381,-0.1524 0.022716,-0.045 -0.022716,-0.107 0,-0.1524 0.064249,-0.1285 0.2250702,-0.1852 0.3047619,-0.3048 0.063002,-0.095 0.072069,-0.2244 0.1523809,-0.3047 0.070004,-0.07 0.7849682,-0.3925 0.9142857,-0.4572 0.1015873,-0.051 0.2102593,-0.089 0.304762,-0.1524 0.059769,-0.04 0.084234,-0.1296 0.1523809,-0.1523 0.096374,-0.032 0.2062078,0.025 0.3047619,0 0.1101869,-0.028 0.1955539,-0.1212 0.3047619,-0.1524 0.2490326,-0.071 0.5138299,-0.078 0.7619048,-0.1524 0.2619963,-0.079 0.5057886,-0.2087 0.7619047,-0.3048 0.1503966,-0.056 0.3067463,-0.096 0.4571429,-0.1523 0.2561162,-0.096 0.4999084,-0.2262 0.7619048,-0.3048 0.2480749,-0.074 0.5106399,-0.09 0.7619047,-0.1524 0.3587426,-0.09 0.7099131,-0.2074 1.0666667,-0.3047 0.2020481,-0.055 0.4127051,-0.081 0.6095238,-0.1524 3.2963439,-1.4127 -0.3931658,0 1.6761909,-0.4572 0.267018,-0.059 0.494886,-0.2454 0.761904,-0.3047 0.198337,-0.044 0.40635,0 0.609524,0 0.711111,0 1.422222,0 2.133333,0 0.863493,0 1.726985,0 2.590477,0 0.253968,0 0.50949,-0.028 0.761904,0 0.208147,0.023 0.401378,0.1292 0.609524,0.1524 0.252415,0.028 0.512869,-0.05 0.761905,0 1.919201,0.3838 -0.374422,0.2673 1.52381,0.4571 1.749789,0 -0.126413,-0.062 1.371428,0.1524 0.15085,0.021 0.304762,0 0.457143,0 0.55873,0 1.11746,0 1.67619,0 0.203175,0 0.407919,-0.025 0.609524,0 0.207811,0.026 0.404163,0.1113 0.609524,0.1524 0.04981,0.01 0.101587,0 0.152381,0 0.152381,0 0.304762,0 0.457143,0 0.457143,0 0.914286,0 1.371428,0 0.355556,0 0.711112,0 1.066667,0 0.253968,0 0.50949,0.028 0.761905,0 0.208147,-0.023 0.401713,-0.1264 0.609524,-0.1524 0.201605,-0.025 0.412415,0.049 0.609523,0 0.220374,-0.055 0.396831,-0.225 0.609524,-0.3048 0.312856,-0.1173 1.081789,-0.2323 1.371429,-0.3047 0.155828,-0.039 0.298133,-0.1297 0.457143,-0.1524 0.201132,-0.029 0.408391,0.029 0.609524,0 0.159009,-0.023 0.302699,-0.1083 0.457142,-0.1524 0.20137,-0.058 0.402201,-0.1228 0.609524,-0.1524 1.885432,-0.2693 -1.023654,0.3321 0.914286,-0.1524 0.04928,-0.012 0.101587,0 0.152381,0 0.101587,0 0.203174,0 0.304762,0 0.203174,0 0.406349,0 0.609524,0 0.152381,0 0.304761,0 0.457142,0 0.101588,0 0.208388,-0.032 0.304762,0 0.555121,0.1851 0.534081,0.3684 1.066667,0.4572 0.150308,0.025 0.306835,-0.025 0.457143,0 0.316876,0.053 0.597409,0.2519 0.914286,0.3047 0.150307,0.025 0.307721,-0.03 0.457142,0 0.39459,0.079 0.208274,0.1389 0.457143,0.3048 0.0945,0.063 0.21026,0.089 0.304762,0.1524 0.05977,0.04 0.08423,0.1296 0.152381,0.1524 0.09637,0.032 0.208388,-0.032 0.304762,0 0.06815,0.023 0.09261,0.1125 0.152381,0.1523 0.07674,0.3358 0.313477,0.081 0.457143,0.1524 0.128499,0.064 0.185224,0.2251 0.304762,0.3048 0.281318,0.1875 0.632967,0.2696 0.914285,0.4571 0.281017,0.1874 0.549971,1.0536 0.761905,1.3715 0.232463,0.3486 0.12062,-0.095 0.304762,0.4571 0.01606,0.048 -0.02272,0.1069 0,0.1524 0.03213,0.064 0.112535,0.093 0.152381,0.1524 0.06474,0.097 0.432433,0.8154 0.457143,0.9142 0.02669,0.1068 0,0.8592 0,0.9143 0,0.1016 -0.02464,0.2062 0,0.3048 0.02755,0.1102 0.124834,0.1946 0.152381,0.3048 0.02464,0.098 -0.0167,0.2045 0,0.3047 0.412697,1.6508 -0.05236,-0.4188 0.152381,1.2191 0.02598,0.2078 0.129253,0.4013 0.152381,0.6095 0.02805,0.2524 -0.0315,0.5099 0,0.7619 0.01992,0.1594 0.125974,0.2987 0.152381,0.4571 0.02505,0.1503 0,0.3048 0,0.4572 0,0.3247 -0.03765,0.7654 0,1.0666 0.134589,1.0768 0.137777,0.1545 0.457143,1.2191 0.08878,0.2959 0.08536,0.6127 0.152381,0.9143 0.03484,0.1568 0.101587,0.3047 0.152381,0.4571 0.05079,0.1524 0.08055,0.3135 0.15238,0.4572 0.0819,0.1638 0.236746,0.2871 0.304762,0.4571 0.03773,0.094 -0.02464,0.2062 0,0.3048 0.196162,0.7846 0.156137,-0.2785 0.304762,0.7619 0.05028,0.352 -0.05845,0.7159 0,1.0666 0.222938,1.3377 0.05605,-0.2329 0.304762,0.7619 0.02464,0.099 -0.0167,0.2046 0,0.3048 0.03443,0.2066 0.09485,0.4082 0.152381,0.6095 0.04413,0.1545 0.125975,0.2987 0.152381,0.4572 0.02505,0.1503 -0.02505,0.3068 0,0.4571 0.02641,0.1585 0.125975,0.2987 0.152381,0.4572 0.02505,0.1503 0,0.3047 0,0.4571 0,0.4571 0,0.9143 0,1.3714 0,0.1033 0.02557,1.2436 0,1.3715 -0.02227,0.1113 -0.124834,0.1945 -0.152381,0.3047 -0.02464,0.099 0,0.2032 0,0.3048 0,0.1524 0,0.3047 0,0.4571 0,0.1016 0.04543,0.2139 0,0.3048 -0.06425,0.1285 -0.22507,0.1852 -0.304762,0.3047 -0.02817,0.042 0,0.1016 0,0.1524 0,0.1016 0,0.2032 0,0.3048 0,0.098 0.02578,0.9635 0,1.0667 -0.02755,0.1101 -0.116464,0.197 -0.152381,0.3047 -0.02997,0.09 0,0.6768 0,0.7619 0,1.0108 0.07183,-0.2155 -0.152381,0.4572 -0.03212,0.096 0,0.2031 0,0.3047 0,0.2032 0,0.4064 0,0.6096 0,0.1015 0.02464,0.2062 0,0.3047 -0.02755,0.1102 -0.116464,0.197 -0.152381,0.3048 -0.01606,0.048 0.01606,0.1042 0,0.1524 -0.03592,0.1077 -0.130106,0.1933 -0.152381,0.3047 -0.02988,0.1494 0.03696,0.3093 0,0.4572 -0.01742,0.07 -0.129665,0.084 -0.152381,0.1523 -0.04571,0.1372 0.04572,0.32 0,0.4572 -0.09225,0.2767 -0.130415,0.2828 -0.304761,0.4571 -0.05079,0.051 -0.120257,0.088 -0.152381,0.1524 -0.02272,0.045 0.02271,0.107 0,0.1524 -0.03213,0.064 -0.101588,0.1016 -0.152381,0.1524 -0.05079,0.051 -0.08813,0.1202 -0.152381,0.1524 -0.04543,0.023 -0.110118,-0.028 -0.152381,0 -0.119538,0.08 -0.176263,0.2405 -0.304762,0.3047 -0.09086,0.045 -0.204557,-0.017 -0.304762,0 -0.539783,0.09 -0.519786,0.1075 -0.914286,0.3048 -0.101587,0.051 -0.203174,0.1016 -0.304762,0.1524 -0.101587,0.051 -0.194575,0.1248 -0.304762,0.1523 -0.26457,0.066 -0.649715,-0.066 -0.914285,0 -0.110187,0.028 -0.194575,0.1249 -0.304762,0.1524 -0.09855,0.025 -0.203175,0 -0.304762,0 -0.304762,0 -0.609524,0 -0.914286,0 -0.101587,0 -0.206208,-0.025 -0.304762,0 -0.110187,0.028 -0.197012,0.1165 -0.304762,0.1524 -0.09637,0.032 -0.213899,-0.045 -0.304762,0 -0.634173,0.3171 0.162901,-0.011 -0.152381,0.3048 -0.03592,0.036 -0.101587,0 -0.15238,0 -0.253969,0 -0.507937,0 -0.761905,0 -0.304762,0 -0.610776,-0.028 -0.914286,0 -0.257934,0.023 -0.503565,0.1339 -0.761905,0.1523 -0.455981,0.033 -0.914285,0 -1.371428,0 -0.507937,0 -1.015873,0 -1.52381,0 -1.168254,0 -2.336508,0 -3.504762,0 -3.707936,0 -7.415873,0 -11.123809,0 -1.320635,0 -2.64127,0 -3.961905,0 -0.507937,0 -1.015873,0 -1.52381,0 -0.15238,0 -0.306293,0.022 -0.457142,0 -0.207323,-0.03 -0.402201,-0.1227 -0.609524,-0.1523 -0.15085,-0.022 -0.304762,0 -0.457143,0 -0.406349,0 -0.812698,0 -1.219048,0 -1.066666,0 -2.133333,0 -3.1999997,0 -0.3555555,0 -0.7111111,0 -1.0666666,0 -0.068626,0 -0.4107682,0.023 -0.4571429,0 -0.064249,-0.032 -0.088132,-0.1203 -0.1523809,-0.1524 -0.1219048,-0.061 -0.3352381,0.061 -0.4571429,0 -0.06425,-0.032 -0.088132,-0.1203 -0.152381,-0.1524 -0.046375,-0.023 -0.3885169,0 -0.4571428,0 -0.4063492,0 -0.8126984,0 -1.2190476,0 -0.071847,0 -0.7549986,0.01 -0.7619048,0 -0.035916,-0.036 0.035916,-0.1165 0,-0.1524 -0.031152,-0.031 -0.396725,0.03 -0.4571428,0 -0.5202612,-0.2601 0.4712723,-0.1524 -0.6095239,-0.1524 z"
       id="path10339"
       inkscape:connector-curvature="0" />
    <path
       style="fill:#000000;fill-rule:evenodd;stroke:#000000;stroke-width:1px;stroke-linecap:butt;stroke-linejoin:miter;stroke-opacity:1;fill-opacity:0.53503186;opacity:1"
       d="m 5.1809524,1032.7051 c 0,-0.4572 0,-0.9143 0,-1.3715 0,-0.1016 0.032125,-0.2084 0,-0.3047 -0.022716,-0.068 -0.1296654,-0.084 -0.152381,-0.1524 -0.032125,-0.096 0,-0.2032 0,-0.3048 0,-0.1524 0.036958,-0.3093 0,-0.4571 -0.017422,-0.07 -0.1202562,-0.088 -0.1523809,-0.1524 -0.044004,-0.088 0.037375,-0.7648 0,-0.9143 -0.027547,-0.1102 -0.1248343,-0.1946 -0.152381,-0.3047 -0.049277,-0.1972 0.049277,-0.4125 0,-0.6096 -0.027547,-0.1102 -0.1164644,-0.197 -0.1523809,-0.3047 -0.016062,-0.048 0.016062,-0.1042 0,-0.1524 -0.035917,-0.1078 -0.1164644,-0.197 -0.152381,-0.3048 -0.048187,-0.1445 0.036958,-0.3093 0,-0.4571 -0.027547,-0.1102 -0.1337088,-0.1927 -0.1523809,-0.3048 0,-1.1582 0.090862,-0.1845 -0.152381,-0.9143 -0.034937,-0.1048 0.044954,-0.3672 0,-0.4571 -0.032125,-0.064 -0.1296653,-0.084 -0.1523809,-0.1524 -0.032125,-0.096 0,-0.2032 0,-0.3048 0,-0.1523 0,-0.3047 0,-0.4571 0,-0.3556 0,-0.7111 0,-1.0667 0,-1.1174 0,-2.2349 0,-3.3523 0,-0.4064 0,-0.8127 0,-1.2191 0,-0.1524 0.036958,-0.3093 0,-0.4571 -0.027547,-0.1102 -0.1248343,-0.1946 -0.152381,-0.3048 -0.024639,-0.098 0.032125,-0.2084 0,-0.3048 -0.022716,-0.068 -0.1296653,-0.084 -0.1523809,-0.1523 -0.027307,-0.082 0,-0.4805 0,-0.6096 0,-0.4571 0,-0.9142 0,-1.3714 0,-0.028 -0.020776,-1.0043 0,-1.0667 0.022716,-0.068 0.1202562,-0.088 0.1523809,-0.1523 0.060952,-0.1219 -0.060952,-0.3353 0,-0.4572 0.032125,-0.064 0.1202562,-0.088 0.152381,-0.1524 0.045431,-0.091 -0.045431,-0.2139 0,-0.3047 0.032125,-0.064 0.1202562,-0.088 0.1523809,-0.1524 0.022716,-0.045 -0.022716,-0.107 0,-0.1524 0.064249,-0.1285 0.2405125,-0.1762 0.3047619,-0.3047 0.022716,-0.045 -0.022716,-0.107 0,-0.1524 0.032125,-0.064 0.1125352,-0.093 0.152381,-0.1524 0.063002,-0.095 0.072069,-0.2245 0.1523809,-0.3048 0.035917,-0.036 0.1242057,0.042 0.152381,0 0.089098,-0.1336 0.080548,-0.3134 0.1523809,-0.4571 0.087346,-0.1747 0.3179448,-0.212 0.4571429,-0.3048 0.3018755,0.015 0.072069,-0.2244 0.1523809,-0.3047 0.035917,-0.036 0.1164645,0.036 0.152381,0 0.080312,-0.08 0.072069,-0.2245 0.1523809,-0.3048 0.035917,-0.036 0.1069498,0.023 0.152381,0 0.064249,-0.032 0.088131,-0.1203 0.1523809,-0.1524 0.045431,-0.023 0.1015873,0 0.152381,0 0.050794,0 0.1015873,0 0.152381,0 0.1534556,0 0.8300163,0.028 0.9142857,0 0.068147,-0.023 0.084234,-0.1296 0.1523809,-0.1524 0.096374,-0.032 0.2031746,0 0.3047619,0 0.1015873,0 0.2031746,0 0.3047619,0 0.4063492,0 0.8126984,0 1.2190476,0 0.2539683,0 0.5128684,0.05 0.761905,0 0.111372,-0.022 0.194575,-0.1248 0.304762,-0.1523 0.197108,-0.049 0.409113,0.033 0.609524,0 0.206578,-0.035 0.402945,-0.118 0.609523,-0.1524 0.100205,-0.017 0.205148,0.02 0.304762,0 0.157505,-0.031 0.299639,-0.1209 0.457143,-0.1524 0.09962,-0.02 0.203175,0 0.304762,0 0.203175,0 0.406349,0 0.609524,0 0.406349,0 0.812698,0 1.219047,0 0.152381,0 0.304762,0 0.457143,0 0.101588,0 0.208388,0.032 0.304762,0 0.06815,-0.023 0.08813,-0.1203 0.152381,-0.1524 0.04543,-0.023 0.101587,0 0.152381,0 0.101587,0 0.203175,0 0.304762,0 0.152381,0 0.304762,0 0.457143,0 0.203174,0 0.411187,0.044 0.609524,0 0.267018,-0.059 0.493684,-0.2511 0.761904,-0.3047 0.249037,-0.05 0.513985,0.055 0.761905,0 0.571804,-0.2859 0.596625,-0.3535 1.219048,-0.4572 0.20041,-0.033 0.406349,0 0.609524,0 0.05079,0 0.104193,0.016 0.152381,0 0.107749,-0.036 0.197012,-0.1165 0.304761,-0.1524 0.09637,-0.032 0.203175,0 0.304762,0 0.304762,0 0.609524,0 0.914286,0 0.02614,0 0.858408,-0.019 0.914286,0 0.06815,0.023 0.08813,0.1203 0.152381,0.1524 0.04543,0.023 0.104194,-0.016 0.152381,0 0.107749,0.036 0.197012,0.1165 0.304762,0.1524 0.453612,0.1512 -0.312657,-0.3608 0.457142,0.1524 0.278817,0.1858 0.0152,0.1942 0.457143,0.3047 0.09855,0.025 0.206208,-0.025 0.304762,0 0.110187,0.028 0.197013,0.1165 0.304762,0.1524 0.04819,0.016 0.101587,0 0.152381,0 0.101587,0 0.203175,0 0.304762,0 0.253968,0 0.507937,0 0.761905,0 0.77179,0 -0.324851,-0.025 0.914285,0.1524 0.15085,0.021 0.306836,-0.025 0.457143,0 0.158439,0.026 0.304762,0.1016 0.457143,0.1524 0.152381,0.051 0.304762,0.1016 0.457143,0.1524 0.152381,0.051 0.298134,0.1296 0.457143,0.1523 0.201133,0.029 0.408391,-0.029 0.609524,0 0.159009,0.023 0.298133,0.1297 0.457143,0.1524 0.201132,0.029 0.406349,0 0.609523,0 0.457143,0 0.914286,0 1.371429,0 1.219048,0 2.438095,0 3.657143,0 0.660317,0 1.320635,0 1.980952,0 0.198423,0 0.761575,-0.03 0.914286,0 0.222745,0.045 0.394025,0.2329 0.609524,0.3048 0.04819,0.016 0.106949,-0.023 0.152381,0 0.06425,0.032 0.09261,0.1125 0.152381,0.1524 0.0945,0.063 0.22445,0.072 0.304762,0.1523 0.08031,0.08 0.07207,0.2245 0.15238,0.3048 0.08031,0.08 0.21026,0.089 0.304762,0.1524 0.05977,0.04 0.09261,0.1125 0.152381,0.1524 0.0945,0.063 0.22445,0.072 0.304762,0.1523 0.08031,0.08 0.08423,0.2139 0.152381,0.3048 0.0862,0.1149 0.22507,0.1852 0.304762,0.3048 0.02818,0.042 -0.01606,0.1042 0,0.1524 0.106249,0.3187 0.332267,0.602 0.457143,0.9142 0.05965,0.1492 0.06974,0.3194 0.152381,0.4572 0.07392,0.1232 0.203175,0.2032 0.304762,0.3047 0.05079,0.051 0.129665,0.084 0.152381,0.1524 0,0.6937 -0.07183,0.01 0.152381,0.4572 0.01708,0.034 0,0.5733 0,0.6095 0,0.4571 0,0.9143 0,1.3714 0,1.1683 0,2.3365 0,3.5048 0,0.3555 0,0.7111 0,1.0666 0,0.2032 -0.03985,0.4103 0,0.6096 0.0315,0.1575 0.125974,0.2987 0.152381,0.4571 0.02505,0.1503 0,0.3048 0,0.4572 0,0.1015 -0.03212,0.2083 0,0.3047 0.02272,0.068 0.120256,0.088 0.152381,0.1524 0.06095,0.1219 -0.06095,0.3352 0,0.4571 0.03212,0.064 0.129665,0.084 0.152381,0.1524 0.03212,0.096 -0.02464,0.2062 0,0.3048 0.02755,0.1102 0.130106,0.1934 0.152381,0.3047 0.06521,0.3261 -0.04902,0.876 0,1.2191 0.04783,0.3348 0.196216,0.741 0.304761,1.0667 0.05079,0.1523 0.12088,0.2996 0.152381,0.4571 0.01992,0.1 0,0.2032 0,0.3048 0.05079,0.1016 0.116465,0.197 0.152381,0.3047 0.05397,0.162 -0.05397,0.4476 0,0.6096 0.03592,0.1077 0.116465,0.197 0.152381,0.3047 0.03285,0.099 0,0.5955 0,0.7619 0,0.3048 0,0.6095 0,0.9143 0,0.1016 0,0.2032 0,0.3048 0,0.051 0.01606,0.1042 0,0.1523 -0.03592,0.1078 -0.116464,0.1971 -0.152381,0.3048 -0.01606,0.048 0.01606,0.1042 0,0.1524 -0.03592,0.1077 -0.101587,0.2032 -0.152381,0.3048 -0.101587,0.2031 -0.203174,0.4063 -0.304762,0.6095 -0.05079,0.1016 -0.116464,0.197 -0.15238,0.3047 -0.01606,0.048 0,0.1016 0,0.1524 -0.05079,0.051 -0.120257,0.088 -0.152381,0.1524 -0.02272,0.045 0.02271,0.107 0,0.1524 -0.03213,0.064 -0.120257,0.088 -0.152381,0.1524 -0.04543,0.091 0.05635,0.2202 0,0.3047 -0.07969,0.1196 -0.225071,0.1852 -0.304762,0.3048 -0.02818,0.042 0.02271,0.1069 0,0.1524 -0.03213,0.064 -0.101588,0.1016 -0.152381,0.1523 0,0.1016 0.03212,0.2084 0,0.3048 -0.04543,0.1363 -0.240513,0.1763 -0.304762,0.3048 -0.02272,0.045 0.02271,0.1069 0,0.1524 -0.317087,0.6341 0.01052,-0.1629 -0.304762,0.1523 -0.03592,0.036 0.03592,0.1165 0,0.1524 -0.07183,0.072 -0.2139,-0.045 -0.304762,0 -0.06425,0.032 -0.08423,0.1297 -0.152381,0.1524 -0.09637,0.032 -0.203175,0 -0.304762,0 -0.177016,0 -0.623764,-0.034 -0.761905,0 -0.110186,0.027 -0.197012,0.1165 -0.304761,0.1524 -0.04819,0.016 -0.101588,0 -0.152381,0 -0.101588,0 -0.203175,0 -0.304762,0 -0.220373,0 -0.905754,-0.032 -1.066667,0 -0.111372,0.022 -0.197012,0.1164 -0.304762,0.1524 -0.04819,0.016 -0.101587,0 -0.152381,0 -0.253968,0 -0.511392,-0.042 -0.761905,0 -0.31004,-0.053 -0.493684,0.2511 -0.761904,0.3047 -0.149422,0.03 -0.307721,-0.03 -0.457143,0 -0.111373,0.022 -0.19339,0.1301 -0.304762,0.1524 -0.149422,0.03 -0.306294,-0.022 -0.457143,0 -0.207323,0.03 -0.402201,0.1228 -0.609524,0.1524 -0.150849,0.022 -0.304762,0 -0.457143,0 -0.152381,0 -0.304762,0 -0.457143,0 -0.711111,0 -1.422222,0 -2.133333,0 -0.253968,0 -0.507936,0 -0.761905,0 -0.253968,0 -0.509489,-0.028 -0.761904,0 -0.208147,0.023 -0.402201,0.1227 -0.609524,0.1524 -0.15085,0.022 -0.304762,0 -0.457143,0 -0.507937,0 -1.015873,0 -1.52381,0 -1.422222,0 -2.844444,0 -4.266666,0 -0.914286,0 -1.828572,0 -2.742857,0 -0.444293,0 -0.935566,-0.044 -1.371429,0 -0.257712,0.026 -0.503971,0.1289 -0.761905,0.1523 -0.30351,0.028 -0.610298,-0.022 -0.914285,0 -0.408471,0.029 -0.810577,0.1232 -1.219048,0.1524 -0.303987,0.022 -0.609524,0 -0.914286,0 -0.660317,0 -1.320635,0 -1.980952,0 -0.609524,0 -1.219048,0 -1.828572,0 -0.253968,0 -0.512868,0.05 -0.761904,0 -0.111373,-0.022 -0.194575,-0.1248 -0.304762,-0.1524 -0.119866,-0.03 -0.7558213,0 -0.914286,0 -0.1015873,0 -0.2083877,0.032 -0.3047619,0 -0.1077496,-0.036 -0.1970123,-0.1164 -0.3047619,-0.1523 -0.048187,-0.016 -0.1069497,0.023 -0.1523809,0 -0.06425,-0.032 -0.084234,-0.1297 -0.152381,-0.1524 -0.096374,-0.032 -0.2031746,0 -0.3047619,0 -0.050794,0 -0.1069497,0.023 -0.1523809,0 -0.064249,-0.032 -0.088131,-0.1203 -0.152381,-0.1524 -0.2101877,-0.1051 -0.1363005,0.1845 -0.3047619,-0.1524 -0.022716,-0.045 0.035917,-0.1164 0,-0.1524 -0.035916,-0.036 -0.1164644,0.036 -0.1523809,0 -0.035917,-0.036 0.035916,-0.1164 0,-0.1523 -0.035917,-0.036 -0.1069498,0.023 -0.152381,0 -0.634173,-0.3171 0.1629007,0.011 -0.1523809,-0.3048 -0.035917,-0.036 -0.1164645,0.036 -0.152381,0 -0.035916,-0.036 0.035916,-0.1165 0,-0.1524 -0.035916,-0.036 -0.1164644,0.036 -0.1523809,0 -0.035917,-0.036 0.035916,-0.1164 0,-0.1524 -0.035917,-0.036 -0.1164645,0.036 -0.152381,0 -0.035916,-0.036 0.035916,-0.1164 0,-0.1523 -0.035916,-0.036 -0.1164644,0.036 -0.1523809,0 -0.035917,-0.036 0.035917,-0.1165 0,-0.1524 -0.035917,-0.036 -0.1164645,0.036 -0.152381,0 -0.035917,-0.036 0.035916,-0.1165 0,-0.1524 -0.035917,-0.036 -0.1164644,0.036 -0.152381,0 -0.035916,-0.036 0.035917,-0.1165 0,-0.1524 -0.035916,-0.036 -0.1164644,0.036 -0.1523809,0 -0.035917,-0.036 0.035916,-0.1165 0,-0.1524 -0.035917,-0.036 -0.1164644,0.036 -0.152381,0 -0.071833,-0.072 0.071833,-0.2329 0,-0.3047 -0.035916,-0.036 -0.1164644,0.036 -0.1523809,0 -0.071833,-0.072 0.071833,-0.233 0,-0.3048 -0.035916,-0.036 -0.1164644,0.036 -0.152381,0 -0.071833,-0.072 0.045431,-0.2139 0,-0.3048 -0.032125,-0.064 -0.1202562,-0.088 -0.1523809,-0.1523 -0.022716,-0.046 0.035916,-0.1165 0,-0.1524 -0.035916,-0.036 -0.1296654,0.045 -0.152381,0 -0.093659,-0.1873 -0.1015873,-0.4064 -0.1523809,-0.6095 z"
       id="path10343"
       inkscape:connector-curvature="0" />
    <path
       style="fill:#ffffff;fill-rule:evenodd;stroke:#000000;stroke-width:1px;stroke-linecap:butt;stroke-linejoin:miter;stroke-opacity:1"
       d="m 11.27619,1040.1717 c -0.572353,0.5008 -1.4472239,1.2186 -1.9809519,1.8286 -0.120598,0.1378 -0.1875191,0.3164 -0.3047619,0.4571 -0.6718183,0.8062 -0.2899528,0.1228 -0.6095238,0.7619 -0.1015873,0.2032 -0.1787584,0.4206 -0.3047619,0.6096 -0.039846,0.06 -0.1015873,0.1016 -0.152381,0.1523 -0.1523809,0.1524 -0.3047619,0.3048 -0.4571428,0.4572 -0.050794,0.051 -0.1125352,0.093 -0.152381,0.1524 -0.2595748,0.3893 -0.017748,0.2799 -0.4571428,0.6095 -0.090863,0.068 -0.2031746,0.1016 -0.3047619,0.1524 -0.152381,0.1016 -0.3141353,0.1903 -0.4571429,0.3047 -0.4707799,0.3767 -0.1727557,0.183 -0.4571429,0.6096 -0.039846,0.06 -0.1015873,0.1015 -0.1523809,0.1523 -0.050794,0.051 -0.1202562,0.088 -0.152381,0.1524 -0.022716,0.045 0.035917,0.1165 0,0.1524 -0.035916,0.036 -0.1164644,-0.036 -0.1523809,0 -0.015238,0.015 -0.015238,0.4419 0,0.4571 0.080312,0.08 0.2031746,0.1016 0.3047619,0.1524 0.2031746,0.1016 0.4122971,0.1921 0.6095238,0.3048 0.1590093,0.091 0.2933383,0.2229 0.4571429,0.3048 0.2446546,0.1223 0.504841,0.2112 0.7619047,0.3047 0.7449114,0.2709 1.0422132,0.3785 1.8285714,0.4572 0.2021663,0.02 0.4063492,0 0.6095239,0 0.406349,0 0.812698,0 1.219048,0 1.473015,0 2.946031,0 4.419047,0 0.507937,0 1.015873,0 1.52381,0 0.203174,0 0.407357,0.02 0.609524,0 0.307432,-0.031 0.616206,-0.071 0.914285,-0.1524 0.813399,-0.2219 0.605991,-0.3615 1.371429,-0.4572 0.201605,-0.025 0.408391,0.029 0.609524,0 0.159009,-0.023 0.299638,-0.1208 0.457142,-0.1523 0.19923,-0.04 0.40635,0 0.609524,0 0.203175,0 0.406349,0 0.609524,0 0.253968,0 0.50949,-0.028 0.761905,0 0.208147,0.023 0.401713,0.1264 0.609524,0.1523 0.201605,0.025 0.407918,-0.025 0.609523,0 0.207811,0.026 0.401714,0.1264 0.609524,0.1524 0.35281,0.044 0.711111,0 1.066667,0 0.55873,0 1.11746,0 1.67619,0 1.930159,0 3.860318,0 5.790477,0 0.965079,0 1.930158,0 2.895238,0 0.02643,0 1.035019,0.016 1.066666,0 1.421245,-0.9475 -0.213897,0.02 0.761905,-0.3047 0.06815,-0.023 0.08423,-0.1297 0.152381,-0.1524 0.693682,0 0.0087,0.072 0.457143,-0.1524 0.09086,-0.045 0.232929,0.072 0.304762,0 0.03592,-0.036 0,-0.1016 0,-0.1524 0,-0.051 0,-0.1016 0,-0.1524 0,-0.051 0.03592,-0.1164 0,-0.1524 -0.03592,-0.036 -0.104194,0.016 -0.152381,0 -0.10775,-0.036 -0.2139,-0.084 -0.304762,-0.1523 -0.114933,-0.086 -0.203175,-0.2032 -0.304762,-0.3048 -0.75,-0.75 0.140476,0.1405 -0.609524,-0.6095 -0.152381,-0.1524 -0.288866,-0.3225 -0.457143,-0.4572 -0.08869,-0.071 -0.22445,-0.072 -0.304761,-0.1523 -0.129499,-0.1295 -0.175263,-0.3277 -0.304762,-0.4572 -0.08031,-0.08 -0.21026,-0.089 -0.304762,-0.1524 -0.05977,-0.04 -0.101588,-0.1016 -0.152381,-0.1523 -0.101588,-0.051 -0.210259,-0.089 -0.304762,-0.1524 -0.05977,-0.04 -0.09261,-0.1126 -0.152381,-0.1524 -0.02838,-0.019 -0.599759,-0.295 -0.609524,-0.3048 -0.08031,-0.08 -0.08423,-0.2139 -0.152381,-0.3047 -0.659092,-0.6591 -0.02388,0.04 -0.457143,-0.6096 -0.03985,-0.06 -0.101587,-0.1015 -0.152381,-0.1523 -0.05079,-0.051 -0.09261,-0.1126 -0.152381,-0.1524 -0.0945,-0.063 -0.22445,-0.072 -0.304762,-0.1524 -0.03592,-0.036 0.02272,-0.1069 0,-0.1524 -0.03212,-0.064 -0.101587,-0.1016 -0.15238,-0.1524 -0.05079,-0.051 -0.101588,-0.1015 -0.152381,-0.1523 -0.05079,-0.051 -0.08813,-0.1203 -0.152381,-0.1524 -0.04543,-0.023 -0.116465,0.036 -0.152381,0 -0.03592,-0.036 0.03592,-0.1165 0,-0.1524 -0.08031,-0.08 -0.21026,-0.089 -0.304762,-0.1524 -0.06459,-0.043 -0.425619,-0.3941 -0.457143,-0.4571 -0.02272,-0.045 0.03592,-0.1165 0,-0.1524 -0.03592,-0.036 -0.116465,0.036 -0.152381,0 -0.04169,-0.042 0.04133,-0.5269 0,-0.6095 -0.03213,-0.064 -0.120256,-0.088 -0.152381,-0.1524 -0.02272,-0.045 0,-0.1016 0,-0.1524 0,-0.051 0,-0.1016 0,-0.1524"
       id="path10341"
       inkscape:connector-curvature="0" />
    <path
       style="fill:#ffffff;fill-rule:evenodd;stroke:#000000;stroke-width:1.63160121px;stroke-linecap:round;stroke-linejoin:miter;stroke-opacity:1"
       d="m 33.002286,1025.4089 c 0.0873,0.3146 0.100927,0.6539 0.261909,0.944 0.03905,0.07 0.183825,-0.036 0.261912,0 0.220863,0.099 0.302959,0.3725 0.523822,0.472 0.07809,0.036 0.200179,-0.056 0.261912,0 0.06174,0.056 -0.06174,0.1804 0,0.236 0.06174,0.056 0.200179,-0.056 0.261911,0 0.06174,0.056 -0.06174,0.1805 0,0.2361 0.06174,0.056 0.183825,-0.036 0.261911,0 0.110433,0.05 0.174607,0.1573 0.261912,0.236 0.0873,0.079 0.206695,0.1363 0.261911,0.236 0,0.6293 -0.0873,-0.079 0.261911,0.2359 0.06174,0.056 -0.06174,0.1805 0,0.2361 0.06174,0.056 0.200178,-0.056 0.261912,0 0.06174,0.056 -0.06174,0.1804 0,0.236 0.06174,0.056 0.200177,-0.056 0.261911,0 0.349216,0.3147 -0.436518,0.2361 0.261911,0.2361 0.0873,0 0.349216,0 0.261912,0 -0.174607,0 -0.69843,0 -0.523823,0 0.261911,0 0.537264,0.074 0.785734,0 0.08283,-0.025 -0.03905,-0.1658 0,-0.2361 0.05523,-0.099 0.151477,-0.1863 0.261911,-0.236 0.07809,-0.036 0.183823,0.036 0.261912,0 0.220863,-0.099 0.302959,-0.3725 0.523822,-0.472 0.15617,-0.07 0.400355,0.1116 0.523823,0 0.06174,-0.056 -0.06174,-0.1804 0,-0.236 0.06174,-0.056 0.200177,0.056 0.26191,0 0.06174,-0.056 -0.06174,-0.1804 0,-0.236 0.06174,-0.056 0.200179,0.056 0.261911,0 0.06174,-0.056 -0.06174,-0.1805 0,-0.2361 0.123461,-0.1115 0.400357,0.1115 0.523823,0 0.06174,-0.056 -0.06174,-0.1803 0,-0.236 0.12346,-0.1115 0.367649,0.07 0.523822,0 0.110433,-0.05 0.151477,-0.1862 0.261912,-0.2359 0.05373,-0.025 0.748797,-0.034 0.785734,0 0.06174,0.056 0,0.1572 0,0.2359 0,0.079 0,0.1573 0,0.236 0,0.6295 0,1.2587 0,1.8882 0,0.944 0,1.888 0,2.832 0,0.079 0,0.1574 0,0.2361 0,0.079 0.06174,0.1804 0,0.236 -0.06174,0.056 -0.200178,-0.056 -0.261912,0 -0.06174,0.056 0.03905,0.1657 0,0.2361 -0.545005,0.9822 0.01808,-0.2523 -0.523822,0.236 -0.06174,0.056 0.06174,0.1803 0,0.2359 -0.06303,0.057 -0.984621,-0.057 -1.047646,0 -0.06174,0.056 0.06174,0.1804 0,0.236 -0.06174,0.056 -0.174607,0 -0.261911,0 -0.0873,0 -0.174607,0 -0.261911,0 -0.523821,0 -1.047644,0 -1.571467,0 -0.261911,0 -0.531643,-0.057 -0.785734,0 -0.189388,0.043 -0.338623,0.1805 -0.523822,0.2361 -0.278311,0.084 -0.769335,-0.084 -1.047646,0 -0.117135,0.036 -0.151477,0.1863 -0.261911,0.236 -0.165228,0.074 -1.144324,-0.074 -1.309557,0 -0.110432,0.05 -0.151477,0.1862 -0.261909,0.2361 -0.06772,0.031 -1.385825,0 -1.571468,0 -0.0873,0 -0.20018,0.056 -0.261912,0 -0.06174,-0.056 0,-0.1574 0,-0.2361 0,-0.079 0,-0.1573 0,-0.236 0,-0.079 -0.03905,-0.1656 0,-0.2361 0.110433,-0.199 0.41339,-0.2729 0.523823,-0.4719 0.03903,-0.071 -0.03905,-0.1657 0,-0.236 0.110432,-0.1991 0.41339,-0.2731 0.523823,-0.4721 0.03905,-0.07 -0.06174,-0.1803 0,-0.2361 0.06174,-0.056 0.183823,0.036 0.261911,0 0.110432,-0.049 0.174607,-0.1572 0.261911,-0.2359 0.0873,-0.079 0.174607,-0.1573 0.261912,-0.236 0.0873,-0.079 0.206695,-0.1363 0.261909,-0.236 0.03905,-0.07 -0.06174,-0.1805 0,-0.2361 0.06174,-0.056 0.200179,0.056 0.261912,0 0.06174,-0.056 -0.06174,-0.1803 0,-0.236 0.06174,-0.056 0.261911,-0.079 0.261911,0 0,0.079 -0.174607,0 -0.261911,0 -0.06353,0 -0.777311,0 -0.785733,0 -0.06174,-0.056 0.06174,-0.1803 0,-0.2359 -0.06174,-0.056 -0.200179,0.056 -0.261911,0 -0.06174,-0.056 0.06174,-0.1804 0,-0.236 -0.06174,-0.056 -0.200179,0.056 -0.261911,0 -0.06174,-0.056 0.06174,-0.1805 0,-0.2361 -0.06174,-0.056 -0.20018,0.056 -0.261912,0 -0.06174,-0.056 0.06174,-0.1804 0,-0.236 -0.06174,-0.056 -0.200179,0.056 -0.261911,0 -0.06174,-0.056 0.06174,-0.1805 0,-0.2361 -0.06174,-0.056 -0.200179,0.056 -0.261911,0 -0.06174,-0.056 0.06174,-0.1803 0,-0.236 -0.06174,-0.056 -0.20018,0.056 -0.261912,0 -0.06174,-0.056 0.06174,-0.1803 0,-0.2359 -0.06174,-0.056 -0.200179,0.056 -0.261911,0 -0.06174,-0.056 0.06174,-0.1804 0,-0.236 -0.06174,-0.056 -0.200179,0.056 -0.261911,0 -0.06174,-0.056 0.06174,-0.1805 0,-0.2361 -0.06174,-0.056 -0.200178,0.056 -0.261912,0 -0.06174,-0.056 0.06174,-0.1804 0,-0.236 -0.06174,-0.056 -0.200177,0.056 -0.261911,0 -0.06174,-0.056 0.06174,-0.1803 0,-0.2361 -0.06174,-0.056 -0.200178,0.056 -0.261911,0 -0.0084,0 0,-0.6506 0,-0.7079 0,-0.057 -0.0084,-0.7004 0,-0.708 0.12346,-0.1115 0.400356,0.1115 0.523822,0 0.06174,-0.056 -0.06174,-0.1805 0,-0.2361 0.06174,-0.056 0.174607,0 0.261912,0 0,-0.079 -0.06174,-0.1804 0,-0.236 0.06174,-0.056 0.183824,0.036 0.261911,0 0.110432,-0.05 0.151477,-0.1863 0.261911,-0.236 0.07809,-0.036 0.200178,0.056 0.261912,0 0.06174,-0.056 -0.06174,-0.1803 0,-0.2361 0.12346,-0.1115 0.400356,0.1115 0.523822,0 0.06174,-0.056 0,-0.1573 0,-0.2359 0.349214,0 0.69843,0 1.047646,0 z"
       id="path10351"
       inkscape:connector-curvature="0" />
    <path
       style="fill:#ffffff;fill-opacity:1;fill-rule:evenodd;stroke:#000000;stroke-width:1.57932866px;stroke-linecap:butt;stroke-linejoin:miter;stroke-opacity:1"
       d="m 32.182752,1012.8831 c 1.519172,0 3.038346,0 4.557518,0 0.08809,0 0.949825,-0.016 0.959477,0 0.05654,0.057 -0.05654,0.1844 0,0.2414 0.05654,0.057 0.168355,-0.036 0.23987,0 0.101138,0.051 0.138729,0.1905 0.239869,0.2414 0.07151,0.036 0.183331,-0.057 0.23987,0 0.11307,0.1141 -0.113071,0.3692 0,0.4829 0.05654,0.057 0.183331,-0.057 0.239869,0 0.04904,0.049 -0.04756,0.6286 0,0.7243 0.05056,0.1014 0.204111,0.1331 0.23987,0.2415 0.05056,0.1521 -0.05058,0.3302 0,0.483 0.03575,0.1077 0.204111,0.1331 0.239869,0.2414 0.05056,0.1522 -0.03879,0.3268 0,0.4829 0.04337,0.1746 0.183331,0.3121 0.239869,0.4829 0.07586,0.229 -0.07586,0.4953 0,0.7243 0.03576,0.1078 0.1893,0.1394 0.23987,0.2415 0.03101,0.062 0,1.2776 0,1.4487 0,0.161 0,0.322 0,0.483 0,0.081 0.07995,0.2413 0,0.2413 -0.07995,0 0,-0.3218 0,-0.2413 0,0.1608 0.07151,0.3389 0,0.4828 -0.03576,0.071 -0.159914,0 -0.23987,0 -0.08809,0 -0.949825,0.016 -0.959477,0 -0.05654,-0.057 0.05654,-0.1844 0,-0.2415 -0.113071,-0.1141 -0.366664,0.1141 -0.479739,0 -0.05654,-0.057 0.05654,-0.1844 0,-0.2413 -0.05654,-0.057 -0.183333,0.057 -0.23987,0 -0.05654,-0.057 0.05654,-0.1846 0,-0.2415 -0.05654,-0.057 -0.168354,0.037 -0.239869,0 -0.101139,-0.051 -0.138729,-0.1906 -0.239869,-0.2415 -0.07151,-0.036 -0.183331,0.057 -0.23987,0 -0.05654,-0.057 0.05654,-0.1846 0,-0.2415 -0.113071,-0.114 -0.366663,0.1141 -0.479739,0 -0.05654,-0.057 0.05654,-0.1844 0,-0.2414 -0.05654,-0.057 -0.168354,0.036 -0.239869,0 -0.101139,-0.051 -0.126797,-0.2414 -0.23987,-0.2414 -0.07995,0 0.05654,0.1845 0,0.2414 -0.05654,0.057 -0.183331,-0.057 -0.239869,0 -0.113071,0.1141 0.113071,0.3692 0,0.4829 -0.05654,0.057 -0.183331,-0.057 -0.23987,0 -0.05654,0.057 0.03576,0.1694 0,0.2415 -0.05056,0.1014 -0.1893,0.1395 -0.239869,0.2415 -0.03575,0.071 0.05654,0.1844 0,0.2413 -0.05654,0.057 -0.183331,-0.057 -0.239869,0 -0.496298,0.4996 0.758409,-0.019 -0.23987,0.483 -0.07151,0.036 -0.183331,-0.057 -0.239868,0 -0.05654,0.057 0.03575,0.1695 0,0.2415 -0.05058,0.1014 -0.189301,0.1394 -0.239869,0.2415 -0.03576,0.071 0.05654,0.1844 0,0.2413 -0.05654,0.057 -0.168355,-0.037 -0.23987,0 -0.998278,0.5024 0.256428,-0.016 -0.239869,0.4829 -0.496299,0.4996 0.01939,-0.7634 -0.479739,0.2415 -0.03576,0.071 0.05654,0.1845 0,0.2415 -0.05654,0.057 -0.159914,0 -0.239869,0 -0.07995,0 -0.23987,0.081 -0.23987,0 0,-0.081 0.319825,0 0.23987,0 -0.23987,0 -0.479739,0 -0.719609,0 -0.07995,0 -0.18333,0.057 -0.239869,0 -0.113071,-0.1141 0.113071,-0.3692 0,-0.483 -0.05654,-0.057 -0.183331,0.057 -0.239869,0 -0.05654,-0.057 0.05654,-0.1846 0,-0.2414 -0.05654,-0.057 -0.183331,0.057 -0.23987,0 -0.05654,-0.057 0.05654,-0.1845 0,-0.2415 -0.05654,-0.057 -0.183331,0.057 -0.239869,0 -0.113071,-0.1141 0.11307,-0.3691 0,-0.4828 -0.113071,-0.1141 -0.366664,0.1141 -0.479739,0 -0.05654,-0.057 0.05654,-0.1846 0,-0.2415 -0.113071,-0.1141 -0.366664,0.1141 -0.479739,0 -0.05654,-0.057 0,-0.161 0,-0.2415 -0.07995,0 -0.183331,0.057 -0.239869,0 -0.05654,-0.057 0,-0.161 0,-0.2415 0,-0.081 0,-0.1608 0,-0.2413 0,-0.081 0,-0.322 0,-0.2415 0,0.161 0,0.6438 0,0.4828 0,-0.2413 0,-0.4828 0,-0.7243 0,-0.081 -0.03577,-0.1695 0,-0.2415 0.05058,-0.1014 0.189301,-0.1394 0.239869,-0.2414 0.03577,-0.071 -0.05654,-0.1845 0,-0.2414 0.05654,-0.057 0.183333,0.057 0.239869,0 0.05654,-0.057 -0.05654,-0.1846 0,-0.2414 0.05654,-0.057 0.183333,0.057 0.23987,0 0.05654,-0.057 -0.05654,-0.1846 0,-0.2415 0.113071,-0.1141 0.366663,0.1141 0.479739,0 0.05654,-0.057 -0.05654,-0.1846 0,-0.2415 0.05654,-0.057 0.183332,0.057 0.239869,0 0.05654,-0.057 -0.05654,-0.1846 0,-0.2415 0.05654,-0.057 0.168355,0.036 0.23987,0 0.101138,-0.051 0.138729,-0.1905 0.239869,-0.2415 0.07151,-0.036 0.183331,0.057 0.239869,0 0.05654,-0.057 -0.05654,-0.1844 0,-0.2413 0.113071,-0.1141 0.366664,0.1141 0.479739,0 0.05654,-0.057 -0.05654,-0.1846 0,-0.2415 0.496298,-0.4996 -0.01939,0.7634 0.479739,-0.2415 0.234744,-0.4725 -0.361854,-0.122 -0.479739,-0.2414 -0.05654,-0.057 0.05654,-0.1845 0,-0.2415 -0.05654,-0.057 -0.159912,0 -0.239869,0 0,-0.081 0.05654,-0.1845 0,-0.2414 -0.05654,-0.057 -0.183333,0.057 -0.23987,0 -0.05654,-0.057 0,-0.1609 0,-0.2414 0,-0.081 0,-0.322 0,-0.2415 0,0.161 0,0.6438 0,0.4829 0,-0.2414 0,-0.4829 0,-0.7244 0,-0.081 0,-0.161 0,-0.2415 0,-0.081 0.03576,-0.1694 0,-0.2413 -0.05058,-0.1014 -0.319826,-0.161 -0.239869,-0.2415 0.07995,-0.081 0.239869,0.3553 0.239869,0.2415 0,-0.18 -0.210477,-0.3055 -0.239869,-0.483 -0.05258,-0.3175 0,-0.6439 0,-0.9657 z"
       id="path10347"
       inkscape:connector-curvature="0" />
    <path
       style="fill:#ffffff;fill-opacity:1;fill-rule:evenodd;stroke:#000000;stroke-width:1.51004827px;stroke-linecap:butt;stroke-linejoin:miter;stroke-opacity:1"
       d="m 13.351392,1013.1622 c -1.401358,0 -2.802715,0 -4.2040717,0 -0.3114126,0 -0.6228253,0 -0.9342379,0 -0.077854,0 -0.2335594,0.076 -0.2335594,0 0,-0.076 0.3114126,0 0.2335594,0 -0.1557063,0 -0.3114127,0 -0.467119,0 -0.077854,0 -0.1785089,-0.053 -0.2335594,0 -0.055051,0.054 0.05505,0.1734 0,0.2268 -0.055051,0.053 -0.1785091,-0.054 -0.2335595,0 -0.00751,0 0,0.6251 0,0.6801 0,0.076 0,0.3022 0,0.2266 0,-0.151 0,-0.6044 0,-0.4533 0,1.1335 0,2.267 0,3.4005 0,0.68 0,1.3602 0,2.0402 0,0.3023 0,0.6046 0,0.9067 0,0.076 -0.077854,0.2268 0,0.2268 0.1101009,0 0.1350814,-0.1789 0.2335595,-0.2268 0.6228253,0 -0.077854,0.076 0.2335594,-0.2265 0.05505,-0.054 0.178509,0.053 0.2335596,0 0.05505,-0.054 -0.055051,-0.1734 0,-0.2268 0.05505,-0.053 0.1785089,0.054 0.2335594,0 0.055051,-0.053 -0.05505,-0.1733 0,-0.2267 0.1101009,-0.1071 0.3570181,0.1071 0.4671189,0 0.055051,-0.054 -0.05505,-0.1733 0,-0.2267 0.055051,-0.054 0.178509,0.053 0.2335596,0 0.055051,-0.054 -0.055051,-0.1732 0,-0.2267 0.1101009,-0.1072 0.3570179,0.1071 0.467119,0 0.055051,-0.054 -0.055051,-0.1732 0,-0.2266 0.00751,0 0.6440341,0 0.7006781,0 0.07785,0 0.178509,-0.054 0.23356,0 0.05505,0.053 -0.05505,0.1731 0,0.2266 0.05505,0.053 0.178509,-0.054 0.233559,0 0.05505,0.053 -0.05505,0.1733 0,0.2267 0.483243,0.4691 -0.01889,-0.7168 0.467119,0.2267 0.03482,0.067 -0.06963,0.193 0,0.2267 0.139269,0.067 0.327851,-0.067 0.467119,0 0.06963,0.034 -0.03482,0.1591 0,0.2268 0.04924,0.095 0.155707,0.151 0.23356,0.2265 0.12296,0.119 0.638308,0.5591 0.700679,0.6802 0.03481,0.067 -0.05506,0.1732 0,0.2267 0.05505,0.054 0.178508,-0.054 0.233559,0 0.05506,0.054 -0.05506,0.1732 0,0.2266 0.483242,0.4691 -0.0189,-0.7166 0.467119,0.2267 0.03481,0.069 -0.05506,0.1734 0,0.2268 0.05506,0.053 0.163925,-0.034 0.23356,0 0.196953,0.095 0.270164,0.3578 0.467117,0.4534 0.06963,0.034 0.17851,-0.053 0.23356,0 0.05506,0.054 -0.05506,0.1732 0,0.2267 0.110096,0.1072 0.357018,-0.1071 0.467119,0 0.05506,0.054 -0.05506,0.1732 0,0.2266 0.05506,0.054 0.155707,0 0.23356,0 0.07785,0 0.155707,0 0.233559,0 0.07785,0 0.17851,0.054 0.23356,0 0.05505,-0.053 -0.05506,-0.1732 0,-0.2266 0.05505,-0.053 0.17851,0.054 0.233559,0 0.05506,-0.053 -0.03481,-0.1591 0,-0.2267 0.04923,-0.095 0.184321,-0.1309 0.23356,-0.2267 0.03482,-0.067 -0.03482,-0.1592 0,-0.2267 0.04923,-0.095 0.18432,-0.131 0.233559,-0.2268 0.03482,-0.067 -0.05506,-0.1731 0,-0.2267 0.05506,-0.053 0.155706,0 0.23356,0 0.07785,-0.151 0.178508,-0.2931 0.233559,-0.4533 0.02462,-0.071 -0.05505,-0.1733 0,-0.2267 0.05506,-0.054 0.178509,0.054 0.23356,0 0.05506,-0.054 -0.03482,-0.1591 0,-0.2267 0.09848,-0.1912 0.368641,-0.2622 0.467119,-0.4533 0.03481,-0.067 -0.05506,-0.1734 0,-0.2268 0.05506,-0.053 0.23356,-0.076 0.23356,0 0,0.076 -0.155708,0 -0.23356,0 -0.547739,0 0.110096,0.054 -0.467119,-0.2267 -0.06963,-0.034 -0.17851,0.054 -0.23356,0 -0.05505,-0.054 0.05506,-0.1733 0,-0.2267 -0.05505,-0.054 -0.178508,0.053 -0.233559,0 -0.05506,-0.054 0.05506,-0.1732 0,-0.2267 -0.05506,-0.054 -0.163926,0.034 -0.23356,0 -0.196954,-0.095 -0.270164,-0.3578 -0.467119,-0.4533 -0.06963,-0.034 -0.178508,0.053 -0.233559,0 -0.05506,-0.054 0.03482,-0.1592 0,-0.2268 -0.05408,-0.1056 -0.796872,-0.7734 -0.934239,-0.9067 -0.07785,-0.076 -0.155705,-0.1512 -0.233559,-0.2267 -0.07785,-0.076 -0.13508,-0.179 -0.23356,-0.2268 -0.06963,-0.034 -0.178508,0.054 -0.233558,0 -0.05506,-0.054 0.05506,-0.1733 0,-0.2267 -0.05506,-0.054 -0.17851,0.054 -0.233559,0 -0.05506,-0.054 0.05506,-0.1732 0,-0.2267 -0.110097,-0.1071 -0.357018,0.1071 -0.467119,0 -0.05506,-0.054 0.05505,-0.1732 0,-0.2266 -0.05506,-0.054 -0.155708,0 -0.23356,0 0,-0.076 0.03481,-0.1592 0,-0.2267 -0.04925,-0.095 -0.184322,-0.1309 -0.233559,-0.2268 -0.03482,-0.067 0.05505,-0.1733 0,-0.2267 -0.05506,-0.053 -0.17851,0.054 -0.23356,0 -0.05506,-0.053 0,-0.1511 0,-0.2267 0,-0.076 0,-0.3022 0,-0.2266 0,0.151 0,0.6045 0,0.4533 0,-0.2267 0,-0.4533 0,-0.68 0,-0.076 0,-0.1512 0,-0.2267 0,-0.076 -0.05506,-0.1733 0,-0.2268 0.05506,-0.053 0.178508,0.054 0.23356,0 0.05505,-0.053 -0.03482,-0.159 0,-0.2267 -0.04969,-0.4713 0.362667,-0.092 0.467119,-0.2266 0.208901,-0.2704 0.311411,-0.6046 0.467119,-0.9069 z"
       id="path10345"
       inkscape:connector-curvature="0" />
    <path
       inkscape:connector-curvature="0"
       id="path10912"
       d="m 8.1673117,1028.7963 c 0,1.4014 0,2.8028 0,4.2041 0,0.3114 0,0.6228 0,0.9343 0,0.078 0.076,0.2335 0,0.2335 -0.076,0 0,-0.3114 0,-0.2335 0,0.1557 0,0.3114 0,0.4671 0,0.078 -0.053,0.1785 0,0.2335 0.054,0.055 0.1734,-0.055 0.2268,0 0.053,0.055 -0.054,0.1785 0,0.2336 0,0.01 0.6251,0 0.6801001,0 0.076,0 0.3022,0 0.2265999,0 -0.1509999,0 -0.6044,0 -0.4533,0 1.1335001,0 2.2670003,0 3.4005003,0 0.68,0 1.3602,0 2.0402,0 0.3023,0 0.6046,0 0.9067,0 0.076,0 0.2268,0.078 0.2268,0 0,-0.1101 -0.1789,-0.1351 -0.2268,-0.2336 0,-0.6228 0.076,0.078 -0.2265,-0.2335 -0.054,-0.055 0.053,-0.1785 0,-0.2336 -0.054,-0.055 -0.1734,0.055 -0.2268,0 -0.053,-0.055 0.054,-0.1785 0,-0.2335 -0.053,-0.055 -0.1733,0.055 -0.2267,0 -0.1071,-0.1101 0.1071,-0.3571 0,-0.4672 -0.054,-0.055 -0.1733,0.055 -0.2267,0 -0.054,-0.055 0.053,-0.1785 0,-0.2335 -0.054,-0.055 -0.1732,0.055 -0.2267,0 -0.1072,-0.1101 0.1071,-0.357 0,-0.4671 -0.054,-0.055 -0.1732,0.055 -0.2266,0 0,-0.01 0,-0.6441 0,-0.7007 0,-0.078 -0.054,-0.1785 0,-0.2336 0.053,-0.055 0.1731,0.055 0.2266,0 0.053,-0.055 -0.054,-0.1785 0,-0.2335 0.053,-0.055 0.1733,0.055 0.2267,0 0.4691,-0.4833 -0.7168,0.019 0.2267,-0.4672 0.067,-0.035 0.193,0.07 0.2267,0 0.067,-0.1392 -0.067,-0.3278 0,-0.4671 0.034,-0.07 0.1591,0.035 0.2268,0 0.095,-0.049 0.151,-0.1557 0.2265,-0.2335 0.119,-0.123 0.5591,-0.6383 0.6802,-0.7007 0.067,-0.035 0.1732,0.055 0.2267,0 0.054,-0.055 -0.054,-0.1785 0,-0.2336 0.054,-0.055 0.1732,0.055 0.2266,0 0.4691,-0.4832 -0.7166,0.019 0.2267,-0.4671 0.069,-0.035 0.1734,0.055 0.2268,0 0.053,-0.055 -0.034,-0.1639 0,-0.2336 0.095,-0.1969 0.3578,-0.2701 0.4534,-0.4671 0.034,-0.07 -0.053,-0.1785 0,-0.2335 0.054,-0.055 0.1732,0.055 0.2267,0 0.1072,-0.1101 -0.1071,-0.3571 0,-0.4672 0.054,-0.055 0.1732,0.055 0.2266,0 0.054,-0.055 0,-0.1557 0,-0.2335 0,-0.078 0,-0.1557 0,-0.2336 0,-0.078 0.054,-0.1785 0,-0.2335 -0.053,-0.055 -0.1732,0.055 -0.2266,0 -0.053,-0.055 0.054,-0.1785 0,-0.2336 -0.053,-0.055 -0.1591,0.035 -0.2267,0 -0.095,-0.049 -0.1309,-0.1843 -0.2267,-0.2336 -0.067,-0.035 -0.1592,0.035 -0.2267,0 -0.095,-0.049 -0.131,-0.1843 -0.2268,-0.2335 -0.067,-0.035 -0.1731,0.055 -0.2267,0 -0.053,-0.055 0,-0.1557 0,-0.2336 -0.151,-0.078 -0.2931,-0.1785 -0.4533,-0.2335 -0.071,-0.025 -0.1733,0.055 -0.2267,0 -0.054,-0.055 0.054,-0.1785 0,-0.2336 -0.054,-0.055 -0.1591,0.035 -0.2267,0 -0.1912,-0.098 -0.2622,-0.3686 -0.4533,-0.4671 -0.067,-0.035 -0.1734,0.055 -0.2268,0 -0.053,-0.055 -0.076,-0.2336 0,-0.2336 0.076,0 0,0.1557 0,0.2336 0,0.5477 0.054,-0.1101 -0.2267,0.4671 -0.034,0.07 0.054,0.1785 0,0.2336 -0.054,0.055 -0.1733,-0.055 -0.2267,0 -0.054,0.055 0.053,0.1785 0,0.2335 -0.054,0.055 -0.1732,-0.055 -0.2267,0 -0.054,0.055 0.034,0.164 0,0.2336 -0.095,0.1969 -0.3578,0.2702 -0.4533,0.4671 -0.034,0.07 0.053,0.1785 0,0.2336 -0.054,0.055 -0.1592,-0.035 -0.2268,0 -0.1056,0.054 -0.7734,0.7968 -0.9067,0.9342 -0.076,0.078 -0.1512,0.1557 -0.2267,0.2336 -0.076,0.078 -0.179,0.135 -0.2268,0.2335 -0.034,0.07 0.054,0.1785 0,0.2336 -0.054,0.055 -0.1733,-0.055 -0.2267,0 -0.054,0.055 0.054,0.1785 0,0.2335 -0.054,0.055 -0.1732,-0.055 -0.2267,0 -0.1071,0.1101 0.1071,0.3571 0,0.4672 -0.054,0.055 -0.1732,-0.055 -0.2266,0 -0.054,0.055 0,0.1557 0,0.2335 -0.076,0 -0.1592,-0.035 -0.2267,0 -0.095,0.049 -0.1309,0.1843 -0.2268,0.2336 -0.067,0.035 -0.1733,-0.055 -0.2267,0 -0.053,0.055 0.054,0.1785 0,0.2335 -0.053,0.055 -0.1511,0 -0.2267,0 -0.076,0 -0.3022,0 -0.2266,0 0.151,0 0.6045,0 0.4533,0 -0.2267,0 -0.4533,0 -0.6800003,0 -0.076,0 -0.1512,0 -0.2267,0 -0.076,0 -0.1733,0.055 -0.2268,0 -0.053,-0.055 0.054,-0.1785 0,-0.2335 -0.053,-0.055 -0.159,0.035 -0.2267,0 -0.4713,0.05 -0.092,-0.3627 -0.2266,-0.4671 -0.2704,-0.2089 -0.6046,-0.3115 -0.9069,-0.4672 z"
       style="fill:#ffffff;fill-opacity:1;fill-rule:evenodd;stroke:#000000;stroke-width:1.51004827px;stroke-linecap:butt;stroke-linejoin:miter;stroke-opacity:1" />
  </g>
</svg>
