<?xml version="1.0" encoding="UTF-8" standalone="no"?>
<!-- Created with Inkscape (http://www.inkscape.org/) -->

<svg
   xmlns:dc="http://purl.org/dc/elements/1.1/"
   xmlns:cc="http://creativecommons.org/ns#"
   xmlns:rdf="http://www.w3.org/1999/02/22-rdf-syntax-ns#"
   xmlns:svg="http://www.w3.org/2000/svg"
   xmlns="http://www.w3.org/2000/svg"
   xmlns:xlink="http://www.w3.org/1999/xlink"
   xmlns:sodipodi="http://sodipodi.sourceforge.net/DTD/sodipodi-0.dtd"
   xmlns:inkscape="http://www.inkscape.org/namespaces/inkscape"
   width="60"
   height="60"
   viewBox="0 0 60.000001 60.000001"
   id="svg5429"
   version="1.1"
   inkscape:version="0.91 r13725"
   sodipodi:docname="life.svg"
   inkscape:export-filename="/Users/zukkun/project/mikangame/life.png"
   inkscape:export-xdpi="90"
   inkscape:export-ydpi="90">
  <defs
     id="defs5431">
    <linearGradient
       inkscape:collect="always"
       id="linearGradient7506">
      <stop
         style="stop-color:#ffbdd5;stop-opacity:1"
         offset="0"
         id="stop7508" />
      <stop
         style="stop-color:#ff00b4;stop-opacity:1"
         offset="1"
         id="stop7510" />
    </linearGradient>
    <radialGradient
       inkscape:collect="always"
       xlink:href="#linearGradient7506"
       id="radialGradient7512"
       cx="19.923262"
       cy="1017.1807"
       fx="19.923262"
       fy="1017.1807"
       r="25.245418"
       gradientTransform="matrix(1,0,0,0.99167109,0,8.5171219)"
       gradientUnits="userSpaceOnUse" />
  </defs>
  <sodipodi:namedview
     id="base"
     pagecolor="#ffffff"
     bordercolor="#666666"
     borderopacity="1.0"
     inkscape:pageopacity="0.0"
     inkscape:pageshadow="2"
     inkscape:zoom="4.4680851"
     inkscape:cx="-3.9595238"
     inkscape:cy="24.285714"
     inkscape:document-units="px"
     inkscape:current-layer="layer1"
     showgrid="false"
     units="px"
     inkscape:window-width="1440"
     inkscape:window-height="801"
     inkscape:window-x="0"
     inkscape:window-y="0"
     inkscape:window-maximized="1" />
  <metadata
     id="metadata5434">
    <rdf:RDF>
      <cc:Work
         rdf:about="">
        <dc:format>image/svg+xml</dc:format>
        <dc:type
           rdf:resource="http://purl.org/dc/dcmitype/StillImage" />
        <dc:title></dc:title>
      </cc:Work>
    </rdf:RDF>
  </metadata>
  <g
     inkscape:label="Layer 1"
     inkscape:groupmode="layer"
     id="layer1"
     transform="translate(0,-992.36216)">
    <path
       style="fill-rule:evenodd;stroke:#ff0301;stroke-width:3;stroke-linecap:butt;stroke-linejoin:miter;stroke-opacity:1;stroke-miterlimit:4;stroke-dasharray:none;fill-opacity:1;fill:url(#radialGradient7512)"
       d="m 29.319048,1046.0955 c -0.425632,-0.085 -1.331672,-0.2182 -1.790477,-0.4476 -0.240588,-0.1203 -0.447619,-0.2984 -0.671428,-0.4476 -0.447619,-0.2985 -0.881551,-0.6185 -1.342857,-0.8953 -0.524873,-0.3149 -0.478521,-0.1914 -1.119048,-0.4476 -0.511598,-0.2046 -0.593592,-0.3562 -1.119048,-0.6714 -0.143045,-0.086 -0.314164,-0.1237 -0.447619,-0.2238 -0.168807,-0.1266 -0.282848,-0.3158 -0.447619,-0.4477 -0.210042,-0.168 -0.481227,-0.2574 -0.671428,-0.4476 -0.190202,-0.1902 -0.257418,-0.4812 -0.447619,-0.6714 -0.263762,-0.2638 -0.631476,-0.4077 -0.895238,-0.6714 -0.190202,-0.1902 -0.279585,-0.4614 -0.447619,-0.6715 -0.131817,-0.1647 -0.330572,-0.272 -0.447619,-0.4476 -0.185068,-0.2776 -0.262552,-0.6176 -0.447619,-0.8952 -0.117048,-0.1756 -0.315803,-0.2829 -0.44762,-0.4476 -0.168033,-0.2101 -0.298412,-0.4477 -0.447619,-0.6715 -0.298412,-0.4476 -0.596825,-0.8952 -0.895238,-1.3428 -0.149206,-0.2238 -0.279585,-0.4614 -0.447619,-0.6715 -0.131816,-0.1647 -0.315802,-0.2828 -0.447619,-0.4476 -1.169656,-1.462 0.155936,0.1051 -0.671428,-1.3428 -0.185068,-0.3239 -0.464517,-0.5849 -0.671429,-0.8953 -0.277601,-0.4164 -0.423134,-0.9083 -0.671428,-1.3428 -0.08938,-0.5406 -0.630262,-0.7216 -0.895239,-1.1191 -0.185067,-0.2776 -0.262551,-0.6176 -0.447619,-0.8952 -0.117047,-0.1756 -0.339055,-0.2667 -0.447619,-0.4476 -0.121377,-0.2023 -0.102431,-0.4692 -0.223809,-0.6715 -0.108564,-0.1809 -0.330572,-0.272 -0.447619,-0.4476 -0.04138,-0.062 0.04138,-0.1617 0,-0.2238 -0.117047,-0.1756 -0.321014,-0.2788 -0.447619,-0.4476 -0.200182,-0.2669 -0.247438,-0.6283 -0.447619,-0.8952 -0.126606,-0.1689 -0.321014,-0.2789 -0.447619,-0.4477 -0.100091,-0.1334 -0.137983,-0.3045 -0.22381,-0.4476 -0.138392,-0.2306 -0.3273249,-0.4308 -0.447619,-0.6714 -0.1055048,-0.211 -0.1183047,-0.4604 -0.2238095,-0.6714 -0.240588,-0.4812 -0.6546501,-0.8617 -0.8952381,-1.3429 -0.1055048,-0.211 -0.1024317,-0.4691 -0.2238095,-0.6714 -0.1085636,-0.181 -0.3158024,-0.2829 -0.447619,-0.4476 -0.168034,-0.2101 -0.2795851,-0.4614 -0.4476191,-0.6715 -0.1318167,-0.1647 -0.3210133,-0.2788 -0.447619,-0.4476 -0.06607,-0.088 -0.6469402,-1.2449 -0.6714286,-1.3429 -0.072376,-0.2895 0.094366,-0.6121 0,-0.8952 -0.033364,-0.1001 -0.190446,-0.1237 -0.2238095,-0.2238 -0.027357,-0.082 0,-1.3045 0,-1.3429 0,-1.0444 0,-2.0888 0,-3.1333 0,-0.8206 0,-1.6413 0,-2.4619 0,-0.1643 -0.039013,-1.2648 0,-1.3429 0.047183,-0.094 0.1652859,-0.136 0.2238095,-0.2238 0.4446731,-0.016 0.139957,-0.5037 0.2238095,-0.6714 0.047183,-0.094 0.165286,-0.136 0.2238095,-0.2238 0.092534,-0.1388 0.1237189,-0.3142 0.2238096,-0.4476 0.36,-0.48 0.5352381,-0.4153 0.8952381,-0.8953 0.1000906,-0.1334 0.1237188,-0.3141 0.2238095,-0.4476 0.2532116,-0.3376 0.6781109,-0.5333 0.8952381,-0.8952 0.1311046,-0.2185 0.2211586,-0.8926 0.447619,-1.1191 0.1902015,-0.1902 0.4812275,-0.2574 0.6714285,-0.4476 0.117958,-0.1179 0.131276,-0.3088 0.22381,-0.4476 0.117047,-0.1756 0.298412,-0.2984 0.447619,-0.4476 0.298412,-0.2984 0.596825,-0.5968 0.895238,-0.8953 0.223809,-0.2238 0.447619,-0.4476 0.671428,-0.6714 0.0746,-0.075 0.129443,-0.1766 0.22381,-0.2238 0.06673,-0.033 0.157082,0.033 0.223809,0 0.09437,-0.047 0.136025,-0.1653 0.22381,-0.2238 0.138801,-0.093 0.308818,-0.1313 0.447619,-0.2238 0.08779,-0.059 0.123719,-0.1905 0.223809,-0.2238 0.14155,-0.047 0.298413,0 0.44762,0 0.223809,0 0.454301,0.054 0.671428,0 0.102355,-0.026 0.123719,-0.1905 0.22381,-0.2238 0.283099,-0.094 0.605735,0.072 0.895238,0 0.323674,-0.081 0.571564,-0.3667 0.895238,-0.4476 0.144751,-0.036 0.298413,0 0.447619,0 0.0746,0 0.157082,0.033 0.223809,0 0.09437,-0.047 0.123719,-0.1905 0.22381,-0.2239 0.141549,-0.047 0.298413,0 0.447619,0 0.149206,0 0.298413,0 0.447619,0 0.522222,0 1.044444,0 1.566667,0 0.228498,0 1.457933,-0.036 1.566666,0 0.100091,0.033 0.149207,0.1492 0.22381,0.2239 0.149206,0.1492 0.272048,0.3305 0.447619,0.4476 0.06207,0.041 0.153035,-0.024 0.223809,0 0.158258,0.053 0.308819,0.1312 0.447619,0.2238 0.08779,0.059 0.149207,0.1492 0.22381,0.2238 0.22381,0.2238 0.447619,0.4476 0.671429,0.6714 0.0746,0.075 0.136024,0.1653 0.223809,0.2238 0.138801,0.093 0.308818,0.1313 0.447619,0.2238 0.08779,0.059 0.149206,0.1492 0.22381,0.2238 0.0746,0.075 0.176626,0.1295 0.223809,0.2239 0.03336,0.067 -0.02359,0.153 0,0.2238 0.135497,0.4065 0.191547,0.4153 0.447619,0.6714 0.0746,0.075 0.176627,0.1294 0.22381,0.2238 0.03336,0.067 -0.03336,0.1571 0,0.2238 0.247427,0.4949 0.138906,0.069 0.447619,0.2238 0.119533,0.06 0.553601,0.5536 0.671428,0.6715 0.513159,0.5131 -0.09437,-0.1416 0.447619,0.6714 0.117048,0.1756 0.353253,0.2589 0.447619,0.4476 0.03336,0.067 0,0.1492 0,0.2238 0.0746,0.1492 0.131276,0.3088 0.22381,0.4476 0.05852,0.088 0.176626,0.1295 0.22381,0.2238 0.03336,0.067 -0.02359,0.1531 0,0.2238 0.05275,0.1583 0.171057,0.2894 0.223809,0.4477 0.02359,0.071 -0.03336,0.157 0,0.2238 0.04718,0.094 0.176626,0.1294 0.22381,0.2238 0.03336,0.067 -0.03336,0.1571 0,0.2238 0.09437,0.1887 0.353252,0.2589 0.447619,0.4476 0.03336,0.067 -0.05275,0.1711 0,0.2238 0.05275,0.053 0.171057,-0.053 0.223809,0 0.05275,0.053 -0.06673,0.2572 0,0.2238 0.188733,-0.094 0.312534,-0.2855 0.447619,-0.4476 0.238799,-0.2865 0.454618,-0.5917 0.671429,-0.8952 0.156344,-0.2189 0.275418,-0.4648 0.447619,-0.6715 0.202627,-0.2431 0.468801,-0.4282 0.671428,-0.6714 0.172201,-0.2066 0.275419,-0.4648 0.447619,-0.6714 0.337713,-0.4053 0.746032,-0.746 1.119048,-1.1191 0.149206,-0.1492 0.315802,-0.2828 0.447619,-0.4476 0.168034,-0.21 0.257418,-0.4812 0.447619,-0.6714 0.263762,-0.2638 0.652483,-0.3882 0.895238,-0.6714 0.217127,-0.2533 0.262552,-0.6177 0.447619,-0.8953 0.117047,-0.1755 0.298413,-0.2984 0.447619,-0.4476 0.149207,-0.1492 0.298413,-0.2984 0.447619,-0.4476 0.149207,-0.1492 0.272049,-0.3306 0.447619,-0.4476 0.277602,-0.1851 0.617637,-0.2626 0.895239,-0.4476 0.08778,-0.059 0.129443,-0.1767 0.223809,-0.2239 0.06673,-0.033 0.153035,0.024 0.22381,0 0.158257,-0.053 0.289361,-0.171 0.447619,-0.22377 0.07077,-0.0236 0.153034,0.0236 0.223809,0 0.158257,-0.0527 0.285782,-0.18335 0.447619,-0.22381 0.144752,-0.0362 0.30131,0.0293 0.447619,0 0.231335,-0.0463 0.438723,-0.18502 0.671429,-0.22381 0.220764,-0.0368 0.451965,0.0439 0.671428,0 0.163579,-0.0327 0.283071,-0.19638 0.447619,-0.22381 0.294353,-0.0491 0.599825,0.0422 0.895239,0 0.233544,-0.0334 0.440093,-0.17754 0.671428,-0.22381 0.146309,-0.0293 0.298413,0 0.447619,0 0.447619,0 0.895238,0 1.342857,0 0.447619,0 0.895238,0 1.342857,0 0.22381,0 0.451966,-0.0439 0.671429,0 0.231335,0.0463 0.452386,0.1362 0.671429,0.22381 0.543671,0.21747 1.102734,0.54729 1.566666,0.8952 0.0844,0.063 0.139406,0.1605 0.22381,0.2239 0.215188,0.1613 0.43084,0.3273 0.671428,0.4476 0.21101,0.1055 0.482696,0.082 0.671429,0.2238 0.133454,0.1001 0.105851,0.3296 0.223809,0.4476 0.117958,0.118 0.329661,0.1058 0.447619,0.2238 0.235916,0.2359 0.247438,0.6283 0.44762,0.8952 0.126605,0.1689 0.321013,0.2789 0.447619,0.4477 0.293338,0.3911 0.221935,0.6676 0.447619,1.119 0.09437,0.1887 0.330572,0.2721 0.447619,0.4476 0.09253,0.1388 0.131275,0.3088 0.223809,0.4477 0.05852,0.088 0.190446,0.1237 0.22381,0.2238 0.04113,0.1233 0,1.1529 0,1.3428 0,0.746 0,1.4921 0,2.2381 0,0.8206 0,1.6413 0,2.4619 0,0.2238 0,0.4476 0,0.6714 0,0.2985 0.0422,0.5999 0,0.8953 -0.03336,0.2335 -0.185025,0.4387 -0.22381,0.6714 -0.03679,0.2208 0.04389,0.452 0,0.6714 -0.06632,0.3317 -0.58382,0.9925 -0.671428,1.3429 -0.03619,0.1447 0.04718,0.3061 0,0.4476 -0.105505,0.3165 -0.330472,0.5829 -0.447619,0.8953 -0.108005,0.288 -0.126539,0.6034 -0.22381,0.8952 -0.05275,0.1583 -0.161855,0.2927 -0.223809,0.4476 -0.08762,0.2191 -0.118305,0.4604 -0.22381,0.6714 -0.592028,1.1841 -0.294085,0.188 -1.119048,1.3429 -0.193921,0.2715 -0.282089,0.6056 -0.447619,0.8952 -0.133454,0.2336 -0.291274,0.4526 -0.447619,0.6715 -0.0089,0.012 -1.341429,1.7879 -1.342857,1.7904 -0.117047,0.2049 -0.118305,0.4605 -0.223809,0.6715 -0.255379,0.5107 -0.503935,0.6165 -0.671429,1.119 -0.09727,0.2918 -0.126539,0.6034 -0.223809,0.8953 -0.05275,0.1582 -0.149207,0.2984 -0.22381,0.4476 -0.22381,0.4476 -0.513171,0.8681 -0.671429,1.3428 -0.04718,0.1416 0.02926,0.3013 0,0.4477 -0.04627,0.2313 -0.166591,0.4425 -0.223809,0.6714 -0.01809,0.072 0.02359,0.153 0,0.2238 -0.540382,1.6211 0.06452,-0.3529 -0.447619,0.6714 -0.03336,0.067 0.03336,0.1571 0,0.2238 -0.04718,0.094 -0.176626,0.1295 -0.22381,0.2238 -0.03336,0.067 0.03336,0.1571 0,0.2238 -0.04718,0.094 -0.165286,0.1361 -0.223809,0.2239 -1.799157,2.6987 0.519581,-0.37 -1.566667,2.0142 -0.814901,0.9314 -0.72312,1.1536 -1.566667,2.2381 -0.194321,0.2499 -0.487458,0.4139 -0.671428,0.6715 -0.193922,0.2715 -0.28209,0.6055 -0.447619,0.8952 -0.133454,0.2335 -0.309227,0.4408 -0.447619,0.6714 -0.08583,0.1431 -0.137983,0.3046 -0.22381,0.4477 -0.138392,0.2306 -0.327325,0.4308 -0.447619,0.6714 -0.105505,0.211 -0.136192,0.4524 -0.223809,0.6714 -0.123909,0.3098 -0.298413,0.5968 -0.447619,0.8952 -0.0746,0.1493 -0.131276,0.3089 -0.22381,0.4477 -0.07981,0.1197 -0.873163,0.8786 -0.895238,0.8952 -0.133454,0.1001 -0.308818,0.1313 -0.447619,0.2238 -0.08779,0.058 -0.129443,0.1766 -0.22381,0.2238 -0.06673,0.033 -0.171057,-0.053 -0.223809,0 -0.46307,0.4631 0.707632,-0.018 -0.22381,0.4476 -0.06673,0.033 -0.157082,-0.033 -0.223809,0 -0.188733,0.094 -0.272049,0.3306 -0.447619,0.4477 -0.138801,0.092 -0.308818,0.1312 -0.447619,0.2238 -0.175571,0.117 -0.258886,0.3532 -0.447619,0.4476 -0.06673,0.033 -0.157083,-0.033 -0.22381,0 -0.09437,0.047 -0.149206,0.1492 -0.223809,0.2238 -0.131633,0.1316 -0.791597,0.8434 -0.895238,0.8952 -0.06673,0.033 -0.157083,-0.033 -0.22381,0 -0.09437,0.047 -0.129443,0.1767 -0.223809,0.2238 -0.133455,0.067 -0.342115,-0.1055 -0.447619,0 -0.05275,0.053 0.05275,0.1711 0,0.2239 -0.105505,0.1055 -0.314165,-0.067 -0.44762,0 -0.09437,0.047 -0.129443,0.1766 -0.223809,0.2238 -0.121414,0.061 -0.833999,-0.061 -0.895238,0 -0.05275,0.053 0.05275,0.171 0,0.2238 -0.05386,0.054 -0.841383,-0.054 -0.895238,0 -0.05275,0.053 0.05275,0.171 0,0.2238 -0.02159,0.022 -0.357062,-0.018 -0.447619,0 -0.301624,0.06 -0.596826,0.1492 -0.895238,0.2238 z"
       id="path5437"
       inkscape:connector-curvature="0" />
  </g>
</svg>
