<?xml version="1.0" encoding="UTF-8" standalone="no"?>
<!-- Created with Inkscape (http://www.inkscape.org/) -->

<svg
   xmlns:dc="http://purl.org/dc/elements/1.1/"
   xmlns:cc="http://creativecommons.org/ns#"
   xmlns:rdf="http://www.w3.org/1999/02/22-rdf-syntax-ns#"
   xmlns:svg="http://www.w3.org/2000/svg"
   xmlns="http://www.w3.org/2000/svg"
   xmlns:xlink="http://www.w3.org/1999/xlink"
   xmlns:sodipodi="http://sodipodi.sourceforge.net/DTD/sodipodi-0.dtd"
   xmlns:inkscape="http://www.inkscape.org/namespaces/inkscape"
   width="70"
   height="70"
   viewBox="0 0 70.000001 70.000001"
   id="svg4832"
   version="1.1"
   inkscape:version="0.91 r13725"
   sodipodi:docname="mikan.svg"
   inkscape:export-filename="/Users/zukkun/project/mikangame/mikan.png"
   inkscape:export-xdpi="90"
   inkscape:export-ydpi="90">
  <defs
     id="defs4834">
    <linearGradient
       inkscape:collect="always"
       id="linearGradient8073">
      <stop
         style="stop-color:#ffe5d3;stop-opacity:1"
         offset="0"
         id="stop8075" />
      <stop
         style="stop-color:#ff7f2a;stop-opacity:1"
         offset="1"
         id="stop8077" />
    </linearGradient>
    <radialGradient
       inkscape:collect="always"
       xlink:href="#linearGradient8073"
       id="radialGradient8079"
       cx="1.5799906"
       cy="995.31018"
       fx="1.5799906"
       fy="995.31018"
       r="28.864338"
       gradientTransform="matrix(0.41025681,-0.03817082,0.04323754,0.46471353,-24.152158,546.95077)"
       gradientUnits="userSpaceOnUse" />
  </defs>
  <sodipodi:namedview
     id="base"
     pagecolor="#ffffff"
     bordercolor="#666666"
     borderopacity="1.0"
     inkscape:pageopacity="0.0"
     inkscape:pageshadow="2"
     inkscape:zoom="5.1219512"
     inkscape:cx="47.197619"
     inkscape:cy="27.142857"
     inkscape:document-units="px"
     inkscape:current-layer="layer1"
     showgrid="false"
     units="px"
     inkscape:window-width="1440"
     inkscape:window-height="801"
     inkscape:window-x="0"
     inkscape:window-y="0"
     inkscape:window-maximized="1" />
  <metadata
     id="metadata4837">
    <rdf:RDF>
      <cc:Work
         rdf:about="">
        <dc:format>image/svg+xml</dc:format>
        <dc:type
           rdf:resource="http://purl.org/dc/dcmitype/StillImage" />
        <dc:title />
      </cc:Work>
    </rdf:RDF>
  </metadata>
  <g
     inkscape:label="Layer 1"
     inkscape:groupmode="layer"
     id="layer1"
     transform="translate(0,-982.36216)">
    <path
       style="fill:url(#radialGradient8079);fill-rule:evenodd;stroke:#000000;stroke-width:3;stroke-linecap:butt;stroke-linejoin:miter;stroke-opacity:1;stroke-miterlimit:4.30000019;stroke-dasharray:none;fill-opacity:1"
       d="m 31.042857,1045.9193 c -1.561905,0 -3.123809,0 -4.685714,0 -0.325397,0 -0.652784,0.036 -0.976191,0 -0.266688,-0.03 -0.514695,-0.162 -0.780952,-0.1952 -0.258307,-0.032 -0.528407,0.063 -0.780952,0 -0.564708,-0.1412 -0.997197,-0.6398 -1.561905,-0.781 -0.252545,-0.063 -0.522645,0.032 -0.780953,0 -1.49132,-0.1864 -0.07671,-0.1614 -1.561904,-0.5857 -0.187726,-0.054 -0.400495,0.062 -0.585715,0 -0.222605,-0.074 -0.384506,-0.2698 -0.585714,-0.3905 -0.124784,-0.075 -0.269395,-0.1145 -0.390476,-0.1952 -0.681122,-0.4541 -1.18415,-0.9889 -1.757143,-1.5619 -0.195238,-0.1953 -0.376077,-0.406 -0.585714,-0.5857 -0.24706,-0.2118 -0.550862,-0.3557 -0.780953,-0.5857 -0.737438,-0.7375 -0.460676,-0.7371 -0.97619,-1.562 -0.17246,-0.2759 -0.396581,-0.5161 -0.585714,-0.7809 -0.136386,-0.1909 -0.260318,-0.3905 -0.390477,-0.5857 -0.130158,-0.1953 -0.298044,-0.3701 -0.390476,-0.5857 -0.1057,-0.2467 -0.101021,-0.5297 -0.195238,-0.781 -0.102192,-0.2725 -0.288284,-0.5084 -0.390476,-0.7809 -0.187664,-0.5005 -0.154476,-0.8947 -0.390476,-1.3667 -0.104938,-0.2099 -0.298044,-0.37 -0.390476,-0.5857 -0.1057,-0.2467 -0.07524,-0.541 -0.195238,-0.781 -0.145522,-0.291 -0.474513,-0.4751 -0.585715,-0.7809 -0.157263,-0.4325 -0.08363,-0.9203 -0.195238,-1.3667 -0.165356,-0.6614 -0.510461,-1.1485 -0.7809522,-1.7571 -0.1423366,-0.3203 -0.2337444,-0.6628 -0.3904762,-0.9762 -0.1697062,-0.3394 -0.4014251,-0.6445 -0.5857143,-0.9762 -0.1413434,-0.2544 -0.2491329,-0.5266 -0.3904762,-0.781 -0.6113901,-1.1005 -0.5875947,-0.7866 -0.9761905,-1.9523 -0.1972155,-0.5917 -0.3453093,-1.6057 -0.3904762,-2.1477 -0.051054,-0.6126 0,-1.3288 0,-1.9523 0,-0.2604 0.025903,-0.522 0,-0.781 -0.03939,-0.3939 -0.1623635,-0.7769 -0.1952381,-1.1714 -0.2589277,-3.1072 0.3963563,1.112 -0.1952381,-2.7334 -0.050459,-0.3279 -0.1622186,-0.646 -0.1952381,-0.9762 -0.032378,-0.3237 0,-0.6507 0,-0.9761 0,-0.5858 0,-1.1715 0,-1.7572 0,-0.7159 0,-1.4317 0,-2.1476 0,-0.1952 -0.032097,-0.3931 0,-0.5857 0.033833,-0.203 0.1661338,-0.382 0.1952381,-0.5857 0.1518519,-1.063 -0.1138889,-0.4556 0,-1.3667 0.04116,-0.3293 0.1301588,-0.6508 0.1952381,-0.9762 0.065079,-0.3254 0.1147549,-0.6543 0.1952381,-0.9762 0.1149098,-0.4596 0.2755665,-0.907 0.3904762,-1.3666 0.080483,-0.322 0.107925,-0.6561 0.1952381,-0.9762 0.1093453,-0.401 0.5713519,-1.7285 0.7809524,-2.1477 0.1697062,-0.3394 0.3904762,-0.6508 0.5857143,-0.9761 0.1952381,-0.32545 0.3845931,-0.65445 0.5857143,-0.97624 0.1243626,-0.19898 0.2245557,-0.41979 0.3904762,-0.58571 0.2300901,-0.2301 0.5508621,-0.35563 0.7809521,-0.58572 0.165921,-0.16592 0.243894,-0.40248 0.390476,-0.58571 0.114989,-0.14374 0.260318,-0.26032 0.390477,-0.39048 0.556396,-0.5564 0.237318,-0.28837 0.97619,-0.78095 0.195238,-0.13016 0.37584,-0.28554 0.585714,-0.39048 1.37929,-0.68964 0.590341,-0.161 2.147619,-0.58571 0.338115,-0.0922 0.638077,-0.29826 0.976191,-0.39048 0.381914,-0.10416 0.787386,-0.0992 1.171428,-0.19524 0.399309,-0.0998 0.775668,-0.2774 1.171429,-0.39047 2.031798,-0.58052 0.969222,-0.23289 2.733333,-0.58572 0.588351,-0.11767 1.165305,-0.29183 1.757143,-0.39047 0.581301,-0.0969 1.171429,-0.13016 1.757143,-0.19524 0.585714,-0.0651 1.168732,-0.16255 1.757143,-0.19524 0.584812,-0.0325 1.171429,0 1.757143,0 0.715873,0 1.431746,0 2.147619,0 1.208958,0 3.099007,-0.0648 4.295238,0.19524 0.804408,0.17487 1.561905,0.52063 2.342857,0.78095 0.585714,0.19524 1.164834,0.41151 1.757143,0.58572 0.514851,0.15142 1.052786,0.22077 1.561905,0.39047 0.470195,0.15673 0.904073,0.4078 1.366666,0.58572 0.384164,0.14775 0.787266,0.24272 1.171429,0.39047 0.462594,0.17792 0.899911,0.41902 1.366667,0.58572 0.446183,0.15935 0.9429,0.17859 1.366666,0.39047 0.500731,0.25037 0.906376,0.65753 1.366667,0.97619 0.38585,0.26713 0.791894,0.50493 1.171429,0.78096 0.40121,0.29178 1.841526,1.49814 2.147619,1.75715 0.458033,0.3876 0.942401,0.7472 1.366666,1.1714 0.424266,0.4243 0.791485,0.9023 1.171429,1.3667 0.344577,0.4211 0.965034,1.2755 1.171428,1.7571 0.582349,1.3588 -1.122043,-1.0405 0.390477,0.9762 0.250026,0.3334 0.520634,0.6508 0.780952,0.9762 0.455556,0.5206 0.946431,1.0124 1.366667,1.5619 0.427609,0.5592 0.780952,1.1714 1.171428,1.7572 0.390476,0.5857 0.814517,1.1503 1.171429,1.7571 0.221623,0.3768 0.995896,1.9237 1.171428,2.5381 0.403272,1.4114 0.540928,2.8551 0.780953,4.2952 0.05455,0.3274 0.162218,0.646 0.195238,0.9762 0.03238,0.3238 0,0.6508 0,0.9762 0,0.6508 0,1.3016 0,1.9524 0,0.3905 0.06419,0.7863 0,1.1714 -0.06767,0.406 -0.269431,0.7781 -0.390476,1.1715 -0.796812,2.5896 0.08531,0.2027 -0.976191,2.538 -0.145023,0.3191 -0.248139,0.656 -0.390476,0.9762 -0.118204,0.266 -0.29844,0.5049 -0.390476,0.781 -0.104938,0.3148 -0.09989,0.6583 -0.195238,0.9762 -0.186963,0.6232 -0.492518,1.1803 -0.780953,1.7571 -0.130158,0.2603 -0.236223,0.5342 -0.390476,0.781 -1.785998,2.8576 0.752438,-1.4654 -1.366667,1.5619 -0.250354,0.3576 -0.354335,0.8012 -0.585714,1.1714 -0.09756,0.1561 -0.260317,0.2603 -0.390476,0.3905 -0.195238,0.1952 -0.390476,0.3905 -0.585714,0.5857 -0.130159,0.1302 -0.232636,0.2958 -0.390477,0.3905 -0.176471,0.1059 -0.394634,0.1188 -0.585714,0.1952 -0.135113,0.054 -0.255362,0.1412 -0.390476,0.1953 -0.585142,0.234 -0.71871,0.2053 -1.366667,0.3904 -0.19788,0.057 -0.387833,0.1387 -0.585714,0.1953 -0.01767,0 -1.558339,0.3889 -1.561905,0.3904 -0.215674,0.092 -0.390476,0.2604 -0.585714,0.3905 -0.325397,0.065 -0.661379,0.09 -0.97619,0.1953 -0.276109,0.092 -0.520635,0.2603 -0.780953,0.3904 -0.260317,0.1302 -0.520635,0.2603 -0.780952,0.3905 -0.260318,0.1302 -0.50844,0.2883 -0.780953,0.3905 -1.509819,0.5662 -0.05664,-0.2506 -1.561904,0.5857 -0.765525,-0.084 -0.886613,0.6882 -1.366667,0.9762 -0.176471,0.1059 -0.394635,0.1188 -0.585714,0.1952 -0.135114,0.054 -0.260318,0.1302 -0.390477,0.1953 -0.260317,0.1301 -0.538789,0.229 -0.780952,0.3904 -0.07658,0.051 -0.107925,0.1662 -0.195238,0.1953 -0.123479,0.041 -0.266997,-0.041 -0.390476,0 -0.08731,0.029 -0.11866,0.1442 -0.195238,0.1952 -0.121082,0.081 -0.265692,0.1204 -0.390476,0.1953 -0.149969,0.09 -0.72117,0.5219 -0.976191,0.5857 -0.893528,0.2234 0.203001,-0.3944 -0.97619,0.1952 -0.209875,0.1049 -0.384507,0.2698 -0.585715,0.3905 -0.124784,0.075 -0.260317,0.1301 -0.390476,0.1952 -0.165688,0.083 -1.081736,0.496 -1.171428,0.5857 -0.1029,0.1029 -0.09234,0.2876 -0.195239,0.3905 -0.134551,0.1346 -0.956688,0.4426 -1.171428,0.5857 -0.318865,0.2126 -0.08015,0.2894 -0.585714,0.3905 -0.258708,0.052 -0.682989,0 -0.976191,0 -0.650794,0 -1.301587,0 -1.952381,0 z"
       id="path4840"
       inkscape:connector-curvature="0" />
    <path
       style="fill:none;fill-rule:evenodd;stroke:#000000;stroke-width:3;stroke-linecap:butt;stroke-linejoin:miter;stroke-opacity:1;stroke-miterlimit:4.30000019;stroke-dasharray:none"
       d="m 14.447619,1002.9669 c 0.740731,0 0.855527,-0.1455 1.366667,0.1953 0.07658,0.051 0.112918,0.154 0.195238,0.1952 0.116417,0.058 0.390476,-0.1302 0.390476,0 0,0.065 -0.130159,0 -0.195238,0"
       id="path4842"
       inkscape:connector-curvature="0" />
    <path
       style="fill:none;fill-rule:evenodd;stroke:#000000;stroke-width:3;stroke-linecap:butt;stroke-linejoin:miter;stroke-opacity:1;stroke-miterlimit:4.30000019;stroke-dasharray:none"
       d="m 16.204762,1013.9003 c 1.147097,0.4588 0.728376,0.1426 1.366667,0.7809 0.06508,0.065 0.112918,0.1541 0.195238,0.1952 0.260317,0.1302 0.195238,-0.1952 0.195238,0.1953"
       id="path4844"
       inkscape:connector-curvature="0" />
    <path
       style="fill:none;fill-rule:evenodd;stroke:#000000;stroke-width:3;stroke-linecap:butt;stroke-linejoin:miter;stroke-opacity:1;stroke-miterlimit:4.30000019;stroke-dasharray:none"
       d="m 28.114286,1005.505 c 0.945591,0.4728 0.575153,0.1847 1.171428,0.781 0.06508,0.065 0.112919,0.154 0.195238,0.1952 0.05821,0.029 0.130159,0 0.195238,0"
       id="path4846"
       inkscape:connector-curvature="0" />
    <path
       style="fill:none;fill-rule:evenodd;stroke:#000000;stroke-width:3;stroke-linecap:butt;stroke-linejoin:miter;stroke-opacity:1;stroke-miterlimit:4.30000019;stroke-dasharray:none"
       d="m 44.514286,1005.8955 c 0.36303,0.168 0.434227,0.745 0.780952,0.9762 0.121082,0.081 0.287577,0.092 0.390476,0.1952 0.04602,0.046 -0.04602,0.1492 0,0.1953 0.260318,0.2603 0.195238,-0.3254 0.195238,0.1952"
       id="path4848"
       inkscape:connector-curvature="0" />
    <path
       style="fill:none;fill-rule:evenodd;stroke:#000000;stroke-width:3;stroke-linecap:butt;stroke-linejoin:miter;stroke-opacity:1;stroke-miterlimit:4.30000019;stroke-dasharray:none"
       d="m 50.371429,1012.7288 c 0.195238,0.3254 0.390476,0.6508 0.585714,0.9762 0.130159,0.065 0.287577,0.092 0.390476,0.1953 0.1029,0.1029 0.114517,0.2694 0.195238,0.3904 0.05105,0.077 0.130159,0.1302 0.195238,0.1953"
       id="path4850"
       inkscape:connector-curvature="0" />
    <path
       style="fill:none;fill-rule:evenodd;stroke:#000000;stroke-width:3;stroke-linecap:butt;stroke-linejoin:miter;stroke-opacity:1;stroke-miterlimit:4.30000019;stroke-dasharray:none"
       d="m 32.214286,1012.3383 c 0,0.9168 -0.144398,0.6536 0.390476,1.3667 0.05522,0.074 0.161057,0.1098 0.195238,0.1953 0.09966,0.2491 0.09558,0.5318 0.195238,0.7809 0.161881,0.4047 0.159329,0.08 0.390476,0.1952 0.08232,0.041 0.130159,0.1302 0.195238,0.1953"
       id="path4852"
       inkscape:connector-curvature="0" />
    <path
       style="fill:none;fill-rule:evenodd;stroke:#000000;stroke-width:3;stroke-linecap:butt;stroke-linejoin:miter;stroke-opacity:1;stroke-miterlimit:4.30000019;stroke-dasharray:none"
       d="m 40.609524,1018.3907 c 0.03475,0.1738 0.28708,1.5159 0.390476,1.7572 0.09243,0.2156 0.285539,0.3758 0.390476,0.5857 0.09204,0.1841 0.103202,0.4016 0.195238,0.5857 0.04116,0.082 0.130159,0.1302 0.195238,0.1952 0.06508,0.065 0.130159,0.1302 0.195238,0.1953"
       id="path4856"
       inkscape:connector-curvature="0" />
    <path
       style="fill:none;fill-rule:evenodd;stroke:#000000;stroke-width:3;stroke-linecap:butt;stroke-linejoin:miter;stroke-opacity:1;stroke-miterlimit:4.30000019;stroke-dasharray:none"
       d="m 23.819048,1020.5384 c 0,0.846 0,1.692 0,2.538"
       id="path4858"
       inkscape:connector-curvature="0" />
    <path
       style="fill:none;fill-rule:evenodd;stroke:#000000;stroke-width:3;stroke-linecap:butt;stroke-linejoin:miter;stroke-opacity:1;stroke-miterlimit:4.30000019;stroke-dasharray:none"
       d="m 17.961905,1030.3003 c 0,0.2603 -0.0428,0.5241 0,0.7809 0.02392,0.1436 0.141192,0.2554 0.195238,0.3905 0.12521,0.313 0.216779,0.9869 0.585714,1.1714 0.05821,0.029 0.130159,0 0.195238,0"
       id="path4860"
       inkscape:connector-curvature="0" />
    <path
       style="fill:none;fill-rule:evenodd;stroke:#000000;stroke-width:3;stroke-linecap:butt;stroke-linejoin:miter;stroke-opacity:1;stroke-miterlimit:4.30000019;stroke-dasharray:none"
       d="m 31.238095,1029.3241 c 0.141458,0.086 -0.0853,1.306 0,1.5619 0.0291,0.087 0.130159,0.1301 0.195238,0.1952 0.06508,0.065 0.130159,0.1302 0.195238,0.1952"
       id="path4862"
       inkscape:connector-curvature="0" />
    <path
       style="fill:none;fill-rule:evenodd;stroke:#000000;stroke-width:3;stroke-linecap:butt;stroke-linejoin:miter;stroke-opacity:1;stroke-miterlimit:4.30000019;stroke-dasharray:none"
       d="m 49.785714,1027.1764 c 0,0.781 0,1.562 0,2.3429"
       id="path4864"
       inkscape:connector-curvature="0" />
    <path
       style="fill:none;fill-rule:evenodd;stroke:#000000;stroke-width:3;stroke-linecap:butt;stroke-linejoin:miter;stroke-opacity:1;stroke-miterlimit:4.30000019;stroke-dasharray:none"
       d="m 33.190476,1039.086 c -0.260317,0.2603 -0.545272,0.4981 -0.780952,0.7809 -0.09316,0.1118 -0.107925,0.2741 -0.195238,0.3905 -0.110444,0.1473 -0.260318,0.2603 -0.390476,0.3905 -0.260318,0.2603 -0.520635,0.5206 -0.780953,0.7809"
       id="path4866"
       inkscape:connector-curvature="0" />
    <path
       style="fill:#55d400;fill-rule:evenodd;stroke:#000000;stroke-width:3;stroke-linecap:butt;stroke-linejoin:miter;stroke-opacity:1;stroke-miterlimit:4.30000019;stroke-dasharray:none"
       d="m 29.285714,993.00978 c -0.390476,0 -0.780952,0 -1.171428,0 -0.650794,0 -1.301588,0 -1.952381,0 -0.06508,0 -0.130159,0 -0.195238,0 -0.06508,0 -0.14922,0.046 -0.195238,0 -0.04602,-0.046 0.04602,-0.14922 0,-0.19524 -0.04602,-0.046 -0.13703,0.0291 -0.195239,0 -0.08232,-0.0412 -0.112918,-0.15408 -0.195238,-0.19524 -0.05942,-0.0297 -0.497787,0 -0.585714,0 -0.06508,0 -0.14922,-0.046 -0.195238,0 -0.04602,0.046 -0.06508,0.19524 0,0.19524 0.09204,0 0.195238,-0.28727 0.195238,-0.19524 0,0.14552 -0.195238,0.24496 -0.195238,0.39048 0,0.32376 0.273796,0.1369 0.390476,0.19524 0.08232,0.0412 0.130159,0.13016 0.195238,0.19524 0.195238,0.19523 0.390476,0.39047 0.585715,0.58571 0.130158,0.13016 0.237318,0.28837 0.390476,0.39048 0.121081,0.0807 0.269394,0.11451 0.390476,0.19523 0.07658,0.0511 0.112918,0.15408 0.195238,0.19524 0.05821,0.0291 0.14922,-0.046 0.195238,0 0.04602,0.046 -0.0291,0.13703 0,0.19524 0.04116,0.0823 0.154078,0.11292 0.195238,0.19524 0.02911,0.0582 -0.0291,0.13703 0,0.19524 0.04116,0.0823 0.154079,0.11291 0.195238,0.19523 0.02911,0.0582 0,0.13016 0,0.19524 0,0.0651 0,0.13016 0,0.19524 0,0.3254 0,0.65079 0,0.97619 0,0.97619 0,1.95238 0,2.92857 0,0.0473 -0.0063,0.57939 0,0.58569 0.0063,0.01 0.538364,0 0.585715,0 0.06508,0 0.14922,0.046 0.195238,0 0.04602,-0.046 -0.04602,-0.1492 0,-0.1952 0.01251,-0.013 0.744585,-0.36624 0.780952,-0.39049 0.182707,-0.1218 0.655914,-0.65591 0.780952,-0.78095 0.06508,-0.0651 0.11866,-0.14419 0.195239,-0.19524 0.121081,-0.0807 0.269394,-0.11451 0.390476,-0.19524 0.123077,-0.082 0.267399,-0.30842 0.390476,-0.39047 0.121081,-0.0807 0.303163,-0.0788 0.390476,-0.19524 0.12348,-0.16464 0.103202,-0.40164 0.195238,-0.58571 0.179718,-0.35944 0.405996,-0.0311 0.585715,-0.39048 0.0291,-0.0582 -0.02911,-0.13703 0,-0.19524 0.02592,-0.0518 0.533876,-0.55979 0.585714,-0.58571 0.05821,-0.0291 0.14922,0.046 0.195238,0 0.04602,-0.046 -0.04602,-0.14922 0,-0.19524 0.04602,-0.046 0.130159,0 0.195238,0 0.390476,0 0.780952,0 1.171429,0 0.97619,0 1.952381,0 2.928571,0 0.0717,0 0.773096,0.008 0.780952,0 0.04602,-0.046 0,-0.13016 0,-0.19524 0,-0.0651 0,-0.13016 0,-0.19524 0,-0.0651 0.04602,-0.14922 0,-0.19524 -0.04602,-0.046 -0.137029,0.0291 -0.195238,0 -0.08232,-0.0412 -0.130158,-0.13015 -0.195238,-0.19523 -0.06508,-0.0651 -0.144185,-0.11866 -0.195238,-0.19524 -0.08072,-0.12108 -0.09234,-0.28758 -0.195238,-0.39048 -0.06197,-0.062 -1.059855,-0.54852 -1.171429,-0.58571 -0.06174,-0.0206 -0.137029,0.0291 -0.195238,0 -0.08232,-0.0412 -0.112918,-0.15408 -0.195238,-0.19524 -0.05821,-0.0291 -0.130158,0 -0.195238,0 -0.130159,0 -0.260317,0 -0.390476,0 -0.06508,0 -0.130159,0 -0.195238,0 -0.06508,0 -0.137029,0.0291 -0.195238,0 -0.08232,-0.0412 -0.107925,-0.16613 -0.195238,-0.19524 -0.12348,-0.0412 -0.274059,0.0582 -0.390477,0 -0.05821,-0.0291 0.04602,-0.14922 0,-0.19524 -0.04602,-0.046 -0.130158,0 -0.195238,0 0,-0.0651 0.04602,-0.14922 0,-0.19523 -0.04602,-0.046 -0.14922,0.046 -0.195238,0 -0.09204,-0.092 0.05821,-0.27406 0,-0.39048 -0.04116,-0.0823 -0.154078,-0.11292 -0.195238,-0.19524 -0.05821,-0.11642 0.03157,-0.2642 0,-0.39047 -0.04991,-0.19966 -0.118806,-0.39464 -0.195238,-0.58572 -0.108091,-0.27023 -0.29844,-0.50484 -0.390476,-0.78095 -0.02058,-0.0617 0.02058,-0.1335 0,-0.19524 -0.04756,-0.14268 -0.211771,-0.49636 -0.390476,-0.58571 -0.01021,-0.005 -0.575501,-0.005 -0.585715,0 -0.164639,0.0823 -0.225837,0.30815 -0.390476,0.39047 -0.05821,0.0291 -0.137029,-0.0291 -0.195238,0 -0.08232,0.0412 -0.112918,0.15408 -0.195238,0.19524 -0.05821,0.0291 -0.14922,-0.046 -0.195238,0 -0.04602,0.046 0.04602,0.14922 0,0.19524 -0.04602,0.046 -0.137029,-0.0291 -0.195238,0 -0.08232,0.0412 -0.112919,0.15408 -0.195238,0.19524 -0.05821,0.0291 -0.13703,-0.0291 -0.195238,0 -0.08232,0.0412 -0.112919,0.15407 -0.195238,0.19523 -0.05821,0.0291 -0.13703,-0.0291 -0.195239,0 -0.164639,0.0823 -0.225836,0.30816 -0.390476,0.39048 -0.05821,0.0291 -0.14922,-0.046 -0.195238,0 -0.04602,0.046 0,0.13016 0,0.19524 0,0.0651 -0.04602,0.14922 0,0.19524 0.01723,0.0172 0.754155,0 0.195238,0"
       id="path4868"
       inkscape:connector-curvature="0" />
  </g>
</svg>
