<?xml version="1.0" encoding="UTF-8" standalone="no"?>
<!-- Created with Inkscape (http://www.inkscape.org/) -->

<svg
   xmlns:dc="http://purl.org/dc/elements/1.1/"
   xmlns:cc="http://creativecommons.org/ns#"
   xmlns:rdf="http://www.w3.org/1999/02/22-rdf-syntax-ns#"
   xmlns:svg="http://www.w3.org/2000/svg"
   xmlns="http://www.w3.org/2000/svg"
   xmlns:sodipodi="http://sodipodi.sourceforge.net/DTD/sodipodi-0.dtd"
   xmlns:inkscape="http://www.inkscape.org/namespaces/inkscape"
   width="48"
   height="48"
   viewBox="0 0 48.000001 48.000001"
   id="svg9676"
   version="1.1"
   inkscape:version="0.91 r13725"
   sodipodi:docname="speaker.svg">
  <defs
     id="defs9678" />
  <sodipodi:namedview
     id="base"
     pagecolor="#ffffff"
     bordercolor="#666666"
     borderopacity="1.0"
     inkscape:pageopacity="0.0"
     inkscape:pageshadow="2"
     inkscape:zoom="9.6774194"
     inkscape:cx="10.516667"
     inkscape:cy="23"
     inkscape:document-units="px"
     inkscape:current-layer="layer1"
     showgrid="false"
     units="px"
     inkscape:window-width="1440"
     inkscape:window-height="801"
     inkscape:window-x="0"
     inkscape:window-y="0"
     inkscape:window-maximized="1" />
  <metadata
     id="metadata9681">
    <rdf:RDF>
      <cc:Work
         rdf:about="">
        <dc:format>image/svg+xml</dc:format>
        <dc:type
           rdf:resource="http://purl.org/dc/dcmitype/StillImage" />
        <dc:title></dc:title>
      </cc:Work>
    </rdf:RDF>
  </metadata>
  <g
     inkscape:label="Layer 1"
     inkscape:groupmode="layer"
     id="layer1"
     transform="translate(0,-1004.3622)">
    <ellipse
       style="opacity:1;fill:#ffa860;fill-opacity:0.41401277;fill-rule:evenodd;stroke:none;stroke-width:4;stroke-miterlimit:4;stroke-dasharray:none;stroke-opacity:1"
       id="path10232"
       cx="24.283333"
       cy="1028.0272"
       rx="23.146666"
       ry="23.198334" />
    <path
       style="fill:#ffffff;fill-rule:evenodd;stroke:#000000;stroke-width:1px;stroke-linecap:butt;stroke-linejoin:miter;stroke-opacity:1"
       d="m 25.42,1009.3755 c -0.276792,0.062 -0.412882,0.3614 -0.62,0.5167 -0.06162,0.046 -0.152205,0.049 -0.206667,0.1033 -0.05446,0.054 -0.05712,0.1451 -0.103333,0.2067 -0.05845,0.078 -0.148213,0.1287 -0.206667,0.2067 -0.04621,0.062 -0.05712,0.145 -0.103333,0.2066 -0.116908,0.1559 -0.313085,0.2463 -0.413333,0.4134 -0.208398,0.3473 0.0024,0.2378 -0.206667,0.5166 -0.05845,0.078 -0.156543,0.1232 -0.206667,0.2067 -0.05604,0.093 -0.04729,0.2166 -0.103333,0.31 -0.05012,0.084 -0.137778,0.1378 -0.206667,0.2067 -0.06889,0.1033 -0.14505,0.2021 -0.206666,0.31 -0.07643,0.1337 -0.137778,0.2755 -0.206667,0.4133 -0.03444,0.069 -0.05712,0.1451 -0.103333,0.2067 -0.05845,0.078 -0.145807,0.1306 -0.206667,0.2066 -0.07758,0.097 -0.137778,0.2067 -0.206667,0.31 -0.205631,0.3085 -0.429296,0.6122 -0.62,0.93 -0.03963,0.066 -0.06371,0.1407 -0.103333,0.2067 -0.484471,0.8075 0.126328,-0.3307 -0.516667,0.8267 -0.07481,0.1346 -0.125025,0.2827 -0.206666,0.4133 -0.117016,0.1872 -0.407365,0.5047 -0.516667,0.7233 -0.08295,0.1659 -0.108358,0.3594 -0.206667,0.5167 -0.07745,0.1239 -0.21871,0.1959 -0.31,0.31 -0.04811,0.06 -0.06371,0.1406 -0.103333,0.2067 -0.0639,0.1065 -0.129085,0.213 -0.206667,0.31 -0.06086,0.076 -0.152625,0.1256 -0.206666,0.2066 -0.08545,0.1282 -0.130242,0.2796 -0.206667,0.4134 -0.404598,0.708 -0.006,-0.027 -0.413333,0.5166 -0.09242,0.1233 -0.09774,0.3044 -0.206667,0.4134 -0.05446,0.054 -0.172222,0.034 -0.206667,0.1033 -0.04621,0.092 0.04621,0.2176 0,0.31 -0.03444,0.069 -0.152205,0.049 -0.206666,0.1033 -0.0066,0.01 -0.193835,0.3941 -0.206667,0.4134 -0.02702,0.04 -0.08155,0.06 -0.103333,0.1033 -0.0154,0.031 0.01089,0.071 0,0.1033 0.06228,0.1871 -0.167394,0.1922 -0.206667,0.31 0,0.4704 0.04871,0.01 -0.103333,0.31 -0.03081,0.062 0.04871,0.158 0,0.2067 -0.02436,0.024 -0.07898,-0.024 -0.103334,0 -0.06896,0.069 0.06897,0.1377 0,0.2067 -0.02436,0.024 -0.07898,-0.024 -0.103333,0 -0.04871,0.049 0.03081,0.145 0,0.2066 -0.04357,0.087 -0.163098,0.1196 -0.206667,0.2067 -0.0154,0.031 0.02436,0.079 0,0.1033 -0.03406,0.034 -0.338556,-0.025 -0.413333,0 -0.04621,0.015 -0.05976,0.082 -0.103333,0.1034 -0.09742,0.049 -0.208868,0.063 -0.31,0.1033 -0.07151,0.029 -0.133599,0.079 -0.206667,0.1033 -0.093,0.031 -0.217,-0.031 -0.31,0 -0.07307,0.024 -0.131142,0.088 -0.206667,0.1034 -0.101326,0.02 -0.206666,0 -0.31,0 -0.137777,0.034 -0.275555,0.069 -0.413333,0.1033 -1.186652,0.2967 0.275721,-0.1182 -0.723333,0.31 -0.130536,0.056 -0.27678,0.064 -0.413334,0.1033 -0.209464,0.06 -0.417735,0.1258 -0.62,0.2067 -0.275555,0.1102 -0.173953,0.1381 -0.516666,0.2067 -0.111903,0.022 -0.612873,0 -0.723334,0 -0.06889,0 -0.139834,-0.017 -0.206666,0 -0.07472,0.019 -0.131947,0.085 -0.206667,0.1033 -0.133664,0.033 -0.279669,-0.033 -0.413333,0 -0.07472,0.019 -0.133599,0.079 -0.206667,0.1033 -0.03268,0.011 -0.06889,0 -0.103333,0 -0.103334,0 -0.206667,0 -0.31,0 -0.06889,0 -0.139835,-0.017 -0.206667,0 -0.07472,0.019 -0.1319462,0.085 -0.2066667,0.1034 -0.080618,0.02 -0.4993921,0 -0.62,0 -0.034444,0 -0.068889,0 -0.1033333,0 -0.034444,0 -0.072525,-0.015 -0.1033333,0 -0.043569,0.022 -0.059764,0.082 -0.1033334,0.1033 -0.064006,0.032 -0.3827588,-0.031 -0.4133333,0 -0.024356,0.024 0.034444,0.1033 0,0.1033 -0.034444,0 0,-0.1377 0,-0.1033 0,0.2067 0.022823,0.4146 0,0.62 -0.019395,0.1746 -0.074459,0.3434 -0.1033333,0.5167 -0.056029,0.3361 -0.1718366,1.2365 -0.2066667,1.55 -0.038227,0.344 -0.086047,0.6876 -0.1033333,1.0333 -0.027521,0.5504 0,1.1022 0,1.6533 0,0.5167 0,1.0334 0,1.55 0,0.1034 0,0.2067 0,0.31 0,0.1034 -0.016988,0.2081 0,0.31 0.017907,0.1075 0.085426,0.2026 0.1033333,0.31 0.016988,0.102 -0.020265,0.2087 0,0.31 0.015105,0.076 0.078977,0.1336 0.1033333,0.2067 0.010892,0.033 -0.010892,0.071 0,0.1033 0.024356,0.073 0.084653,0.132 0.1033334,0.2067 0.016708,0.067 0,0.1378 0,0.2067 0.034444,0.069 0.078977,0.1336 0.1033333,0.2066 0.021785,0.065 -0.030808,0.1451 0,0.2067 0.021785,0.044 0.076313,0.063 0.1033333,0.1033 0.2276603,0.052 0.054622,0.2126 0.1033334,0.31 0.021784,0.044 0.081549,0.06 0.1033333,0.1034 0.013358,0.027 0,0.5467 0,0.62 0,0.034 0,0.069 0,0.1033 0,0.034 -0.024356,0.079 0,0.1033 0.024356,0.024 0.078977,-0.024 0.1033333,0 0.048712,0.049 -0.061616,0.1759 0,0.2067 0.061616,0.031 0.1391156,-0.013 0.2066667,0 0.1068077,0.021 0.205268,0.073 0.31,0.1033 0.2731076,0.078 0.5535591,0.1287 0.826667,0.2067 0.104732,0.03 0.205268,0.073 0.31,0.1033 0.136553,0.039 0.276779,0.064 0.413333,0.1034 0.104732,0.03 0.203192,0.082 0.31,0.1033 0.06755,0.014 0.138715,-0.011 0.206667,0 0.140085,0.023 0.273247,0.08 0.413333,0.1033 0.135903,0.023 0.275556,0 0.413333,0 0.206667,0 0.413334,0 0.62,0 0.723334,0 1.446667,0 2.17,0 0.447778,0 0.895556,0 1.343334,0 0.104062,0 0.562855,-0.019 0.62,0 0.04621,0.015 0.07631,0.063 0.103333,0.1034 0.111408,0.1671 0.191869,0.3542 0.31,0.5166 0.15823,0.2176 0.352642,0.4068 0.516667,0.62 0.180658,0.2349 0.307149,0.5138 0.516666,0.7234 0.243559,0.2435 0.57426,0.3856 0.826667,0.62 0.109699,0.1018 0.87572,1.0232 1.033333,1.24 0.146092,0.2008 0.247175,0.4353 0.413334,0.62 0.147541,0.1639 0.37014,0.2485 0.516666,0.4133 0.133434,0.1501 0.186694,0.3581 0.31,0.5167 0.112519,0.1446 0.578667,0.5545 0.723334,0.7233 0.11208,0.1308 0.18822,0.2916 0.31,0.4133 0.08782,0.088 0.214593,0.1272 0.31,0.2067 0.112264,0.094 0.206666,0.2067 0.31,0.31 0.06889,0.069 0.125605,0.1526 0.206666,0.2067 0.12817,0.085 0.294997,0.108 0.413334,0.2066 0.0069,0.01 0.395477,0.5977 0.413333,0.62 0.06086,0.076 0.148213,0.1288 0.206667,0.2067 0.08348,0.1113 0.123188,0.302 0.206666,0.4133 0.08768,0.1169 0.206667,0.2067 0.31,0.31 0.632766,0.6328 -0.130707,-0.1742 0.31,0.4134 0.05845,0.078 0.148213,0.1287 0.206667,0.2066 0.04621,0.062 0.06061,0.1426 0.103333,0.2067 0.101368,0.1521 0.311966,0.2613 0.413334,0.4133 0.01911,0.029 -0.01911,0.075 0,0.1034 0.05404,0.081 0.152625,0.1256 0.206666,0.2066 0.01911,0.029 -0.0154,0.073 0,0.1034 0.04357,0.087 0.163098,0.1195 0.206667,0.2066 0.0154,0.031 -0.0154,0.073 0,0.1034 0.07913,0.1582 0.184142,0.081 0.31,0.2066 0.04871,0.049 -0.04871,0.158 0,0.2067 0.02436,0.024 0.07898,-0.024 0.103333,0 0.02436,0.024 -0.0154,0.072 0,0.1033 0.02179,0.044 0.08155,0.06 0.103334,0.1034 0.0154,0.031 -0.02436,0.079 0,0.1033 0.02436,0.024 0.07898,-0.024 0.103333,0 0.02436,0.024 -0.02436,0.079 0,0.1033 0.02436,0.024 0.07898,-0.024 0.103333,0 0.02436,0.024 -0.02436,0.079 0,0.1034 0.02436,0.024 0.07898,-0.024 0.103334,0 0.02436,0.024 0.03444,0.1033 0,0.1033 -0.03444,0 0,-0.069 0,-0.1033 0,-0.2756 0,-0.5511 0,-0.8267 0,-0.62 0,-1.24 0,-1.86 0,-0.7922 0,-1.5844 0,-2.3767 0,-0.1722 0,-0.3444 0,-0.5166 0,-0.1378 -0.01521,-0.2764 0,-0.4134 0.0194,-0.1745 0.08586,-0.3419 0.103333,-0.5166 0.01714,-0.1714 -0.01559,-0.3452 0,-0.5167 0.01897,-0.2087 0.08436,-0.4113 0.103333,-0.62 0.01559,-0.1715 0,-0.3444 0,-0.5167 0,-0.5166 0,-1.0333 0,-1.55 0,-0.62 0,-1.24 0,-1.86 0,-0.2411 0,-0.4822 0,-0.7233 0,-0.1722 -0.0143,-0.345 0,-0.5167 0.02023,-0.2427 0.08465,-0.4805 0.103334,-0.7233 0.02906,-0.3778 -0.03147,-0.7591 0,-1.1367 0.02023,-0.2427 0.08128,-0.4807 0.103333,-0.7233 0.01247,-0.1372 0,-0.2756 0,-0.4133 0,-0.2067 0,-0.4134 0,-0.62 0,-0.5856 0,-1.1711 0,-1.7567 0,-0.3789 0,-0.7578 0,-1.1367 0,-0.2066 0.01585,-0.4139 0,-0.62 -0.01868,-0.2428 -0.08598,-0.4804 -0.103333,-0.7233 -0.01718,-0.2405 0,-0.4822 0,-0.7233 0,-0.4823 0,-0.9645 0,-1.4467 0,-1.0333 0,-2.0667 0,-3.1 0,-0.2756 0,-0.5511 0,-0.8267 0,-0.1377 0,-0.2755 0,-0.4133 0,-0.1033 0.01699,-0.2081 0,-0.31 -0.01791,-0.1074 -0.08543,-0.2026 -0.103334,-0.31 -0.01699,-0.1019 0,-0.2067 0,-0.31 0,-0.1722 0,-0.3444 0,-0.5167 0,-0.31 0,-0.62 0,-0.93 0,-1.1022 0,-2.2044 0,-3.3066 0,-1.9289 0,-3.8578 0,-5.7867 0,-0.1722 0,-0.3444 0,-0.5167 0,-0.034 0.02436,-0.079 0,-0.1033 -0.02436,-0.024 -0.07898,0.024 -0.103333,0 -0.04871,-0.049 0.04871,-0.158 0,-0.2067 -0.06897,-0.069 -0.137701,0.069 -0.206667,0 -0.02436,-0.024 0.02436,-0.079 0,-0.1033 -0.02436,-0.024 -0.103333,0.034 -0.103333,0 0,-0.034 0.103333,-0.034 0.103333,0 0,0.215 -0.144911,0.042 -0.206666,0.1033 -0.02436,0.024 0.02436,0.079 0,0.1034 -0.02436,0.024 -0.07898,-0.024 -0.103334,0 -0.02436,0.024 0.0154,0.073 0,0.1033 -0.02178,0.044 -0.06889,0.069 -0.103333,0.1033 -0.03444,0.034 -0.08155,0.06 -0.103333,0.1034 -0.0154,0.031 0.02436,0.079 0,0.1033 -0.04871,0.049 -0.145051,-0.031 -0.206667,0 -0.04357,0.022 -0.05976,0.082 -0.103333,0.1033 -0.03081,0.015 -0.07898,-0.024 -0.103334,0 -0.02436,0.024 0.02436,0.079 0,0.1034 -0.06896,0.069 -0.137701,-0.069 -0.206666,0 -0.02436,0.024 0.02436,0.079 0,0.1033 -0.02436,0.024 -0.07898,-0.024 -0.103334,0 -0.02436,0.024 0.02436,0.079 0,0.1033 -0.121779,0.1218 -0.413333,0.4823 -0.413333,0.31 0,-0.1948 0.275556,-0.2755 0,0 z"
       id="path10226"
       inkscape:connector-curvature="0" />
    <path
       style="fill:#ffffff;fill-rule:evenodd;stroke:#000000;stroke-width:1px;stroke-linecap:butt;stroke-linejoin:miter;stroke-opacity:1"
       d="m 30.38,1020.9489 c 0.102503,-0.3686 0.367229,-0.5739 0.62,-0.8267 0.03444,-0.034 0.06889,-0.069 0.103333,-0.1033 0.03445,-0.034 0.08155,-0.06 0.103334,-0.1034 0.0154,-0.031 -0.02436,-0.079 0,-0.1033 0.02487,-0.025 0.388468,0.025 0.413333,0 0.02436,-0.024 -0.02436,-0.079 0,-0.1033 0.02436,-0.024 0.06889,0 0.103333,0 0.03444,0 0.103334,-0.034 0.103334,0 0,0.034 -0.137778,0 -0.103334,0 0.06889,0 0.137778,0 0.206667,0 0.06889,0 0.139835,-0.017 0.206667,0 0.149441,0.037 0.263892,0.1693 0.413333,0.2066 0.06683,0.017 0.139835,-0.017 0.206667,0 0.29969,0.075 0.120927,0.081 0.31,0.2067 0.06408,0.043 0.142582,0.061 0.206666,0.1033 0.08106,0.054 0.119529,0.1631 0.206667,0.2067 0.03081,0.015 0.07253,-0.015 0.103333,0 0.430049,0.215 -0.110467,-0.01 0.103334,0.2067 0.02436,0.024 0.07252,-0.015 0.103333,0 0.430049,0.215 -0.110467,-0.01 0.103333,0.2066 0.02436,0.024 0.07898,-0.024 0.103334,0 0.08782,0.088 0.132152,0.2107 0.206666,0.31 0.05845,0.078 0.152626,0.1256 0.206667,0.2067 0.04272,0.064 0.06061,0.1426 0.103333,0.2067 0.08106,0.1216 0.222319,0.1931 0.31,0.31 0.04621,0.062 0.06061,0.1425 0.103334,0.2066 0.02702,0.041 0.08793,0.057 0.103333,0.1034 0.02179,0.065 -0.01671,0.1398 0,0.2066 0.01868,0.075 0.08465,0.132 0.103333,0.2067 0.01671,0.067 -0.01671,0.1398 0,0.2067 0.01868,0.075 0.08465,0.1319 0.103334,0.2066 0.03342,0.1337 -0.03342,0.2797 0,0.4134 0.01868,0.075 0.07898,0.1336 0.103333,0.2066 0.01089,0.033 -0.01089,0.071 0,0.1034 0.02436,0.073 0.07898,0.1336 0.103333,0.2066 0.01089,0.033 0,0.069 0,0.1034 0,0.069 0,0.1377 0,0.2066 0,0.1034 -0.02506,0.2098 0,0.31 0.01181,0.047 0.08793,0.057 0.103334,0.1034 0.03491,0.1047 -0.02634,0.4883 0,0.62 0.02136,0.1068 0.08793,0.2021 0.103333,0.31 0.01949,0.1364 0,0.2755 0,0.4133 0,0.1033 0,0.2067 0,0.31 0,0.4478 0,0.8956 0,1.3433 0,0.4823 0,0.9645 0,1.4467 0,0.1378 0,0.2756 0,0.4133 0,0.069 0.01351,0.1391 0,0.2067 -0.02136,0.1068 -0.08197,0.2032 -0.103333,0.31 -0.02702,0.1351 0.02702,0.2782 0,0.4133 -0.02136,0.1068 -0.08543,0.2026 -0.103334,0.31 -0.03398,0.2039 0.04053,0.4174 0,0.62 -0.01511,0.076 -0.06889,0.1378 -0.103333,0.2067 -0.06889,0.1378 -0.157955,0.2672 -0.206667,0.4133 -0.01089,0.033 0.01089,0.071 0,0.1034 -0.02436,0.073 -0.08465,0.1319 -0.103333,0.2066 -0.01671,0.067 0,0.1378 0,0.2067 0,0.034 0.01911,0.075 0,0.1033 -0.05404,0.081 -0.148213,0.1288 -0.206667,0.2067 -0.04621,0.062 -0.06061,0.1426 -0.103333,0.2067 -0.02702,0.041 -0.07631,0.063 -0.103333,0.1033 -0.04272,0.064 -0.06889,0.1378 -0.103334,0.2067 -0.03444,0.069 -0.07898,0.1336 -0.103333,0.2066 -0.01089,0.033 0.02436,0.079 0,0.1034 -0.02436,0.024 -0.06889,0 -0.103333,0 0,0.034 0.0154,0.072 0,0.1033 -0.02178,0.044 -0.07631,0.063 -0.103334,0.1033 -0.04272,0.064 -0.05712,0.1451 -0.103333,0.2067 -0.05845,0.078 -0.152626,0.1256 -0.206667,0.2067 -0.01911,0.029 0.0154,0.072 0,0.1033 -0.04357,0.087 -0.152625,0.1256 -0.206666,0.2067 -0.08545,0.1281 -0.114243,0.2901 -0.206667,0.4133 -0.107972,0.144 -0.282968,0.283 -0.413333,0.4133 -0.03445,0.034 -0.06889,0.069 -0.103334,0.1034 -0.03444,0.034 -0.05976,0.082 -0.103333,0.1033 -0.03081,0.015 -0.07898,-0.024 -0.103333,0 -0.02436,0.024 0.02436,0.079 0,0.1033 -0.02436,0.024 -0.07253,-0.015 -0.103334,0 -0.04357,0.022 -0.05976,0.082 -0.103333,0.1034 -0.02717,0.014 -0.359298,0 -0.413333,0 -0.04654,0 -0.278552,0.016 -0.31,0 -0.04357,-0.022 -0.05976,-0.082 -0.103334,-0.1034 -0.03081,-0.015 -0.07898,0.024 -0.103333,0 -0.02436,-0.024 0.02436,-0.079 0,-0.1033 -0.02436,-0.024 -0.07253,0.015 -0.103333,0 -0.04357,-0.022 -0.06889,-0.069 -0.103334,-0.1033 -0.06889,0 -0.141313,0.022 -0.206666,0 -0.09242,-0.031 -0.119529,-0.1631 -0.206667,-0.2067 -0.03081,-0.015 -0.07898,0.024 -0.103333,0 -0.02436,-0.024 0.02436,-0.079 0,-0.1033 -0.02436,-0.024 -0.07898,0.024 -0.103334,0 -0.02436,-0.024 0.02436,-0.079 0,-0.1034 -0.02436,-0.024 -0.07898,0.024 -0.103333,0 -0.02436,-0.024 0.02436,-0.079 0,-0.1033 -0.02436,-0.024 -0.07898,0.024 -0.103333,0 -0.02436,-0.024 0.02436,-0.079 0,-0.1033 -0.02436,-0.024 -0.07898,0.024 -0.103334,0 -0.02436,-0.024 0.02436,-0.079 0,-0.1034 -0.02436,-0.024 -0.07898,0.024 -0.103333,0 -0.02436,-0.024 0,-0.069 0,-0.1033 0,-0.034 -0.0154,-0.072 0,-0.1033 0.02179,-0.044 0.08155,-0.06 0.103333,-0.1034 0.0154,-0.031 -0.0154,-0.072 0,-0.1033 0.05486,-0.1097 0.15181,-0.097 0.206667,-0.2067 0.0154,-0.031 -0.0154,-0.072 0,-0.1033 0.04357,-0.087 0.175859,-0.1142 0.206667,-0.2067 0.02178,-0.065 -0.02179,-0.1413 0,-0.2066 0.03081,-0.092 0.163097,-0.1196 0.206666,-0.2067 0.0154,-0.031 -0.0154,-0.072 0,-0.1033 0.02179,-0.044 0.08155,-0.06 0.103334,-0.1034 0.0154,-0.031 -0.0154,-0.072 0,-0.1033 0.15756,-0.3151 0.08192,0.189 0.206666,-0.31 0.141844,-0.5674 -0.189393,0.1721 0.103334,-0.4133 0.233017,-0.4661 -0.03736,0.112 0.206666,-0.62 0.02436,-0.073 0.08465,-0.132 0.103334,-0.2067 0.01671,-0.067 -0.01671,-0.1398 0,-0.2067 0.01868,-0.075 0.08465,-0.1319 0.103333,-0.2066 0.01671,-0.067 -0.01671,-0.1399 0,-0.2067 0.03736,-0.1494 0.169306,-0.2639 0.206667,-0.4133 0.01671,-0.067 -0.02179,-0.1413 0,-0.2067 0.0154,-0.046 0.08155,-0.06 0.103333,-0.1033 0.03048,-0.061 -0.02369,-0.239 0,-0.31 0.239865,-0.4798 0.0088,0.059 0.103333,-0.4134 0.02136,-0.1068 0.06889,-0.2066 0.103334,-0.31 0.03444,-0.1033 0.06288,-0.2088 0.103333,-0.31 0.02861,-0.072 0.07898,-0.1336 0.103333,-0.2066 0.03268,-0.098 -0.02506,-0.2098 0,-0.31 0.01868,-0.075 0.08465,-0.132 0.103334,-0.2067 0.01671,-0.067 -0.02179,-0.1413 0,-0.2067 0.0154,-0.046 0.08155,-0.06 0.103333,-0.1033 0.03247,-0.065 -0.03247,-0.3484 0,-0.4133 0.02179,-0.044 0.08155,-0.06 0.103333,-0.1034 0.0154,-0.031 0,-0.069 0,-0.1033 0,-0.034 0,-0.069 0,-0.1033 0,-0.1378 0,-0.2756 0,-0.4134 0,-0.4822 0,-0.9644 0,-1.4466 0,-0.2411 0,-0.4823 0,-0.7234 0,-0.1033 0.02027,-0.2086 0,-0.31 -0.0151,-0.075 -0.08465,-0.1319 -0.103333,-0.2066 -0.02279,-0.091 0.02951,-0.3248 0,-0.4134 -0.04871,-0.1461 -0.157955,-0.2672 -0.206667,-0.4133 -0.01089,-0.033 0.0154,-0.072 0,-0.1033 -0.02178,-0.044 -0.08155,-0.06 -0.103333,-0.1034 -0.0154,-0.031 0.02436,-0.079 0,-0.1033 -0.02436,-0.024 -0.07898,0.024 -0.103333,0 -0.02436,-0.024 0.0154,-0.072 0,-0.1033 -0.062,-0.124 -0.248,-0.186 -0.31,-0.31 -0.0154,-0.031 0.02436,-0.079 0,-0.1034 -0.02436,-0.024 -0.07253,0.015 -0.103334,0 -0.430048,-0.215 0.110467,0.01 -0.103333,-0.2066 -0.02436,-0.024 -0.07898,0.024 -0.103333,0 -0.125859,-0.1259 -0.0484,-0.2309 -0.206667,-0.31 -0.275556,0 0.03444,0.034 -0.103333,-0.1034 -0.02436,-0.024 -0.07898,0.024 -0.103334,0 -0.02436,-0.024 0.02436,-0.079 0,-0.1033 -0.02436,-0.024 -0.07898,0.024 -0.103333,0 -0.02436,-0.024 0.02436,-0.079 0,-0.1033 -0.02436,-0.024 -0.07898,0.024 -0.103333,0 -0.02436,-0.024 0.02436,-0.079 0,-0.1034 -0.02436,-0.024 -0.07898,0.024 -0.103334,0 -0.02436,-0.024 0.02436,-0.079 0,-0.1033 -0.02436,-0.024 -0.07898,0.024 -0.103333,0 -0.02436,-0.024 0.02436,-0.079 0,-0.1033 -0.02436,-0.024 -0.07898,0.024 -0.103333,0 -0.02436,-0.024 0.02436,-0.079 0,-0.1034 -0.02436,-0.024 -0.07135,0.013 -0.103334,0 -0.143022,-0.057 -0.275555,-0.1377 -0.413333,-0.2066 z"
       id="path10228"
       inkscape:connector-curvature="0" />
    <path
       style="fill:#ffffff;fill-rule:evenodd;stroke:#000000;stroke-width:1px;stroke-linecap:butt;stroke-linejoin:miter;stroke-opacity:1"
       d="m 31.31,1014.6455 c 0.552727,0.016 1.11284,-0.063 1.653333,0.1034 0.638832,0.1965 0.704434,0.3224 1.24,0.62 0.347154,0.1928 0.428076,0.1771 0.723334,0.4133 0.07607,0.061 0.137777,0.1378 0.206666,0.2067 0.103334,0.1033 0.206667,0.2066 0.31,0.31 0.06889,0.069 0.145807,0.1306 0.206667,0.2066 0.01999,0.025 0.405966,0.6141 0.413333,0.62 0.08505,0.068 0.222862,0.038 0.31,0.1034 0.06162,0.046 0.06889,0.1377 0.103334,0.2066 0.06889,0.1378 0.137777,0.2756 0.206666,0.4134 0.06889,0.1377 0.137778,0.2755 0.206667,0.4133 0.06889,0.069 0.156543,0.1231 0.206667,0.2067 0.05604,0.093 0.05462,0.2125 0.103333,0.31 0.05554,0.111 0.137778,0.2066 0.206667,0.31 0.137777,0.2066 0.25817,0.426 0.413333,0.62 0.06086,0.076 0.158331,0.122 0.206667,0.2066 0.09203,0.1611 0.123713,0.3508 0.206666,0.5167 0.05554,0.1111 0.145051,0.2022 0.206667,0.31 0.152851,0.2675 0.260483,0.5592 0.413333,0.8267 0.06162,0.1078 0.163061,0.1937 0.206667,0.31 0.06167,0.1644 0.04779,0.35 0.103333,0.5166 0.349442,1.0484 0.035,-0.042 0.413334,0.62 0.09203,0.1611 0.161679,0.3367 0.206666,0.5167 0.02506,0.1002 -0.01461,0.2077 0,0.31 0.02009,0.1406 0.06889,0.2756 0.103334,0.4133 0.03444,0.1378 0.06889,0.2756 0.103333,0.4134 0.03444,0.1377 0.08765,0.2722 0.103333,0.4133 0.03043,0.2739 0,0.5511 0,0.8267 0,0.069 -0.01351,0.1391 0,0.2066 0.02136,0.1068 0.07692,0.2044 0.103334,0.31 0.0084,0.034 0,0.069 0,0.1034 0,0.1033 0,0.2066 0,0.31 0,0.2066 0,0.4133 0,0.62 0,0.5166 0,1.0333 0,1.55 0,0.8611 0,1.7222 0,2.5833 0,0.2411 0,0.4822 0,0.7233 0,0.1034 0.01699,0.2081 0,0.31 -0.01791,0.1075 -0.08543,0.2026 -0.103334,0.31 -0.03014,0.1809 0.04019,0.5626 0,0.7234 -0.07472,0.2988 -0.328697,0.5304 -0.413333,0.8266 -0.02839,0.099 0.02027,0.2087 0,0.31 -0.0151,0.076 -0.07473,0.1352 -0.103333,0.2067 -0.04045,0.1011 -0.07341,0.2053 -0.103334,0.31 -0.03444,0.1378 -0.06889,0.2756 -0.103333,0.4133 -0.03444,0.069 -0.07898,0.1336 -0.103333,0.2067 -0.04491,0.1347 -0.03982,0.2863 -0.103334,0.4133 -0.04357,0.087 -0.156542,0.1232 -0.206666,0.2067 -0.112081,0.1868 -0.109243,0.4252 -0.206667,0.62 -0.05554,0.1111 -0.142771,0.2035 -0.206667,0.31 -0.445621,0.7427 0.536035,-0.7091 -0.413333,0.62 -0.179028,0.2506 -0.182925,0.3323 -0.413333,0.5167 -0.120815,0.1875 -0.355992,0.1895 -0.516667,0.31 -0.07794,0.058 -0.128728,0.1482 -0.206667,0.2066 -0.06162,0.046 -0.140622,0.064 -0.206666,0.1034 -0.106493,0.064 -0.203507,0.1427 -0.31,0.2066 -0.132089,0.079 -0.290101,0.1143 -0.413334,0.2067 -0.07794,0.059 -0.137777,0.1378 -0.206666,0.2067 -0.103334,0.034 -0.2166,0.047 -0.31,0.1033 -0.08354,0.05 -0.119529,0.1631 -0.206667,0.2067 -0.06162,0.031 -0.141313,-0.022 -0.206667,0 -0.04621,0.015 -0.06889,0.069 -0.103333,0.1033 -0.06889,0.034 -0.131946,0.085 -0.206667,0.1033 -0.06683,0.017 -0.139115,-0.014 -0.206666,0 -0.537561,0.1075 -0.103334,0.069 -0.516667,0.2067 -0.03268,0.011 -0.07252,-0.015 -0.103333,0 -0.04357,0.022 -0.05712,0.088 -0.103334,0.1033 -0.06535,0.022 -0.137777,0 -0.206666,0 -0.03444,0 -0.07253,-0.015 -0.103334,0 -0.04357,0.022 -0.05976,0.082 -0.103333,0.1034 -0.06162,0.031 -0.157955,-0.049 -0.206667,0 -0.02436,0.024 0.03444,0.1033 0,0.1033 -0.03444,0 0,-0.1378 0,-0.1033 0,0.069 0,0.1377 0,0.2066 0,0.069 -0.01671,0.1399 0,0.2067 0.01868,0.075 0.06371,0.1406 0.103334,0.2067 0.21362,0.356 0.431404,0.5347 0.723333,0.8266 0.137778,0.1378 0.275556,0.2756 0.413333,0.4134 0.03444,0.034 0.05976,0.082 0.103334,0.1033 0.09742,0.049 0.204329,0.077 0.31,0.1033 0.03342,0.01 0.07252,-0.015 0.103333,0 0.04357,0.022 0.0628,0.076 0.103333,0.1034 0.09439,0.063 0.250769,0.088 0.31,0.2066 0.0154,0.031 -0.02436,0.079 0,0.1034 0.02436,0.024 0.07253,-0.015 0.103334,0 0.04357,0.022 0.05976,0.082 0.103333,0.1033 0.03081,0.015 0.06889,0 0.103333,0 0.103334,0 0.21197,0.033 0.31,0 0.425317,-0.1418 0.780516,-0.4689 1.136667,-0.7233 1.077539,-0.7697 -0.537901,0.4482 0.62,-0.5167 0.32225,-0.2685 0.276164,-0.1127 0.516667,-0.4133 0.07758,-0.097 0.137777,-0.2067 0.206666,-0.31 0.137778,-0.2067 0.275556,-0.4134 0.413334,-0.62 0.06889,-0.1034 0.137777,-0.2067 0.206666,-0.31 0.06889,-0.1034 0.151127,-0.199 0.206667,-0.31 0.04871,-0.097 0.04729,-0.2166 0.103333,-0.31 0.100248,-0.1671 0.296425,-0.2575 0.413334,-0.4134 0.04621,-0.062 0.04887,-0.1522 0.103333,-0.2066 0.08782,-0.088 0.222184,-0.1189 0.31,-0.2067 0.05446,-0.055 0.05712,-0.1451 0.103333,-0.2067 0.01818,-0.024 0.407089,-0.4008 0.413334,-0.4133 0.06351,-0.127 0.03026,-0.2916 0.103333,-0.4133 0.03963,-0.066 0.152205,-0.049 0.206667,-0.1034 0.0037,-0 0.195929,-0.3954 0.206666,-0.4133 0.592278,-0.8884 -0.117818,0.2356 0.31,-0.62 0.05554,-0.1111 0.142771,-0.2035 0.206667,-0.31 0.07925,-0.1321 0.137778,-0.2756 0.206667,-0.4133 0.03444,-0.069 0.07898,-0.1336 0.103333,-0.2067 0.04491,-0.1347 0.08572,-0.2724 0.103333,-0.4133 0.01709,-0.1367 -0.04357,-0.2827 0,-0.4134 0.06351,-0.1905 0.22843,-0.3331 0.31,-0.5166 0.05768,-0.1298 0.06432,-0.2768 0.103334,-0.4134 0.02992,-0.1047 0.07691,-0.2043 0.103333,-0.31 0.01671,-0.067 -0.02179,-0.1413 0,-0.2066 0.02436,-0.073 0.07898,-0.1336 0.103333,-0.2067 0.02179,-0.065 -0.04871,-0.158 0,-0.2067 0.02436,-0.024 0.07898,0.024 0.103334,0 0.02436,-0.024 0,-0.069 0,-0.1033 0,-0.1378 0,-0.2756 0,-0.4133 0,-0.1378 -0.01948,-0.277 0,-0.4134 0.0154,-0.1078 0.08793,-0.2021 0.103333,-0.31 0.01948,-0.1364 -0.01949,-0.2769 0,-0.4133 0.03081,-0.2157 0.163944,-0.4064 0.206667,-0.62 0.03811,-0.1906 -0.03788,-0.5339 0,-0.7233 0.0151,-0.076 0.08465,-0.132 0.103333,-0.2067 0.01671,-0.067 0,-0.1378 0,-0.2067 0,-0.1033 0,-0.2066 0,-0.31 0,-0.2411 0,-0.4822 0,-0.7233 0,-0.9644 0,-1.9289 0,-2.8933 0,-0.7923 0,-1.5845 0,-2.3767 0,-0.2067 0,-0.4133 0,-0.62 0,-0.1033 0,-0.2067 0,-0.31 0,-0.069 0.02179,-0.1413 0,-0.2067 -0.04871,-0.1461 -0.157955,-0.2672 -0.206667,-0.4133 -0.02178,-0.065 0.01351,-0.1391 0,-0.2067 0.02371,-0.2075 -0.161679,-0.3367 -0.206666,-0.5166 -0.01671,-0.067 0,-0.1378 0,-0.2067 0,-0.069 0,-0.1378 0,-0.2067 0,-0.034 0.01089,-0.071 0,-0.1033 -0.07733,-0.232 -0.192091,-0.2808 -0.31,-0.5167 -0.08295,-0.1659 -0.114639,-0.3556 -0.206667,-0.5166 -0.04834,-0.085 -0.156543,-0.1232 -0.206667,-0.2067 -0.05604,-0.093 -0.03798,-0.2229 -0.103333,-0.31 -0.04621,-0.062 -0.152205,-0.049 -0.206667,-0.1033 -0.08782,-0.088 -0.129085,-0.2131 -0.206666,-0.31 -0.06086,-0.076 -0.152626,-0.1256 -0.206667,-0.2067 -0.08545,-0.1282 -0.110438,-0.293 -0.206667,-0.4133 -0.04811,-0.06 -0.140622,-0.064 -0.206666,-0.1034 -0.106493,-0.064 -0.203507,-0.1427 -0.31,-0.2066 -0.06605,-0.04 -0.145051,-0.057 -0.206667,-0.1034 -0.07794,-0.058 -0.128728,-0.1482 -0.206667,-0.2066 -0.06162,-0.046 -0.14505,-0.057 -0.206666,-0.1034 -0.07794,-0.058 -0.137778,-0.1377 -0.206667,-0.2066 -0.172222,-0.1723 -0.344444,-0.3445 -0.516667,-0.5167 -0.06889,-0.069 -0.137777,-0.1378 -0.206666,-0.2067 -0.06889,-0.069 -0.156543,-0.1231 -0.206667,-0.2066 -0.05604,-0.093 -0.03798,-0.2229 -0.103333,-0.31 -0.04621,-0.062 -0.142582,-0.061 -0.206667,-0.1034 -0.09407,-0.063 -0.218412,-0.2642 -0.31,-0.31 -0.09742,-0.049 -0.212576,-0.055 -0.31,-0.1033 -0.04357,-0.022 -0.06889,-0.069 -0.103333,-0.1033 -0.06889,-0.069 -0.137778,-0.1378 -0.206667,-0.2067 -0.03444,-0.034 -0.0628,-0.076 -0.103333,-0.1033 -0.06408,-0.043 -0.152206,-0.049 -0.206667,-0.1034 -0.05446,-0.054 -0.04887,-0.1522 -0.103333,-0.2066 -0.02436,-0.024 -0.07467,0.019 -0.103334,0 -0.08106,-0.054 -0.128727,-0.1482 -0.206666,-0.2067 -0.27882,-0.2091 -0.169338,0 -0.516667,-0.2067 -0.08354,-0.05 -0.128728,-0.1482 -0.206667,-0.2066 -0.06162,-0.046 -0.142582,-0.061 -0.206666,-0.1034 -0.04053,-0.027 -0.0628,-0.076 -0.103334,-0.1033 -0.06408,-0.043 -0.152205,-0.049 -0.206666,-0.1033 -0.250977,-0.251 0.03073,-0.1518 -0.206667,-0.31 -0.128169,-0.086 -0.290101,-0.1143 -0.413333,-0.2067 -0.07794,-0.058 -0.125606,-0.1526 -0.206667,-0.2067 -0.02866,-0.019 -0.07066,0.011 -0.103333,0 -0.217,-0.072 -0.403,-0.2376 -0.62,-0.31 -0.03268,-0.011 -0.07253,0.015 -0.103334,0 -0.04357,-0.022 -0.05712,-0.088 -0.103333,-0.1033 -0.05714,-0.019 -0.515938,0 -0.62,0 -0.07187,0 -0.479298,0.019 -0.516667,0 -0.04357,-0.022 -0.05976,-0.082 -0.103333,-0.1033 -0.03081,-0.015 -0.06889,0 -0.103333,0 -0.03444,0 -0.06889,0 -0.103334,0 -0.03444,0 -0.06889,0 -0.103333,0 -0.03444,0 -0.07898,0.024 -0.103333,0 -0.02436,-0.024 -0.03444,-0.1034 0,-0.1034 0.03444,0 0.0154,0.073 0,0.1034 -0.04357,0.087 -0.163098,0.1195 -0.206667,0.2066 -0.0154,0.031 0.0154,0.073 0,0.1034 -0.02179,0.043 -0.08155,0.06 -0.103333,0.1033 -0.03081,0.062 0.03081,0.1451 0,0.2067 -0.02179,0.043 -0.08155,0.06 -0.103334,0.1033 -0.0154,0.031 0.02436,0.079 0,0.1033 -0.02436,0.024 -0.07898,-0.024 -0.103333,0 -0.04871,0.049 0.04871,0.158 0,0.2067 -0.02436,0.024 -0.07898,-0.024 -0.103333,0 -0.04871,0.049 0.04871,0.158 0,0.2067 -0.02436,0.024 -0.07898,-0.024 -0.103334,0 -0.02436,0.024 0.0154,0.072 0,0.1033 -0.02178,0.044 -0.08155,0.06 -0.103333,0.1033 -0.0154,0.031 0.02436,0.079 0,0.1034 -0.02436,0.024 -0.07898,-0.024 -0.103333,0 -0.02436,0.024 0.01279,0.071 0,0.1033 -0.05721,0.143 -0.137778,0.2756 -0.206667,0.4133 z"
       id="path10230"
       inkscape:connector-curvature="0" />
  </g>
</svg>
